%TF.GenerationSoftware,KiCad,Pcbnew,6.0.9-8da3e8f707~117~ubuntu20.04.1*%
%TF.CreationDate,2023-01-24T20:19:18-08:00*%
%TF.ProjectId,PDB,5044422e-6b69-4636-9164-5f7063625858,rev?*%
%TF.SameCoordinates,Original*%
%TF.FileFunction,Legend,Bot*%
%TF.FilePolarity,Positive*%
%FSLAX46Y46*%
G04 Gerber Fmt 4.6, Leading zero omitted, Abs format (unit mm)*
G04 Created by KiCad (PCBNEW 6.0.9-8da3e8f707~117~ubuntu20.04.1) date 2023-01-24 20:19:18*
%MOMM*%
%LPD*%
G01*
G04 APERTURE LIST*
%ADD10C,0.150000*%
%ADD11C,0.100000*%
%ADD12C,0.200000*%
G04 APERTURE END LIST*
D10*
X125142857Y-56702380D02*
X125619047Y-56702380D01*
X125666666Y-57178571D01*
X125619047Y-57130952D01*
X125523809Y-57083333D01*
X125285714Y-57083333D01*
X125190476Y-57130952D01*
X125142857Y-57178571D01*
X125095238Y-57273809D01*
X125095238Y-57511904D01*
X125142857Y-57607142D01*
X125190476Y-57654761D01*
X125285714Y-57702380D01*
X125523809Y-57702380D01*
X125619047Y-57654761D01*
X125666666Y-57607142D01*
X124761904Y-57035714D02*
X124523809Y-57702380D01*
X124285714Y-57035714D01*
D11*
X76432600Y-101219047D02*
X76408790Y-101171428D01*
X76408790Y-101100000D01*
X76432600Y-101028571D01*
X76480219Y-100980952D01*
X76527838Y-100957142D01*
X76623076Y-100933333D01*
X76694504Y-100933333D01*
X76789742Y-100957142D01*
X76837361Y-100980952D01*
X76884980Y-101028571D01*
X76908790Y-101100000D01*
X76908790Y-101147619D01*
X76884980Y-101219047D01*
X76861171Y-101242857D01*
X76694504Y-101242857D01*
X76694504Y-101147619D01*
X76908790Y-101457142D02*
X76408790Y-101457142D01*
X76908790Y-101742857D01*
X76408790Y-101742857D01*
X76908790Y-101980952D02*
X76408790Y-101980952D01*
X76408790Y-102100000D01*
X76432600Y-102171428D01*
X76480219Y-102219047D01*
X76527838Y-102242857D01*
X76623076Y-102266666D01*
X76694504Y-102266666D01*
X76789742Y-102242857D01*
X76837361Y-102219047D01*
X76884980Y-102171428D01*
X76908790Y-102100000D01*
X76908790Y-101980952D01*
X76908790Y-99202857D02*
X76908790Y-98917142D01*
X76908790Y-99060000D02*
X76408790Y-99060000D01*
X76480219Y-99012380D01*
X76527838Y-98964761D01*
X76551647Y-98917142D01*
X76883390Y-96115238D02*
X76883390Y-95829523D01*
X76883390Y-95972380D02*
X76383390Y-95972380D01*
X76454819Y-95924761D01*
X76502438Y-95877142D01*
X76526247Y-95829523D01*
X76692914Y-96329523D02*
X76692914Y-96710476D01*
X76883390Y-96520000D02*
X76502438Y-96520000D01*
X76431009Y-96924761D02*
X76407200Y-96948571D01*
X76383390Y-96996190D01*
X76383390Y-97115238D01*
X76407200Y-97162857D01*
X76431009Y-97186666D01*
X76478628Y-97210476D01*
X76526247Y-97210476D01*
X76597676Y-97186666D01*
X76883390Y-96900952D01*
X76883390Y-97210476D01*
D10*
X119633904Y-56750000D02*
X119729142Y-56702380D01*
X119872000Y-56702380D01*
X120014857Y-56750000D01*
X120110095Y-56845238D01*
X120157714Y-56940476D01*
X120205333Y-57130952D01*
X120205333Y-57273809D01*
X120157714Y-57464285D01*
X120110095Y-57559523D01*
X120014857Y-57654761D01*
X119872000Y-57702380D01*
X119776761Y-57702380D01*
X119633904Y-57654761D01*
X119586285Y-57607142D01*
X119586285Y-57273809D01*
X119776761Y-57273809D01*
X119157714Y-57702380D02*
X119157714Y-56702380D01*
X118586285Y-57702380D01*
X118586285Y-56702380D01*
X118110095Y-57702380D02*
X118110095Y-56702380D01*
X117872000Y-56702380D01*
X117729142Y-56750000D01*
X117633904Y-56845238D01*
X117586285Y-56940476D01*
X117538666Y-57130952D01*
X117538666Y-57273809D01*
X117586285Y-57464285D01*
X117633904Y-57559523D01*
X117729142Y-57654761D01*
X117872000Y-57702380D01*
X118110095Y-57702380D01*
X106946628Y-57702380D02*
X107518057Y-57702380D01*
X107232342Y-57702380D02*
X107232342Y-56702380D01*
X107327580Y-56845238D01*
X107422819Y-56940476D01*
X107518057Y-56988095D01*
X106565676Y-56797619D02*
X106518057Y-56750000D01*
X106422819Y-56702380D01*
X106184723Y-56702380D01*
X106089485Y-56750000D01*
X106041866Y-56797619D01*
X105994247Y-56892857D01*
X105994247Y-56988095D01*
X106041866Y-57130952D01*
X106613295Y-57702380D01*
X105994247Y-57702380D01*
X105660914Y-57035714D02*
X105422819Y-57702380D01*
X105184723Y-57035714D01*
D11*
X76908790Y-93027619D02*
X76908790Y-92741904D01*
X76908790Y-92884761D02*
X76408790Y-92884761D01*
X76480219Y-92837142D01*
X76527838Y-92789523D01*
X76551647Y-92741904D01*
X76718314Y-93241904D02*
X76718314Y-93622857D01*
X76908790Y-93432380D02*
X76527838Y-93432380D01*
X76456409Y-93837142D02*
X76432600Y-93860952D01*
X76408790Y-93908571D01*
X76408790Y-94027619D01*
X76432600Y-94075238D01*
X76456409Y-94099047D01*
X76504028Y-94122857D01*
X76551647Y-94122857D01*
X76623076Y-94099047D01*
X76908790Y-93813333D01*
X76908790Y-94122857D01*
X76718314Y-94337142D02*
X76718314Y-94718095D01*
X76908790Y-94527619D02*
X76527838Y-94527619D01*
X76408790Y-94908571D02*
X76408790Y-95218095D01*
X76599266Y-95051428D01*
X76599266Y-95122857D01*
X76623076Y-95170476D01*
X76646885Y-95194285D01*
X76694504Y-95218095D01*
X76813552Y-95218095D01*
X76861171Y-95194285D01*
X76884980Y-95170476D01*
X76908790Y-95122857D01*
X76908790Y-94980000D01*
X76884980Y-94932380D01*
X76861171Y-94908571D01*
D10*
X132806647Y-27472542D02*
X132854266Y-27520161D01*
X132997123Y-27567780D01*
X133092361Y-27567780D01*
X133235219Y-27520161D01*
X133330457Y-27424923D01*
X133378076Y-27329685D01*
X133425695Y-27139209D01*
X133425695Y-26996352D01*
X133378076Y-26805876D01*
X133330457Y-26710638D01*
X133235219Y-26615400D01*
X133092361Y-26567780D01*
X132997123Y-26567780D01*
X132854266Y-26615400D01*
X132806647Y-26663019D01*
X132235219Y-27567780D02*
X132330457Y-27520161D01*
X132378076Y-27472542D01*
X132425695Y-27377304D01*
X132425695Y-27091590D01*
X132378076Y-26996352D01*
X132330457Y-26948733D01*
X132235219Y-26901114D01*
X132092361Y-26901114D01*
X131997123Y-26948733D01*
X131949504Y-26996352D01*
X131901885Y-27091590D01*
X131901885Y-27377304D01*
X131949504Y-27472542D01*
X131997123Y-27520161D01*
X132092361Y-27567780D01*
X132235219Y-27567780D01*
X131473314Y-26901114D02*
X131473314Y-27901114D01*
X131473314Y-26948733D02*
X131378076Y-26901114D01*
X131187600Y-26901114D01*
X131092361Y-26948733D01*
X131044742Y-26996352D01*
X130997123Y-27091590D01*
X130997123Y-27377304D01*
X131044742Y-27472542D01*
X131092361Y-27520161D01*
X131187600Y-27567780D01*
X131378076Y-27567780D01*
X131473314Y-27520161D01*
X130663790Y-26901114D02*
X130425695Y-27567780D01*
X130187600Y-26901114D02*
X130425695Y-27567780D01*
X130520933Y-27805876D01*
X130568552Y-27853495D01*
X130663790Y-27901114D01*
X129806647Y-27567780D02*
X129806647Y-26901114D01*
X129806647Y-27091590D02*
X129759028Y-26996352D01*
X129711409Y-26948733D01*
X129616171Y-26901114D01*
X129520933Y-26901114D01*
X129187600Y-27567780D02*
X129187600Y-26901114D01*
X129187600Y-26567780D02*
X129235219Y-26615400D01*
X129187600Y-26663019D01*
X129139980Y-26615400D01*
X129187600Y-26567780D01*
X129187600Y-26663019D01*
X128282838Y-26901114D02*
X128282838Y-27710638D01*
X128330457Y-27805876D01*
X128378076Y-27853495D01*
X128473314Y-27901114D01*
X128616171Y-27901114D01*
X128711409Y-27853495D01*
X128282838Y-27520161D02*
X128378076Y-27567780D01*
X128568552Y-27567780D01*
X128663790Y-27520161D01*
X128711409Y-27472542D01*
X128759028Y-27377304D01*
X128759028Y-27091590D01*
X128711409Y-26996352D01*
X128663790Y-26948733D01*
X128568552Y-26901114D01*
X128378076Y-26901114D01*
X128282838Y-26948733D01*
X127806647Y-27567780D02*
X127806647Y-26567780D01*
X127378076Y-27567780D02*
X127378076Y-27043971D01*
X127425695Y-26948733D01*
X127520933Y-26901114D01*
X127663790Y-26901114D01*
X127759028Y-26948733D01*
X127806647Y-26996352D01*
X127044742Y-26901114D02*
X126663790Y-26901114D01*
X126901885Y-26567780D02*
X126901885Y-27424923D01*
X126854266Y-27520161D01*
X126759028Y-27567780D01*
X126663790Y-27567780D01*
X125282838Y-27948733D02*
X125330457Y-27901114D01*
X125425695Y-27758257D01*
X125473314Y-27663019D01*
X125520933Y-27520161D01*
X125568552Y-27282066D01*
X125568552Y-27091590D01*
X125520933Y-26853495D01*
X125473314Y-26710638D01*
X125425695Y-26615400D01*
X125330457Y-26472542D01*
X125282838Y-26424923D01*
X124473314Y-27520161D02*
X124568552Y-27567780D01*
X124759028Y-27567780D01*
X124854266Y-27520161D01*
X124901885Y-27472542D01*
X124949504Y-27377304D01*
X124949504Y-27091590D01*
X124901885Y-26996352D01*
X124854266Y-26948733D01*
X124759028Y-26901114D01*
X124568552Y-26901114D01*
X124473314Y-26948733D01*
X124139980Y-27948733D02*
X124092361Y-27901114D01*
X123997123Y-27758257D01*
X123949504Y-27663019D01*
X123901885Y-27520161D01*
X123854266Y-27282066D01*
X123854266Y-27091590D01*
X123901885Y-26853495D01*
X123949504Y-26710638D01*
X123997123Y-26615400D01*
X124092361Y-26472542D01*
X124139980Y-26424923D01*
X122663790Y-26663019D02*
X122616171Y-26615400D01*
X122520933Y-26567780D01*
X122282838Y-26567780D01*
X122187600Y-26615400D01*
X122139980Y-26663019D01*
X122092361Y-26758257D01*
X122092361Y-26853495D01*
X122139980Y-26996352D01*
X122711409Y-27567780D01*
X122092361Y-27567780D01*
X121473314Y-26567780D02*
X121378076Y-26567780D01*
X121282838Y-26615400D01*
X121235219Y-26663019D01*
X121187600Y-26758257D01*
X121139980Y-26948733D01*
X121139980Y-27186828D01*
X121187600Y-27377304D01*
X121235219Y-27472542D01*
X121282838Y-27520161D01*
X121378076Y-27567780D01*
X121473314Y-27567780D01*
X121568552Y-27520161D01*
X121616171Y-27472542D01*
X121663790Y-27377304D01*
X121711409Y-27186828D01*
X121711409Y-26948733D01*
X121663790Y-26758257D01*
X121616171Y-26663019D01*
X121568552Y-26615400D01*
X121473314Y-26567780D01*
X120759028Y-26663019D02*
X120711409Y-26615400D01*
X120616171Y-26567780D01*
X120378076Y-26567780D01*
X120282838Y-26615400D01*
X120235219Y-26663019D01*
X120187600Y-26758257D01*
X120187600Y-26853495D01*
X120235219Y-26996352D01*
X120806647Y-27567780D01*
X120187600Y-27567780D01*
X119854266Y-26567780D02*
X119235219Y-26567780D01*
X119568552Y-26948733D01*
X119425695Y-26948733D01*
X119330457Y-26996352D01*
X119282838Y-27043971D01*
X119235219Y-27139209D01*
X119235219Y-27377304D01*
X119282838Y-27472542D01*
X119330457Y-27520161D01*
X119425695Y-27567780D01*
X119711409Y-27567780D01*
X119806647Y-27520161D01*
X119854266Y-27472542D01*
X118759028Y-27520161D02*
X118759028Y-27567780D01*
X118806647Y-27663019D01*
X118854266Y-27710638D01*
X117568552Y-27567780D02*
X117568552Y-26567780D01*
X117187600Y-26567780D01*
X117092361Y-26615400D01*
X117044742Y-26663019D01*
X116997123Y-26758257D01*
X116997123Y-26901114D01*
X117044742Y-26996352D01*
X117092361Y-27043971D01*
X117187600Y-27091590D01*
X117568552Y-27091590D01*
X116568552Y-27567780D02*
X116568552Y-26901114D01*
X116568552Y-26567780D02*
X116616171Y-26615400D01*
X116568552Y-26663019D01*
X116520933Y-26615400D01*
X116568552Y-26567780D01*
X116568552Y-26663019D01*
X115949504Y-27567780D02*
X116044742Y-27520161D01*
X116092361Y-27472542D01*
X116139980Y-27377304D01*
X116139980Y-27091590D01*
X116092361Y-26996352D01*
X116044742Y-26948733D01*
X115949504Y-26901114D01*
X115806647Y-26901114D01*
X115711409Y-26948733D01*
X115663790Y-26996352D01*
X115616171Y-27091590D01*
X115616171Y-27377304D01*
X115663790Y-27472542D01*
X115711409Y-27520161D01*
X115806647Y-27567780D01*
X115949504Y-27567780D01*
X115187600Y-26901114D02*
X115187600Y-27567780D01*
X115187600Y-26996352D02*
X115139980Y-26948733D01*
X115044742Y-26901114D01*
X114901885Y-26901114D01*
X114806647Y-26948733D01*
X114759028Y-27043971D01*
X114759028Y-27567780D01*
X113901885Y-27520161D02*
X113997123Y-27567780D01*
X114187600Y-27567780D01*
X114282838Y-27520161D01*
X114330457Y-27424923D01*
X114330457Y-27043971D01*
X114282838Y-26948733D01*
X114187600Y-26901114D01*
X113997123Y-26901114D01*
X113901885Y-26948733D01*
X113854266Y-27043971D01*
X113854266Y-27139209D01*
X114330457Y-27234447D01*
X113044742Y-27520161D02*
X113139980Y-27567780D01*
X113330457Y-27567780D01*
X113425695Y-27520161D01*
X113473314Y-27424923D01*
X113473314Y-27043971D01*
X113425695Y-26948733D01*
X113330457Y-26901114D01*
X113139980Y-26901114D01*
X113044742Y-26948733D01*
X112997123Y-27043971D01*
X112997123Y-27139209D01*
X113473314Y-27234447D01*
X112568552Y-27567780D02*
X112568552Y-26901114D01*
X112568552Y-27091590D02*
X112520933Y-26996352D01*
X112473314Y-26948733D01*
X112378076Y-26901114D01*
X112282838Y-26901114D01*
X111997123Y-27520161D02*
X111901885Y-27567780D01*
X111711409Y-27567780D01*
X111616171Y-27520161D01*
X111568552Y-27424923D01*
X111568552Y-27377304D01*
X111616171Y-27282066D01*
X111711409Y-27234447D01*
X111854266Y-27234447D01*
X111949504Y-27186828D01*
X111997123Y-27091590D01*
X111997123Y-27043971D01*
X111949504Y-26948733D01*
X111854266Y-26901114D01*
X111711409Y-26901114D01*
X111616171Y-26948733D01*
X110378076Y-27567780D02*
X110378076Y-26901114D01*
X110378076Y-26567780D02*
X110425695Y-26615400D01*
X110378076Y-26663019D01*
X110330457Y-26615400D01*
X110378076Y-26567780D01*
X110378076Y-26663019D01*
X109901885Y-26901114D02*
X109901885Y-27567780D01*
X109901885Y-26996352D02*
X109854266Y-26948733D01*
X109759028Y-26901114D01*
X109616171Y-26901114D01*
X109520933Y-26948733D01*
X109473314Y-27043971D01*
X109473314Y-27567780D01*
X108235219Y-27043971D02*
X107901885Y-27043971D01*
X107759028Y-27567780D02*
X108235219Y-27567780D01*
X108235219Y-26567780D01*
X107759028Y-26567780D01*
X107330457Y-26901114D02*
X107330457Y-27567780D01*
X107330457Y-26996352D02*
X107282838Y-26948733D01*
X107187600Y-26901114D01*
X107044742Y-26901114D01*
X106949504Y-26948733D01*
X106901885Y-27043971D01*
X106901885Y-27567780D01*
X105997123Y-26901114D02*
X105997123Y-27710638D01*
X106044742Y-27805876D01*
X106092361Y-27853495D01*
X106187600Y-27901114D01*
X106330457Y-27901114D01*
X106425695Y-27853495D01*
X105997123Y-27520161D02*
X106092361Y-27567780D01*
X106282838Y-27567780D01*
X106378076Y-27520161D01*
X106425695Y-27472542D01*
X106473314Y-27377304D01*
X106473314Y-27091590D01*
X106425695Y-26996352D01*
X106378076Y-26948733D01*
X106282838Y-26901114D01*
X106092361Y-26901114D01*
X105997123Y-26948733D01*
X105520933Y-27567780D02*
X105520933Y-26901114D01*
X105520933Y-26567780D02*
X105568552Y-26615400D01*
X105520933Y-26663019D01*
X105473314Y-26615400D01*
X105520933Y-26567780D01*
X105520933Y-26663019D01*
X105044742Y-26901114D02*
X105044742Y-27567780D01*
X105044742Y-26996352D02*
X104997123Y-26948733D01*
X104901885Y-26901114D01*
X104759028Y-26901114D01*
X104663790Y-26948733D01*
X104616171Y-27043971D01*
X104616171Y-27567780D01*
X103759028Y-27520161D02*
X103854266Y-27567780D01*
X104044742Y-27567780D01*
X104139980Y-27520161D01*
X104187600Y-27424923D01*
X104187600Y-27043971D01*
X104139980Y-26948733D01*
X104044742Y-26901114D01*
X103854266Y-26901114D01*
X103759028Y-26948733D01*
X103711409Y-27043971D01*
X103711409Y-27139209D01*
X104187600Y-27234447D01*
X102901885Y-27520161D02*
X102997123Y-27567780D01*
X103187600Y-27567780D01*
X103282838Y-27520161D01*
X103330457Y-27424923D01*
X103330457Y-27043971D01*
X103282838Y-26948733D01*
X103187600Y-26901114D01*
X102997123Y-26901114D01*
X102901885Y-26948733D01*
X102854266Y-27043971D01*
X102854266Y-27139209D01*
X103330457Y-27234447D01*
X102425695Y-27567780D02*
X102425695Y-26901114D01*
X102425695Y-27091590D02*
X102378076Y-26996352D01*
X102330457Y-26948733D01*
X102235219Y-26901114D01*
X102139980Y-26901114D01*
X101806647Y-27567780D02*
X101806647Y-26901114D01*
X101806647Y-26567780D02*
X101854266Y-26615400D01*
X101806647Y-26663019D01*
X101759028Y-26615400D01*
X101806647Y-26567780D01*
X101806647Y-26663019D01*
X101330457Y-26901114D02*
X101330457Y-27567780D01*
X101330457Y-26996352D02*
X101282838Y-26948733D01*
X101187600Y-26901114D01*
X101044742Y-26901114D01*
X100949504Y-26948733D01*
X100901885Y-27043971D01*
X100901885Y-27567780D01*
X99997123Y-26901114D02*
X99997123Y-27710638D01*
X100044742Y-27805876D01*
X100092361Y-27853495D01*
X100187600Y-27901114D01*
X100330457Y-27901114D01*
X100425695Y-27853495D01*
X99997123Y-27520161D02*
X100092361Y-27567780D01*
X100282838Y-27567780D01*
X100378076Y-27520161D01*
X100425695Y-27472542D01*
X100473314Y-27377304D01*
X100473314Y-27091590D01*
X100425695Y-26996352D01*
X100378076Y-26948733D01*
X100282838Y-26901114D01*
X100092361Y-26901114D01*
X99997123Y-26948733D01*
X123735219Y-28892066D02*
X123259028Y-28892066D01*
X123830457Y-29177780D02*
X123497123Y-28177780D01*
X123163790Y-29177780D01*
X122687600Y-29177780D02*
X122782838Y-29130161D01*
X122830457Y-29034923D01*
X122830457Y-28177780D01*
X122163790Y-29177780D02*
X122259028Y-29130161D01*
X122306647Y-29034923D01*
X122306647Y-28177780D01*
X121020933Y-29177780D02*
X121020933Y-28511114D01*
X121020933Y-28701590D02*
X120973314Y-28606352D01*
X120925695Y-28558733D01*
X120830457Y-28511114D01*
X120735219Y-28511114D01*
X120401885Y-29177780D02*
X120401885Y-28511114D01*
X120401885Y-28177780D02*
X120449504Y-28225400D01*
X120401885Y-28273019D01*
X120354266Y-28225400D01*
X120401885Y-28177780D01*
X120401885Y-28273019D01*
X119497123Y-28511114D02*
X119497123Y-29320638D01*
X119544742Y-29415876D01*
X119592361Y-29463495D01*
X119687600Y-29511114D01*
X119830457Y-29511114D01*
X119925695Y-29463495D01*
X119497123Y-29130161D02*
X119592361Y-29177780D01*
X119782838Y-29177780D01*
X119878076Y-29130161D01*
X119925695Y-29082542D01*
X119973314Y-28987304D01*
X119973314Y-28701590D01*
X119925695Y-28606352D01*
X119878076Y-28558733D01*
X119782838Y-28511114D01*
X119592361Y-28511114D01*
X119497123Y-28558733D01*
X119020933Y-29177780D02*
X119020933Y-28177780D01*
X118592361Y-29177780D02*
X118592361Y-28653971D01*
X118639980Y-28558733D01*
X118735219Y-28511114D01*
X118878076Y-28511114D01*
X118973314Y-28558733D01*
X119020933Y-28606352D01*
X118259028Y-28511114D02*
X117878076Y-28511114D01*
X118116171Y-28177780D02*
X118116171Y-29034923D01*
X118068552Y-29130161D01*
X117973314Y-29177780D01*
X117878076Y-29177780D01*
X117592361Y-29130161D02*
X117497123Y-29177780D01*
X117306647Y-29177780D01*
X117211409Y-29130161D01*
X117163790Y-29034923D01*
X117163790Y-28987304D01*
X117211409Y-28892066D01*
X117306647Y-28844447D01*
X117449504Y-28844447D01*
X117544742Y-28796828D01*
X117592361Y-28701590D01*
X117592361Y-28653971D01*
X117544742Y-28558733D01*
X117449504Y-28511114D01*
X117306647Y-28511114D01*
X117211409Y-28558733D01*
X115973314Y-29177780D02*
X115973314Y-28511114D01*
X115973314Y-28701590D02*
X115925695Y-28606352D01*
X115878076Y-28558733D01*
X115782838Y-28511114D01*
X115687600Y-28511114D01*
X114973314Y-29130161D02*
X115068552Y-29177780D01*
X115259028Y-29177780D01*
X115354266Y-29130161D01*
X115401885Y-29034923D01*
X115401885Y-28653971D01*
X115354266Y-28558733D01*
X115259028Y-28511114D01*
X115068552Y-28511114D01*
X114973314Y-28558733D01*
X114925695Y-28653971D01*
X114925695Y-28749209D01*
X115401885Y-28844447D01*
X114544742Y-29130161D02*
X114449504Y-29177780D01*
X114259028Y-29177780D01*
X114163790Y-29130161D01*
X114116171Y-29034923D01*
X114116171Y-28987304D01*
X114163790Y-28892066D01*
X114259028Y-28844447D01*
X114401885Y-28844447D01*
X114497123Y-28796828D01*
X114544742Y-28701590D01*
X114544742Y-28653971D01*
X114497123Y-28558733D01*
X114401885Y-28511114D01*
X114259028Y-28511114D01*
X114163790Y-28558733D01*
X113306647Y-29130161D02*
X113401885Y-29177780D01*
X113592361Y-29177780D01*
X113687600Y-29130161D01*
X113735219Y-29034923D01*
X113735219Y-28653971D01*
X113687600Y-28558733D01*
X113592361Y-28511114D01*
X113401885Y-28511114D01*
X113306647Y-28558733D01*
X113259028Y-28653971D01*
X113259028Y-28749209D01*
X113735219Y-28844447D01*
X112830457Y-29177780D02*
X112830457Y-28511114D01*
X112830457Y-28701590D02*
X112782838Y-28606352D01*
X112735219Y-28558733D01*
X112639980Y-28511114D01*
X112544742Y-28511114D01*
X112306647Y-28511114D02*
X112068552Y-29177780D01*
X111830457Y-28511114D01*
X111068552Y-29130161D02*
X111163790Y-29177780D01*
X111354266Y-29177780D01*
X111449504Y-29130161D01*
X111497123Y-29034923D01*
X111497123Y-28653971D01*
X111449504Y-28558733D01*
X111354266Y-28511114D01*
X111163790Y-28511114D01*
X111068552Y-28558733D01*
X111020933Y-28653971D01*
X111020933Y-28749209D01*
X111497123Y-28844447D01*
X110163790Y-29177780D02*
X110163790Y-28177780D01*
X110163790Y-29130161D02*
X110259028Y-29177780D01*
X110449504Y-29177780D01*
X110544742Y-29130161D01*
X110592361Y-29082542D01*
X110639980Y-28987304D01*
X110639980Y-28701590D01*
X110592361Y-28606352D01*
X110544742Y-28558733D01*
X110449504Y-28511114D01*
X110259028Y-28511114D01*
X110163790Y-28558733D01*
X109687600Y-29082542D02*
X109639980Y-29130161D01*
X109687600Y-29177780D01*
X109735219Y-29130161D01*
X109687600Y-29082542D01*
X109687600Y-29177780D01*
X123878076Y-30787780D02*
X123878076Y-29787780D01*
X123639980Y-29787780D01*
X123497123Y-29835400D01*
X123401885Y-29930638D01*
X123354266Y-30025876D01*
X123306647Y-30216352D01*
X123306647Y-30359209D01*
X123354266Y-30549685D01*
X123401885Y-30644923D01*
X123497123Y-30740161D01*
X123639980Y-30787780D01*
X123878076Y-30787780D01*
X122497123Y-30740161D02*
X122592361Y-30787780D01*
X122782838Y-30787780D01*
X122878076Y-30740161D01*
X122925695Y-30644923D01*
X122925695Y-30263971D01*
X122878076Y-30168733D01*
X122782838Y-30121114D01*
X122592361Y-30121114D01*
X122497123Y-30168733D01*
X122449504Y-30263971D01*
X122449504Y-30359209D01*
X122925695Y-30454447D01*
X122068552Y-30740161D02*
X121973314Y-30787780D01*
X121782838Y-30787780D01*
X121687600Y-30740161D01*
X121639980Y-30644923D01*
X121639980Y-30597304D01*
X121687600Y-30502066D01*
X121782838Y-30454447D01*
X121925695Y-30454447D01*
X122020933Y-30406828D01*
X122068552Y-30311590D01*
X122068552Y-30263971D01*
X122020933Y-30168733D01*
X121925695Y-30121114D01*
X121782838Y-30121114D01*
X121687600Y-30168733D01*
X121211409Y-30787780D02*
X121211409Y-30121114D01*
X121211409Y-29787780D02*
X121259028Y-29835400D01*
X121211409Y-29883019D01*
X121163790Y-29835400D01*
X121211409Y-29787780D01*
X121211409Y-29883019D01*
X120306647Y-30121114D02*
X120306647Y-30930638D01*
X120354266Y-31025876D01*
X120401885Y-31073495D01*
X120497123Y-31121114D01*
X120639980Y-31121114D01*
X120735219Y-31073495D01*
X120306647Y-30740161D02*
X120401885Y-30787780D01*
X120592361Y-30787780D01*
X120687600Y-30740161D01*
X120735219Y-30692542D01*
X120782838Y-30597304D01*
X120782838Y-30311590D01*
X120735219Y-30216352D01*
X120687600Y-30168733D01*
X120592361Y-30121114D01*
X120401885Y-30121114D01*
X120306647Y-30168733D01*
X119830457Y-30121114D02*
X119830457Y-30787780D01*
X119830457Y-30216352D02*
X119782838Y-30168733D01*
X119687600Y-30121114D01*
X119544742Y-30121114D01*
X119449504Y-30168733D01*
X119401885Y-30263971D01*
X119401885Y-30787780D01*
X118163790Y-30787780D02*
X118163790Y-29787780D01*
X118163790Y-30168733D02*
X118068552Y-30121114D01*
X117878076Y-30121114D01*
X117782838Y-30168733D01*
X117735219Y-30216352D01*
X117687600Y-30311590D01*
X117687600Y-30597304D01*
X117735219Y-30692542D01*
X117782838Y-30740161D01*
X117878076Y-30787780D01*
X118068552Y-30787780D01*
X118163790Y-30740161D01*
X117354266Y-30121114D02*
X117116171Y-30787780D01*
X116878076Y-30121114D02*
X117116171Y-30787780D01*
X117211409Y-31025876D01*
X117259028Y-31073495D01*
X117354266Y-31121114D01*
X116497123Y-30692542D02*
X116449504Y-30740161D01*
X116497123Y-30787780D01*
X116544742Y-30740161D01*
X116497123Y-30692542D01*
X116497123Y-30787780D01*
X116497123Y-30168733D02*
X116449504Y-30216352D01*
X116497123Y-30263971D01*
X116544742Y-30216352D01*
X116497123Y-30168733D01*
X116497123Y-30263971D01*
X114973314Y-29787780D02*
X114973314Y-30502066D01*
X115020933Y-30644923D01*
X115116171Y-30740161D01*
X115259028Y-30787780D01*
X115354266Y-30787780D01*
X114068552Y-30121114D02*
X114068552Y-30787780D01*
X114497123Y-30121114D02*
X114497123Y-30644923D01*
X114449504Y-30740161D01*
X114354266Y-30787780D01*
X114211409Y-30787780D01*
X114116171Y-30740161D01*
X114068552Y-30692542D01*
X113639980Y-30740161D02*
X113544742Y-30787780D01*
X113354266Y-30787780D01*
X113259028Y-30740161D01*
X113211409Y-30644923D01*
X113211409Y-30597304D01*
X113259028Y-30502066D01*
X113354266Y-30454447D01*
X113497123Y-30454447D01*
X113592361Y-30406828D01*
X113639980Y-30311590D01*
X113639980Y-30263971D01*
X113592361Y-30168733D01*
X113497123Y-30121114D01*
X113354266Y-30121114D01*
X113259028Y-30168733D01*
X112925695Y-30121114D02*
X112544742Y-30121114D01*
X112782838Y-29787780D02*
X112782838Y-30644923D01*
X112735219Y-30740161D01*
X112639980Y-30787780D01*
X112544742Y-30787780D01*
X112211409Y-30787780D02*
X112211409Y-30121114D01*
X112211409Y-29787780D02*
X112259028Y-29835400D01*
X112211409Y-29883019D01*
X112163790Y-29835400D01*
X112211409Y-29787780D01*
X112211409Y-29883019D01*
X111735219Y-30121114D02*
X111735219Y-30787780D01*
X111735219Y-30216352D02*
X111687600Y-30168733D01*
X111592361Y-30121114D01*
X111449504Y-30121114D01*
X111354266Y-30168733D01*
X111306647Y-30263971D01*
X111306647Y-30787780D01*
X110068552Y-30787780D02*
X110068552Y-29787780D01*
X110068552Y-30263971D02*
X109497123Y-30263971D01*
X109497123Y-30787780D02*
X109497123Y-29787780D01*
X130925695Y-31397780D02*
X130354266Y-31397780D01*
X130639980Y-32397780D02*
X130639980Y-31397780D01*
X130020933Y-32397780D02*
X130020933Y-31397780D01*
X129592361Y-32397780D02*
X129592361Y-31873971D01*
X129639980Y-31778733D01*
X129735219Y-31731114D01*
X129878076Y-31731114D01*
X129973314Y-31778733D01*
X130020933Y-31826352D01*
X129116171Y-32397780D02*
X129116171Y-31731114D01*
X129116171Y-31397780D02*
X129163790Y-31445400D01*
X129116171Y-31493019D01*
X129068552Y-31445400D01*
X129116171Y-31397780D01*
X129116171Y-31493019D01*
X128687600Y-32350161D02*
X128592361Y-32397780D01*
X128401885Y-32397780D01*
X128306647Y-32350161D01*
X128259028Y-32254923D01*
X128259028Y-32207304D01*
X128306647Y-32112066D01*
X128401885Y-32064447D01*
X128544742Y-32064447D01*
X128639980Y-32016828D01*
X128687600Y-31921590D01*
X128687600Y-31873971D01*
X128639980Y-31778733D01*
X128544742Y-31731114D01*
X128401885Y-31731114D01*
X128306647Y-31778733D01*
X126639980Y-32397780D02*
X126639980Y-31397780D01*
X126639980Y-32350161D02*
X126735219Y-32397780D01*
X126925695Y-32397780D01*
X127020933Y-32350161D01*
X127068552Y-32302542D01*
X127116171Y-32207304D01*
X127116171Y-31921590D01*
X127068552Y-31826352D01*
X127020933Y-31778733D01*
X126925695Y-31731114D01*
X126735219Y-31731114D01*
X126639980Y-31778733D01*
X125782838Y-32350161D02*
X125878076Y-32397780D01*
X126068552Y-32397780D01*
X126163790Y-32350161D01*
X126211409Y-32254923D01*
X126211409Y-31873971D01*
X126163790Y-31778733D01*
X126068552Y-31731114D01*
X125878076Y-31731114D01*
X125782838Y-31778733D01*
X125735219Y-31873971D01*
X125735219Y-31969209D01*
X126211409Y-32064447D01*
X125354266Y-32350161D02*
X125259028Y-32397780D01*
X125068552Y-32397780D01*
X124973314Y-32350161D01*
X124925695Y-32254923D01*
X124925695Y-32207304D01*
X124973314Y-32112066D01*
X125068552Y-32064447D01*
X125211409Y-32064447D01*
X125306647Y-32016828D01*
X125354266Y-31921590D01*
X125354266Y-31873971D01*
X125306647Y-31778733D01*
X125211409Y-31731114D01*
X125068552Y-31731114D01*
X124973314Y-31778733D01*
X124497123Y-32397780D02*
X124497123Y-31731114D01*
X124497123Y-31397780D02*
X124544742Y-31445400D01*
X124497123Y-31493019D01*
X124449504Y-31445400D01*
X124497123Y-31397780D01*
X124497123Y-31493019D01*
X123592361Y-31731114D02*
X123592361Y-32540638D01*
X123639980Y-32635876D01*
X123687600Y-32683495D01*
X123782838Y-32731114D01*
X123925695Y-32731114D01*
X124020933Y-32683495D01*
X123592361Y-32350161D02*
X123687600Y-32397780D01*
X123878076Y-32397780D01*
X123973314Y-32350161D01*
X124020933Y-32302542D01*
X124068552Y-32207304D01*
X124068552Y-31921590D01*
X124020933Y-31826352D01*
X123973314Y-31778733D01*
X123878076Y-31731114D01*
X123687600Y-31731114D01*
X123592361Y-31778733D01*
X123116171Y-31731114D02*
X123116171Y-32397780D01*
X123116171Y-31826352D02*
X123068552Y-31778733D01*
X122973314Y-31731114D01*
X122830457Y-31731114D01*
X122735219Y-31778733D01*
X122687600Y-31873971D01*
X122687600Y-32397780D01*
X121449504Y-32397780D02*
X121449504Y-31731114D01*
X121449504Y-31397780D02*
X121497123Y-31445400D01*
X121449504Y-31493019D01*
X121401885Y-31445400D01*
X121449504Y-31397780D01*
X121449504Y-31493019D01*
X121020933Y-32350161D02*
X120925695Y-32397780D01*
X120735219Y-32397780D01*
X120639980Y-32350161D01*
X120592361Y-32254923D01*
X120592361Y-32207304D01*
X120639980Y-32112066D01*
X120735219Y-32064447D01*
X120878076Y-32064447D01*
X120973314Y-32016828D01*
X121020933Y-31921590D01*
X121020933Y-31873971D01*
X120973314Y-31778733D01*
X120878076Y-31731114D01*
X120735219Y-31731114D01*
X120639980Y-31778733D01*
X119259028Y-32397780D02*
X119354266Y-32350161D01*
X119401885Y-32302542D01*
X119449504Y-32207304D01*
X119449504Y-31921590D01*
X119401885Y-31826352D01*
X119354266Y-31778733D01*
X119259028Y-31731114D01*
X119116171Y-31731114D01*
X119020933Y-31778733D01*
X118973314Y-31826352D01*
X118925695Y-31921590D01*
X118925695Y-32207304D01*
X118973314Y-32302542D01*
X119020933Y-32350161D01*
X119116171Y-32397780D01*
X119259028Y-32397780D01*
X118497123Y-31731114D02*
X118497123Y-32731114D01*
X118497123Y-31778733D02*
X118401885Y-31731114D01*
X118211409Y-31731114D01*
X118116171Y-31778733D01*
X118068552Y-31826352D01*
X118020933Y-31921590D01*
X118020933Y-32207304D01*
X118068552Y-32302542D01*
X118116171Y-32350161D01*
X118211409Y-32397780D01*
X118401885Y-32397780D01*
X118497123Y-32350161D01*
X117211409Y-32350161D02*
X117306647Y-32397780D01*
X117497123Y-32397780D01*
X117592361Y-32350161D01*
X117639980Y-32254923D01*
X117639980Y-31873971D01*
X117592361Y-31778733D01*
X117497123Y-31731114D01*
X117306647Y-31731114D01*
X117211409Y-31778733D01*
X117163790Y-31873971D01*
X117163790Y-31969209D01*
X117639980Y-32064447D01*
X116735219Y-31731114D02*
X116735219Y-32397780D01*
X116735219Y-31826352D02*
X116687600Y-31778733D01*
X116592361Y-31731114D01*
X116449504Y-31731114D01*
X116354266Y-31778733D01*
X116306647Y-31873971D01*
X116306647Y-32397780D01*
X115116171Y-32350161D02*
X115020933Y-32397780D01*
X114830457Y-32397780D01*
X114735219Y-32350161D01*
X114687600Y-32254923D01*
X114687600Y-32207304D01*
X114735219Y-32112066D01*
X114830457Y-32064447D01*
X114973314Y-32064447D01*
X115068552Y-32016828D01*
X115116171Y-31921590D01*
X115116171Y-31873971D01*
X115068552Y-31778733D01*
X114973314Y-31731114D01*
X114830457Y-31731114D01*
X114735219Y-31778733D01*
X114116171Y-32397780D02*
X114211409Y-32350161D01*
X114259028Y-32302542D01*
X114306647Y-32207304D01*
X114306647Y-31921590D01*
X114259028Y-31826352D01*
X114211409Y-31778733D01*
X114116171Y-31731114D01*
X113973314Y-31731114D01*
X113878076Y-31778733D01*
X113830457Y-31826352D01*
X113782838Y-31921590D01*
X113782838Y-32207304D01*
X113830457Y-32302542D01*
X113878076Y-32350161D01*
X113973314Y-32397780D01*
X114116171Y-32397780D01*
X112925695Y-31731114D02*
X112925695Y-32397780D01*
X113354266Y-31731114D02*
X113354266Y-32254923D01*
X113306647Y-32350161D01*
X113211409Y-32397780D01*
X113068552Y-32397780D01*
X112973314Y-32350161D01*
X112925695Y-32302542D01*
X112449504Y-32397780D02*
X112449504Y-31731114D01*
X112449504Y-31921590D02*
X112401885Y-31826352D01*
X112354266Y-31778733D01*
X112259028Y-31731114D01*
X112163790Y-31731114D01*
X111401885Y-32350161D02*
X111497123Y-32397780D01*
X111687600Y-32397780D01*
X111782838Y-32350161D01*
X111830457Y-32302542D01*
X111878076Y-32207304D01*
X111878076Y-31921590D01*
X111830457Y-31826352D01*
X111782838Y-31778733D01*
X111687600Y-31731114D01*
X111497123Y-31731114D01*
X111401885Y-31778733D01*
X110592361Y-32350161D02*
X110687600Y-32397780D01*
X110878076Y-32397780D01*
X110973314Y-32350161D01*
X111020933Y-32254923D01*
X111020933Y-31873971D01*
X110973314Y-31778733D01*
X110878076Y-31731114D01*
X110687600Y-31731114D01*
X110592361Y-31778733D01*
X110544742Y-31873971D01*
X110544742Y-31969209D01*
X111020933Y-32064447D01*
X109354266Y-32397780D02*
X109354266Y-31397780D01*
X108925695Y-32397780D02*
X108925695Y-31873971D01*
X108973314Y-31778733D01*
X109068552Y-31731114D01*
X109211409Y-31731114D01*
X109306647Y-31778733D01*
X109354266Y-31826352D01*
X108020933Y-32397780D02*
X108020933Y-31873971D01*
X108068552Y-31778733D01*
X108163790Y-31731114D01*
X108354266Y-31731114D01*
X108449504Y-31778733D01*
X108020933Y-32350161D02*
X108116171Y-32397780D01*
X108354266Y-32397780D01*
X108449504Y-32350161D01*
X108497123Y-32254923D01*
X108497123Y-32159685D01*
X108449504Y-32064447D01*
X108354266Y-32016828D01*
X108116171Y-32016828D01*
X108020933Y-31969209D01*
X107544742Y-32397780D02*
X107544742Y-31731114D01*
X107544742Y-31921590D02*
X107497123Y-31826352D01*
X107449504Y-31778733D01*
X107354266Y-31731114D01*
X107259028Y-31731114D01*
X106497123Y-32397780D02*
X106497123Y-31397780D01*
X106497123Y-32350161D02*
X106592361Y-32397780D01*
X106782838Y-32397780D01*
X106878076Y-32350161D01*
X106925695Y-32302542D01*
X106973314Y-32207304D01*
X106973314Y-31921590D01*
X106925695Y-31826352D01*
X106878076Y-31778733D01*
X106782838Y-31731114D01*
X106592361Y-31731114D01*
X106497123Y-31778733D01*
X106116171Y-31731114D02*
X105925695Y-32397780D01*
X105735219Y-31921590D01*
X105544742Y-32397780D01*
X105354266Y-31731114D01*
X104544742Y-32397780D02*
X104544742Y-31873971D01*
X104592361Y-31778733D01*
X104687600Y-31731114D01*
X104878076Y-31731114D01*
X104973314Y-31778733D01*
X104544742Y-32350161D02*
X104639980Y-32397780D01*
X104878076Y-32397780D01*
X104973314Y-32350161D01*
X105020933Y-32254923D01*
X105020933Y-32159685D01*
X104973314Y-32064447D01*
X104878076Y-32016828D01*
X104639980Y-32016828D01*
X104544742Y-31969209D01*
X104068552Y-32397780D02*
X104068552Y-31731114D01*
X104068552Y-31921590D02*
X104020933Y-31826352D01*
X103973314Y-31778733D01*
X103878076Y-31731114D01*
X103782838Y-31731114D01*
X103068552Y-32350161D02*
X103163790Y-32397780D01*
X103354266Y-32397780D01*
X103449504Y-32350161D01*
X103497123Y-32254923D01*
X103497123Y-31873971D01*
X103449504Y-31778733D01*
X103354266Y-31731114D01*
X103163790Y-31731114D01*
X103068552Y-31778733D01*
X103020933Y-31873971D01*
X103020933Y-31969209D01*
X103497123Y-32064447D01*
X102592361Y-32302542D02*
X102544742Y-32350161D01*
X102592361Y-32397780D01*
X102639980Y-32350161D01*
X102592361Y-32302542D01*
X102592361Y-32397780D01*
X126759028Y-33483971D02*
X127092361Y-33483971D01*
X127092361Y-34007780D02*
X127092361Y-33007780D01*
X126616171Y-33007780D01*
X126092361Y-34007780D02*
X126187600Y-33960161D01*
X126235219Y-33912542D01*
X126282838Y-33817304D01*
X126282838Y-33531590D01*
X126235219Y-33436352D01*
X126187600Y-33388733D01*
X126092361Y-33341114D01*
X125949504Y-33341114D01*
X125854266Y-33388733D01*
X125806647Y-33436352D01*
X125759028Y-33531590D01*
X125759028Y-33817304D01*
X125806647Y-33912542D01*
X125854266Y-33960161D01*
X125949504Y-34007780D01*
X126092361Y-34007780D01*
X125330457Y-34007780D02*
X125330457Y-33341114D01*
X125330457Y-33531590D02*
X125282838Y-33436352D01*
X125235219Y-33388733D01*
X125139980Y-33341114D01*
X125044742Y-33341114D01*
X123949504Y-34007780D02*
X123949504Y-33341114D01*
X123949504Y-33436352D02*
X123901885Y-33388733D01*
X123806647Y-33341114D01*
X123663790Y-33341114D01*
X123568552Y-33388733D01*
X123520933Y-33483971D01*
X123520933Y-34007780D01*
X123520933Y-33483971D02*
X123473314Y-33388733D01*
X123378076Y-33341114D01*
X123235219Y-33341114D01*
X123139980Y-33388733D01*
X123092361Y-33483971D01*
X123092361Y-34007780D01*
X122473314Y-34007780D02*
X122568552Y-33960161D01*
X122616171Y-33912542D01*
X122663790Y-33817304D01*
X122663790Y-33531590D01*
X122616171Y-33436352D01*
X122568552Y-33388733D01*
X122473314Y-33341114D01*
X122330457Y-33341114D01*
X122235219Y-33388733D01*
X122187600Y-33436352D01*
X122139980Y-33531590D01*
X122139980Y-33817304D01*
X122187600Y-33912542D01*
X122235219Y-33960161D01*
X122330457Y-34007780D01*
X122473314Y-34007780D01*
X121711409Y-34007780D02*
X121711409Y-33341114D01*
X121711409Y-33531590D02*
X121663790Y-33436352D01*
X121616171Y-33388733D01*
X121520933Y-33341114D01*
X121425695Y-33341114D01*
X120711409Y-33960161D02*
X120806647Y-34007780D01*
X120997123Y-34007780D01*
X121092361Y-33960161D01*
X121139980Y-33864923D01*
X121139980Y-33483971D01*
X121092361Y-33388733D01*
X120997123Y-33341114D01*
X120806647Y-33341114D01*
X120711409Y-33388733D01*
X120663790Y-33483971D01*
X120663790Y-33579209D01*
X121139980Y-33674447D01*
X119473314Y-34007780D02*
X119473314Y-33341114D01*
X119473314Y-33007780D02*
X119520933Y-33055400D01*
X119473314Y-33103019D01*
X119425695Y-33055400D01*
X119473314Y-33007780D01*
X119473314Y-33103019D01*
X118997123Y-33341114D02*
X118997123Y-34007780D01*
X118997123Y-33436352D02*
X118949504Y-33388733D01*
X118854266Y-33341114D01*
X118711409Y-33341114D01*
X118616171Y-33388733D01*
X118568552Y-33483971D01*
X118568552Y-34007780D01*
X118235219Y-33341114D02*
X117854266Y-33341114D01*
X118092361Y-34007780D02*
X118092361Y-33150638D01*
X118044742Y-33055400D01*
X117949504Y-33007780D01*
X117854266Y-33007780D01*
X117378076Y-34007780D02*
X117473314Y-33960161D01*
X117520933Y-33912542D01*
X117568552Y-33817304D01*
X117568552Y-33531590D01*
X117520933Y-33436352D01*
X117473314Y-33388733D01*
X117378076Y-33341114D01*
X117235219Y-33341114D01*
X117139980Y-33388733D01*
X117092361Y-33436352D01*
X117044742Y-33531590D01*
X117044742Y-33817304D01*
X117092361Y-33912542D01*
X117139980Y-33960161D01*
X117235219Y-34007780D01*
X117378076Y-34007780D01*
X116616171Y-34007780D02*
X116616171Y-33341114D01*
X116616171Y-33531590D02*
X116568552Y-33436352D01*
X116520933Y-33388733D01*
X116425695Y-33341114D01*
X116330457Y-33341114D01*
X115997123Y-34007780D02*
X115997123Y-33341114D01*
X115997123Y-33436352D02*
X115949504Y-33388733D01*
X115854266Y-33341114D01*
X115711409Y-33341114D01*
X115616171Y-33388733D01*
X115568552Y-33483971D01*
X115568552Y-34007780D01*
X115568552Y-33483971D02*
X115520933Y-33388733D01*
X115425695Y-33341114D01*
X115282838Y-33341114D01*
X115187600Y-33388733D01*
X115139980Y-33483971D01*
X115139980Y-34007780D01*
X114235219Y-34007780D02*
X114235219Y-33483971D01*
X114282838Y-33388733D01*
X114378076Y-33341114D01*
X114568552Y-33341114D01*
X114663790Y-33388733D01*
X114235219Y-33960161D02*
X114330457Y-34007780D01*
X114568552Y-34007780D01*
X114663790Y-33960161D01*
X114711409Y-33864923D01*
X114711409Y-33769685D01*
X114663790Y-33674447D01*
X114568552Y-33626828D01*
X114330457Y-33626828D01*
X114235219Y-33579209D01*
X113901885Y-33341114D02*
X113520933Y-33341114D01*
X113759028Y-33007780D02*
X113759028Y-33864923D01*
X113711409Y-33960161D01*
X113616171Y-34007780D01*
X113520933Y-34007780D01*
X113187600Y-34007780D02*
X113187600Y-33341114D01*
X113187600Y-33007780D02*
X113235219Y-33055400D01*
X113187600Y-33103019D01*
X113139980Y-33055400D01*
X113187600Y-33007780D01*
X113187600Y-33103019D01*
X112568552Y-34007780D02*
X112663790Y-33960161D01*
X112711409Y-33912542D01*
X112759028Y-33817304D01*
X112759028Y-33531590D01*
X112711409Y-33436352D01*
X112663790Y-33388733D01*
X112568552Y-33341114D01*
X112425695Y-33341114D01*
X112330457Y-33388733D01*
X112282838Y-33436352D01*
X112235219Y-33531590D01*
X112235219Y-33817304D01*
X112282838Y-33912542D01*
X112330457Y-33960161D01*
X112425695Y-34007780D01*
X112568552Y-34007780D01*
X111806647Y-33341114D02*
X111806647Y-34007780D01*
X111806647Y-33436352D02*
X111759028Y-33388733D01*
X111663790Y-33341114D01*
X111520933Y-33341114D01*
X111425695Y-33388733D01*
X111378076Y-33483971D01*
X111378076Y-34007780D01*
X110854266Y-33960161D02*
X110854266Y-34007780D01*
X110901885Y-34103019D01*
X110949504Y-34150638D01*
X109759028Y-33341114D02*
X109520933Y-34007780D01*
X109282838Y-33341114D01*
X108901885Y-34007780D02*
X108901885Y-33341114D01*
X108901885Y-33007780D02*
X108949504Y-33055400D01*
X108901885Y-33103019D01*
X108854266Y-33055400D01*
X108901885Y-33007780D01*
X108901885Y-33103019D01*
X108473314Y-33960161D02*
X108378076Y-34007780D01*
X108187600Y-34007780D01*
X108092361Y-33960161D01*
X108044742Y-33864923D01*
X108044742Y-33817304D01*
X108092361Y-33722066D01*
X108187600Y-33674447D01*
X108330457Y-33674447D01*
X108425695Y-33626828D01*
X108473314Y-33531590D01*
X108473314Y-33483971D01*
X108425695Y-33388733D01*
X108330457Y-33341114D01*
X108187600Y-33341114D01*
X108092361Y-33388733D01*
X107616171Y-34007780D02*
X107616171Y-33341114D01*
X107616171Y-33007780D02*
X107663790Y-33055400D01*
X107616171Y-33103019D01*
X107568552Y-33055400D01*
X107616171Y-33007780D01*
X107616171Y-33103019D01*
X107282838Y-33341114D02*
X106901885Y-33341114D01*
X107139980Y-33007780D02*
X107139980Y-33864923D01*
X107092361Y-33960161D01*
X106997123Y-34007780D01*
X106901885Y-34007780D01*
X128639980Y-34951114D02*
X128639980Y-35760638D01*
X128687600Y-35855876D01*
X128735219Y-35903495D01*
X128830457Y-35951114D01*
X128973314Y-35951114D01*
X129068552Y-35903495D01*
X128639980Y-35570161D02*
X128735219Y-35617780D01*
X128925695Y-35617780D01*
X129020933Y-35570161D01*
X129068552Y-35522542D01*
X129116171Y-35427304D01*
X129116171Y-35141590D01*
X129068552Y-35046352D01*
X129020933Y-34998733D01*
X128925695Y-34951114D01*
X128735219Y-34951114D01*
X128639980Y-34998733D01*
X128163790Y-35617780D02*
X128163790Y-34951114D01*
X128163790Y-34617780D02*
X128211409Y-34665400D01*
X128163790Y-34713019D01*
X128116171Y-34665400D01*
X128163790Y-34617780D01*
X128163790Y-34713019D01*
X127830457Y-34951114D02*
X127449504Y-34951114D01*
X127687600Y-34617780D02*
X127687600Y-35474923D01*
X127639980Y-35570161D01*
X127544742Y-35617780D01*
X127449504Y-35617780D01*
X127116171Y-35617780D02*
X127116171Y-34617780D01*
X126687600Y-35617780D02*
X126687600Y-35093971D01*
X126735219Y-34998733D01*
X126830457Y-34951114D01*
X126973314Y-34951114D01*
X127068552Y-34998733D01*
X127116171Y-35046352D01*
X125782838Y-34951114D02*
X125782838Y-35617780D01*
X126211409Y-34951114D02*
X126211409Y-35474923D01*
X126163790Y-35570161D01*
X126068552Y-35617780D01*
X125925695Y-35617780D01*
X125830457Y-35570161D01*
X125782838Y-35522542D01*
X125306647Y-35617780D02*
X125306647Y-34617780D01*
X125306647Y-34998733D02*
X125211409Y-34951114D01*
X125020933Y-34951114D01*
X124925695Y-34998733D01*
X124878076Y-35046352D01*
X124830457Y-35141590D01*
X124830457Y-35427304D01*
X124878076Y-35522542D01*
X124925695Y-35570161D01*
X125020933Y-35617780D01*
X125211409Y-35617780D01*
X125306647Y-35570161D01*
X124401885Y-35522542D02*
X124354266Y-35570161D01*
X124401885Y-35617780D01*
X124449504Y-35570161D01*
X124401885Y-35522542D01*
X124401885Y-35617780D01*
X123497123Y-35570161D02*
X123592361Y-35617780D01*
X123782838Y-35617780D01*
X123878076Y-35570161D01*
X123925695Y-35522542D01*
X123973314Y-35427304D01*
X123973314Y-35141590D01*
X123925695Y-35046352D01*
X123878076Y-34998733D01*
X123782838Y-34951114D01*
X123592361Y-34951114D01*
X123497123Y-34998733D01*
X122925695Y-35617780D02*
X123020933Y-35570161D01*
X123068552Y-35522542D01*
X123116171Y-35427304D01*
X123116171Y-35141590D01*
X123068552Y-35046352D01*
X123020933Y-34998733D01*
X122925695Y-34951114D01*
X122782838Y-34951114D01*
X122687600Y-34998733D01*
X122639980Y-35046352D01*
X122592361Y-35141590D01*
X122592361Y-35427304D01*
X122639980Y-35522542D01*
X122687600Y-35570161D01*
X122782838Y-35617780D01*
X122925695Y-35617780D01*
X122163790Y-35617780D02*
X122163790Y-34951114D01*
X122163790Y-35046352D02*
X122116171Y-34998733D01*
X122020933Y-34951114D01*
X121878076Y-34951114D01*
X121782838Y-34998733D01*
X121735219Y-35093971D01*
X121735219Y-35617780D01*
X121735219Y-35093971D02*
X121687600Y-34998733D01*
X121592361Y-34951114D01*
X121449504Y-34951114D01*
X121354266Y-34998733D01*
X121306647Y-35093971D01*
X121306647Y-35617780D01*
X120116171Y-34570161D02*
X120973314Y-35855876D01*
X119782838Y-34951114D02*
X119782838Y-35951114D01*
X119782838Y-34998733D02*
X119687600Y-34951114D01*
X119497123Y-34951114D01*
X119401885Y-34998733D01*
X119354266Y-35046352D01*
X119306647Y-35141590D01*
X119306647Y-35427304D01*
X119354266Y-35522542D01*
X119401885Y-35570161D01*
X119497123Y-35617780D01*
X119687600Y-35617780D01*
X119782838Y-35570161D01*
X118878076Y-35617780D02*
X118878076Y-34951114D01*
X118878076Y-34617780D02*
X118925695Y-34665400D01*
X118878076Y-34713019D01*
X118830457Y-34665400D01*
X118878076Y-34617780D01*
X118878076Y-34713019D01*
X118259028Y-35617780D02*
X118354266Y-35570161D01*
X118401885Y-35522542D01*
X118449504Y-35427304D01*
X118449504Y-35141590D01*
X118401885Y-35046352D01*
X118354266Y-34998733D01*
X118259028Y-34951114D01*
X118116171Y-34951114D01*
X118020933Y-34998733D01*
X117973314Y-35046352D01*
X117925695Y-35141590D01*
X117925695Y-35427304D01*
X117973314Y-35522542D01*
X118020933Y-35570161D01*
X118116171Y-35617780D01*
X118259028Y-35617780D01*
X117497123Y-34951114D02*
X117497123Y-35617780D01*
X117497123Y-35046352D02*
X117449504Y-34998733D01*
X117354266Y-34951114D01*
X117211409Y-34951114D01*
X117116171Y-34998733D01*
X117068552Y-35093971D01*
X117068552Y-35617780D01*
X116211409Y-35570161D02*
X116306647Y-35617780D01*
X116497123Y-35617780D01*
X116592361Y-35570161D01*
X116639980Y-35474923D01*
X116639980Y-35093971D01*
X116592361Y-34998733D01*
X116497123Y-34951114D01*
X116306647Y-34951114D01*
X116211409Y-34998733D01*
X116163790Y-35093971D01*
X116163790Y-35189209D01*
X116639980Y-35284447D01*
X115354266Y-35570161D02*
X115449504Y-35617780D01*
X115639980Y-35617780D01*
X115735219Y-35570161D01*
X115782838Y-35474923D01*
X115782838Y-35093971D01*
X115735219Y-34998733D01*
X115639980Y-34951114D01*
X115449504Y-34951114D01*
X115354266Y-34998733D01*
X115306647Y-35093971D01*
X115306647Y-35189209D01*
X115782838Y-35284447D01*
X114878076Y-35617780D02*
X114878076Y-34951114D01*
X114878076Y-35141590D02*
X114830457Y-35046352D01*
X114782838Y-34998733D01*
X114687600Y-34951114D01*
X114592361Y-34951114D01*
X114306647Y-35570161D02*
X114211409Y-35617780D01*
X114020933Y-35617780D01*
X113925695Y-35570161D01*
X113878076Y-35474923D01*
X113878076Y-35427304D01*
X113925695Y-35332066D01*
X114020933Y-35284447D01*
X114163790Y-35284447D01*
X114259028Y-35236828D01*
X114306647Y-35141590D01*
X114306647Y-35093971D01*
X114259028Y-34998733D01*
X114163790Y-34951114D01*
X114020933Y-34951114D01*
X113925695Y-34998733D01*
X112735219Y-34570161D02*
X113592361Y-35855876D01*
X112401885Y-35617780D02*
X112401885Y-34617780D01*
X112020933Y-34617780D01*
X111925695Y-34665400D01*
X111878076Y-34713019D01*
X111830457Y-34808257D01*
X111830457Y-34951114D01*
X111878076Y-35046352D01*
X111925695Y-35093971D01*
X112020933Y-35141590D01*
X112401885Y-35141590D01*
X111401885Y-35617780D02*
X111401885Y-34951114D01*
X111401885Y-34617780D02*
X111449504Y-34665400D01*
X111401885Y-34713019D01*
X111354266Y-34665400D01*
X111401885Y-34617780D01*
X111401885Y-34713019D01*
X110925695Y-35093971D02*
X110592361Y-35093971D01*
X110449504Y-35617780D02*
X110925695Y-35617780D01*
X110925695Y-34617780D01*
X110449504Y-34617780D01*
X109878076Y-35617780D02*
X109973314Y-35570161D01*
X110020933Y-35474923D01*
X110020933Y-34617780D01*
X109116171Y-35570161D02*
X109211409Y-35617780D01*
X109401885Y-35617780D01*
X109497123Y-35570161D01*
X109544742Y-35474923D01*
X109544742Y-35093971D01*
X109497123Y-34998733D01*
X109401885Y-34951114D01*
X109211409Y-34951114D01*
X109116171Y-34998733D01*
X109068552Y-35093971D01*
X109068552Y-35189209D01*
X109544742Y-35284447D01*
X108211409Y-35570161D02*
X108306647Y-35617780D01*
X108497123Y-35617780D01*
X108592361Y-35570161D01*
X108639980Y-35522542D01*
X108687600Y-35427304D01*
X108687600Y-35141590D01*
X108639980Y-35046352D01*
X108592361Y-34998733D01*
X108497123Y-34951114D01*
X108306647Y-34951114D01*
X108211409Y-34998733D01*
X107925695Y-34951114D02*
X107544742Y-34951114D01*
X107782838Y-34617780D02*
X107782838Y-35474923D01*
X107735219Y-35570161D01*
X107639980Y-35617780D01*
X107544742Y-35617780D01*
X107211409Y-35617780D02*
X107211409Y-34951114D01*
X107211409Y-35141590D02*
X107163790Y-35046352D01*
X107116171Y-34998733D01*
X107020933Y-34951114D01*
X106925695Y-34951114D01*
X106592361Y-35617780D02*
X106592361Y-34951114D01*
X106592361Y-34617780D02*
X106639980Y-34665400D01*
X106592361Y-34713019D01*
X106544742Y-34665400D01*
X106592361Y-34617780D01*
X106592361Y-34713019D01*
X105687600Y-35570161D02*
X105782838Y-35617780D01*
X105973314Y-35617780D01*
X106068552Y-35570161D01*
X106116171Y-35522542D01*
X106163790Y-35427304D01*
X106163790Y-35141590D01*
X106116171Y-35046352D01*
X106068552Y-34998733D01*
X105973314Y-34951114D01*
X105782838Y-34951114D01*
X105687600Y-34998733D01*
X104830457Y-35617780D02*
X104830457Y-35093971D01*
X104878076Y-34998733D01*
X104973314Y-34951114D01*
X105163790Y-34951114D01*
X105259028Y-34998733D01*
X104830457Y-35570161D02*
X104925695Y-35617780D01*
X105163790Y-35617780D01*
X105259028Y-35570161D01*
X105306647Y-35474923D01*
X105306647Y-35379685D01*
X105259028Y-35284447D01*
X105163790Y-35236828D01*
X104925695Y-35236828D01*
X104830457Y-35189209D01*
X104211409Y-35617780D02*
X104306647Y-35570161D01*
X104354266Y-35474923D01*
X104354266Y-34617780D01*
X113487104Y-56750000D02*
X113582342Y-56702380D01*
X113725200Y-56702380D01*
X113868057Y-56750000D01*
X113963295Y-56845238D01*
X114010914Y-56940476D01*
X114058533Y-57130952D01*
X114058533Y-57273809D01*
X114010914Y-57464285D01*
X113963295Y-57559523D01*
X113868057Y-57654761D01*
X113725200Y-57702380D01*
X113629961Y-57702380D01*
X113487104Y-57654761D01*
X113439485Y-57607142D01*
X113439485Y-57273809D01*
X113629961Y-57273809D01*
X113010914Y-57702380D02*
X113010914Y-56702380D01*
X112439485Y-57702380D01*
X112439485Y-56702380D01*
X111963295Y-57702380D02*
X111963295Y-56702380D01*
X111725200Y-56702380D01*
X111582342Y-56750000D01*
X111487104Y-56845238D01*
X111439485Y-56940476D01*
X111391866Y-57130952D01*
X111391866Y-57273809D01*
X111439485Y-57464285D01*
X111487104Y-57559523D01*
X111582342Y-57654761D01*
X111725200Y-57702380D01*
X111963295Y-57702380D01*
D12*
%TO.C,A2*%
X66180952Y-31234828D02*
X65419047Y-31234828D01*
X65800000Y-31615780D02*
X65800000Y-30853876D01*
X74430952Y-31184828D02*
X73669047Y-31184828D01*
%TO.C,A4*%
X74430952Y-51184828D02*
X73669047Y-51184828D01*
X66180952Y-51234828D02*
X65419047Y-51234828D01*
X65800000Y-51615780D02*
X65800000Y-50853876D01*
%TO.C,A5*%
X66180952Y-61234828D02*
X65419047Y-61234828D01*
X65800000Y-61615780D02*
X65800000Y-60853876D01*
X74430952Y-61184828D02*
X73669047Y-61184828D01*
%TO.C,A3*%
X66180952Y-41234828D02*
X65419047Y-41234828D01*
X65800000Y-41615780D02*
X65800000Y-40853876D01*
X74430952Y-41184828D02*
X73669047Y-41184828D01*
%TO.C,A6*%
X74430952Y-71184828D02*
X73669047Y-71184828D01*
X66180952Y-71234828D02*
X65419047Y-71234828D01*
X65800000Y-71615780D02*
X65800000Y-70853876D01*
%TO.C,A1*%
X66180952Y-21234828D02*
X65419047Y-21234828D01*
X65800000Y-21615780D02*
X65800000Y-20853876D01*
X74430952Y-21184828D02*
X73669047Y-21184828D01*
%TD*%
M02*
