%TF.GenerationSoftware,KiCad,Pcbnew,6.0.9-8da3e8f707~117~ubuntu20.04.1*%
%TF.CreationDate,2023-01-29T22:52:03-08:00*%
%TF.ProjectId,PDB,5044422e-6b69-4636-9164-5f7063625858,rev?*%
%TF.SameCoordinates,Original*%
%TF.FileFunction,Paste,Top*%
%TF.FilePolarity,Positive*%
%FSLAX46Y46*%
G04 Gerber Fmt 4.6, Leading zero omitted, Abs format (unit mm)*
G04 Created by KiCad (PCBNEW 6.0.9-8da3e8f707~117~ubuntu20.04.1) date 2023-01-29 22:52:03*
%MOMM*%
%LPD*%
G01*
G04 APERTURE LIST*
G04 Aperture macros list*
%AMRoundRect*
0 Rectangle with rounded corners*
0 $1 Rounding radius*
0 $2 $3 $4 $5 $6 $7 $8 $9 X,Y pos of 4 corners*
0 Add a 4 corners polygon primitive as box body*
4,1,4,$2,$3,$4,$5,$6,$7,$8,$9,$2,$3,0*
0 Add four circle primitives for the rounded corners*
1,1,$1+$1,$2,$3*
1,1,$1+$1,$4,$5*
1,1,$1+$1,$6,$7*
1,1,$1+$1,$8,$9*
0 Add four rect primitives between the rounded corners*
20,1,$1+$1,$2,$3,$4,$5,0*
20,1,$1+$1,$4,$5,$6,$7,0*
20,1,$1+$1,$6,$7,$8,$9,0*
20,1,$1+$1,$8,$9,$2,$3,0*%
G04 Aperture macros list end*
%ADD10RoundRect,0.200000X0.275000X-0.200000X0.275000X0.200000X-0.275000X0.200000X-0.275000X-0.200000X0*%
%ADD11RoundRect,0.225000X0.225000X0.250000X-0.225000X0.250000X-0.225000X-0.250000X0.225000X-0.250000X0*%
%ADD12RoundRect,0.200000X-0.275000X0.200000X-0.275000X-0.200000X0.275000X-0.200000X0.275000X0.200000X0*%
%ADD13RoundRect,0.225000X0.250000X-0.225000X0.250000X0.225000X-0.250000X0.225000X-0.250000X-0.225000X0*%
%ADD14R,1.651000X2.921000*%
%ADD15O,2.401000X0.574000*%
%ADD16RoundRect,0.200000X-0.200000X-0.275000X0.200000X-0.275000X0.200000X0.275000X-0.200000X0.275000X0*%
%ADD17RoundRect,0.225000X-0.225000X-0.250000X0.225000X-0.250000X0.225000X0.250000X-0.225000X0.250000X0*%
%ADD18R,0.700000X1.250000*%
%ADD19RoundRect,0.150000X-0.825000X-0.150000X0.825000X-0.150000X0.825000X0.150000X-0.825000X0.150000X0*%
%ADD20RoundRect,0.225000X-0.250000X0.225000X-0.250000X-0.225000X0.250000X-0.225000X0.250000X0.225000X0*%
G04 APERTURE END LIST*
D10*
%TO.C,R11*%
X140589000Y-87312000D03*
X140589000Y-85662000D03*
%TD*%
%TO.C,R7*%
X118872000Y-87312000D03*
X118872000Y-85662000D03*
%TD*%
%TO.C,R6*%
X93599000Y-77723000D03*
X93599000Y-76073000D03*
%TD*%
D11*
%TO.C,C3*%
X148792000Y-66548000D03*
X147242000Y-66548000D03*
%TD*%
D12*
%TO.C,R12*%
X125984000Y-85662000D03*
X125984000Y-87312000D03*
%TD*%
D10*
%TO.C,R2*%
X93599000Y-93218000D03*
X93599000Y-91568000D03*
%TD*%
D13*
%TO.C,C5*%
X143064000Y-75451000D03*
X143064000Y-73901000D03*
%TD*%
D12*
%TO.C,R5*%
X93599000Y-79185000D03*
X93599000Y-80835000D03*
%TD*%
%TO.C,R3*%
X93599000Y-83757000D03*
X93599000Y-85407000D03*
%TD*%
D14*
%TO.C,F1*%
X63627000Y-81534000D03*
X63627000Y-87757000D03*
X77089000Y-81534000D03*
X77089000Y-87757000D03*
%TD*%
D10*
%TO.C,R10*%
X138938000Y-87312000D03*
X138938000Y-85662000D03*
%TD*%
D12*
%TO.C,R14*%
X137160000Y-85662000D03*
X137160000Y-87312000D03*
%TD*%
D15*
%TO.C,U3*%
X128523800Y-72491600D03*
X128523800Y-73761600D03*
X128523800Y-75031600D03*
X128523800Y-76301600D03*
X128523800Y-77571600D03*
X128523800Y-78841600D03*
X128523800Y-80111600D03*
X128523800Y-81381600D03*
X138023800Y-81381600D03*
X138023800Y-80111600D03*
X138023800Y-78841600D03*
X138023800Y-77571600D03*
X138023800Y-76301600D03*
X138023800Y-75031600D03*
X138023800Y-73761600D03*
X138023800Y-72491600D03*
%TD*%
D12*
%TO.C,R20*%
X133756400Y-67272400D03*
X133756400Y-68922400D03*
%TD*%
D16*
%TO.C,R17*%
X153048200Y-88493600D03*
X154698200Y-88493600D03*
%TD*%
D13*
%TO.C,C4*%
X143064000Y-72149000D03*
X143064000Y-70599000D03*
%TD*%
D10*
%TO.C,R1*%
X93599000Y-96330000D03*
X93599000Y-94680000D03*
%TD*%
D12*
%TO.C,R19*%
X132130800Y-67272400D03*
X132130800Y-68922400D03*
%TD*%
D17*
%TO.C,C7*%
X136461200Y-70612000D03*
X138011200Y-70612000D03*
%TD*%
D10*
%TO.C,R4*%
X93599000Y-88582000D03*
X93599000Y-86932000D03*
%TD*%
%TO.C,R15*%
X140423200Y-64104400D03*
X140423200Y-62454400D03*
%TD*%
%TO.C,R9*%
X122174000Y-87312000D03*
X122174000Y-85662000D03*
%TD*%
D18*
%TO.C,Q1*%
X134748200Y-62604400D03*
X136648200Y-62604400D03*
X135698200Y-60604400D03*
%TD*%
D12*
%TO.C,R13*%
X127635000Y-85662000D03*
X127635000Y-87312000D03*
%TD*%
D19*
%TO.C,U2*%
X145415000Y-68199000D03*
X145415000Y-69469000D03*
X145415000Y-70739000D03*
X145415000Y-72009000D03*
X145415000Y-73279000D03*
X145415000Y-74549000D03*
X145415000Y-75819000D03*
X145415000Y-77089000D03*
X150365000Y-77089000D03*
X150365000Y-75819000D03*
X150365000Y-74549000D03*
X150365000Y-73279000D03*
X150365000Y-72009000D03*
X150365000Y-70739000D03*
X150365000Y-69469000D03*
X150365000Y-68199000D03*
%TD*%
D10*
%TO.C,R16*%
X138772200Y-64104400D03*
X138772200Y-62454400D03*
%TD*%
D20*
%TO.C,C6*%
X143064000Y-77203000D03*
X143064000Y-78753000D03*
%TD*%
D16*
%TO.C,R18*%
X153022800Y-86487000D03*
X154672800Y-86487000D03*
%TD*%
D10*
%TO.C,R8*%
X120523000Y-87312000D03*
X120523000Y-85662000D03*
%TD*%
M02*
