%TF.GenerationSoftware,KiCad,Pcbnew,6.0.9-8da3e8f707~117~ubuntu20.04.1*%
%TF.CreationDate,2023-01-29T22:52:03-08:00*%
%TF.ProjectId,PDB,5044422e-6b69-4636-9164-5f7063625858,rev?*%
%TF.SameCoordinates,Original*%
%TF.FileFunction,Soldermask,Top*%
%TF.FilePolarity,Negative*%
%FSLAX46Y46*%
G04 Gerber Fmt 4.6, Leading zero omitted, Abs format (unit mm)*
G04 Created by KiCad (PCBNEW 6.0.9-8da3e8f707~117~ubuntu20.04.1) date 2023-01-29 22:52:03*
%MOMM*%
%LPD*%
G01*
G04 APERTURE LIST*
G04 Aperture macros list*
%AMRoundRect*
0 Rectangle with rounded corners*
0 $1 Rounding radius*
0 $2 $3 $4 $5 $6 $7 $8 $9 X,Y pos of 4 corners*
0 Add a 4 corners polygon primitive as box body*
4,1,4,$2,$3,$4,$5,$6,$7,$8,$9,$2,$3,0*
0 Add four circle primitives for the rounded corners*
1,1,$1+$1,$2,$3*
1,1,$1+$1,$4,$5*
1,1,$1+$1,$6,$7*
1,1,$1+$1,$8,$9*
0 Add four rect primitives between the rounded corners*
20,1,$1+$1,$2,$3,$4,$5,0*
20,1,$1+$1,$4,$5,$6,$7,0*
20,1,$1+$1,$6,$7,$8,$9,0*
20,1,$1+$1,$8,$9,$2,$3,0*%
G04 Aperture macros list end*
%ADD10RoundRect,0.200000X0.275000X-0.200000X0.275000X0.200000X-0.275000X0.200000X-0.275000X-0.200000X0*%
%ADD11R,1.600000X1.600000*%
%ADD12C,1.600000*%
%ADD13R,1.700000X1.700000*%
%ADD14O,1.700000X1.700000*%
%ADD15R,1.524000X1.524000*%
%ADD16C,1.524000*%
%ADD17C,2.800000*%
%ADD18RoundRect,0.250000X-0.725000X0.600000X-0.725000X-0.600000X0.725000X-0.600000X0.725000X0.600000X0*%
%ADD19O,1.950000X1.700000*%
%ADD20RoundRect,0.225000X0.225000X0.250000X-0.225000X0.250000X-0.225000X-0.250000X0.225000X-0.250000X0*%
%ADD21C,1.800000*%
%ADD22C,1.400000*%
%ADD23RoundRect,0.200000X-0.275000X0.200000X-0.275000X-0.200000X0.275000X-0.200000X0.275000X0.200000X0*%
%ADD24RoundRect,0.225000X0.250000X-0.225000X0.250000X0.225000X-0.250000X0.225000X-0.250000X-0.225000X0*%
%ADD25C,2.000000*%
%ADD26R,1.651000X2.921000*%
%ADD27O,2.401000X0.574000*%
%ADD28RoundRect,0.200000X-0.200000X-0.275000X0.200000X-0.275000X0.200000X0.275000X-0.200000X0.275000X0*%
%ADD29C,3.240000*%
%ADD30RoundRect,0.225000X-0.225000X-0.250000X0.225000X-0.250000X0.225000X0.250000X-0.225000X0.250000X0*%
%ADD31C,4.495800*%
%ADD32C,4.000000*%
%ADD33R,0.700000X1.250000*%
%ADD34O,2.200000X5.500000*%
%ADD35RoundRect,0.150000X-0.825000X-0.150000X0.825000X-0.150000X0.825000X0.150000X-0.825000X0.150000X0*%
%ADD36RoundRect,1.500000X1.500000X1.500000X-1.500000X1.500000X-1.500000X-1.500000X1.500000X-1.500000X0*%
%ADD37C,6.000000*%
%ADD38RoundRect,0.225000X-0.250000X0.225000X-0.250000X-0.225000X0.250000X-0.225000X0.250000X0.225000X0*%
G04 APERTURE END LIST*
D10*
%TO.C,R11*%
X140589000Y-87312000D03*
X140589000Y-85662000D03*
%TD*%
D11*
%TO.C,C2*%
X122488888Y-63119000D03*
D12*
X124488888Y-63119000D03*
%TD*%
D13*
%TO.C,J1*%
X147955000Y-46883400D03*
D14*
X147955000Y-49423400D03*
%TD*%
D15*
%TO.C,USB2*%
X156845000Y-50998000D03*
D16*
X156845000Y-48498000D03*
X156845000Y-46498000D03*
X156845000Y-43998000D03*
D17*
X159555000Y-40948000D03*
X159555000Y-54048000D03*
%TD*%
D10*
%TO.C,R7*%
X118872000Y-87312000D03*
X118872000Y-85662000D03*
%TD*%
%TO.C,R6*%
X93599000Y-77723000D03*
X93599000Y-76073000D03*
%TD*%
D18*
%TO.C,Jst1*%
X85090000Y-93980000D03*
D19*
X85090000Y-96480000D03*
X85090000Y-98980000D03*
X85090000Y-101480000D03*
%TD*%
D16*
%TO.C,D3*%
X124460000Y-101346000D03*
X127000000Y-101346000D03*
X129540000Y-101346000D03*
X132080000Y-101346000D03*
X134620000Y-101346000D03*
X137160000Y-101346000D03*
X137160000Y-91186000D03*
X134620000Y-91186000D03*
X132080000Y-91186000D03*
X129540000Y-91186000D03*
X127000000Y-91186000D03*
X124460000Y-91186000D03*
%TD*%
D20*
%TO.C,C3*%
X148792000Y-66548000D03*
X147242000Y-66548000D03*
%TD*%
D21*
%TO.C,B1*%
X134172000Y-48614000D03*
X141672000Y-48614000D03*
%TD*%
D22*
%TO.C,Y1*%
X149008000Y-82296000D03*
X144108000Y-82296000D03*
%TD*%
D23*
%TO.C,R12*%
X125984000Y-85662000D03*
X125984000Y-87312000D03*
%TD*%
D10*
%TO.C,R2*%
X93599000Y-93218000D03*
X93599000Y-91568000D03*
%TD*%
D24*
%TO.C,C5*%
X143064000Y-75451000D03*
X143064000Y-73901000D03*
%TD*%
D15*
%TO.C,USB3*%
X156845000Y-70998000D03*
D16*
X156845000Y-68498000D03*
X156845000Y-66498000D03*
X156845000Y-63998000D03*
D17*
X159555000Y-60948000D03*
X159555000Y-74048000D03*
%TD*%
D25*
%TO.C,A2*%
X72000000Y-33113400D03*
X64000000Y-33113400D03*
%TD*%
D23*
%TO.C,R5*%
X93599000Y-79185000D03*
X93599000Y-80835000D03*
%TD*%
%TO.C,R3*%
X93599000Y-83757000D03*
X93599000Y-85407000D03*
%TD*%
D11*
%TO.C,Pro1*%
X111760000Y-101092000D03*
D12*
X111760000Y-98552000D03*
X111760000Y-96012000D03*
X111760000Y-93472000D03*
X111760000Y-90932000D03*
X111760000Y-88392000D03*
X111760000Y-85852000D03*
X111760000Y-83312000D03*
X111760000Y-80772000D03*
X111760000Y-78232000D03*
X111760000Y-75692000D03*
X111760000Y-73152000D03*
X96520000Y-73152000D03*
X96520000Y-75692000D03*
X96520000Y-78232000D03*
X96520000Y-80772000D03*
X96520000Y-83312000D03*
X96520000Y-85852000D03*
X96520000Y-88392000D03*
X96520000Y-90932000D03*
X96520000Y-93472000D03*
X96520000Y-96012000D03*
X96520000Y-98552000D03*
X96520000Y-101092000D03*
%TD*%
D26*
%TO.C,F1*%
X63627000Y-81534000D03*
X63627000Y-87757000D03*
X77089000Y-81534000D03*
X77089000Y-87757000D03*
%TD*%
D10*
%TO.C,R10*%
X138938000Y-87312000D03*
X138938000Y-85662000D03*
%TD*%
D23*
%TO.C,R14*%
X137160000Y-85662000D03*
X137160000Y-87312000D03*
%TD*%
D25*
%TO.C,A4*%
X72000000Y-53113400D03*
X64000000Y-53113400D03*
%TD*%
D15*
%TO.C,USB1*%
X156845000Y-30998000D03*
D16*
X156845000Y-28498000D03*
X156845000Y-26498000D03*
X156845000Y-23998000D03*
D17*
X159555000Y-20948000D03*
X159555000Y-34048000D03*
%TD*%
D27*
%TO.C,U3*%
X128523800Y-72491600D03*
X128523800Y-73761600D03*
X128523800Y-75031600D03*
X128523800Y-76301600D03*
X128523800Y-77571600D03*
X128523800Y-78841600D03*
X128523800Y-80111600D03*
X128523800Y-81381600D03*
X138023800Y-81381600D03*
X138023800Y-80111600D03*
X138023800Y-78841600D03*
X138023800Y-77571600D03*
X138023800Y-76301600D03*
X138023800Y-75031600D03*
X138023800Y-73761600D03*
X138023800Y-72491600D03*
%TD*%
D23*
%TO.C,R20*%
X133756400Y-67272400D03*
X133756400Y-68922400D03*
%TD*%
D11*
%TO.C,C1*%
X122488888Y-72390000D03*
D12*
X124488888Y-72390000D03*
%TD*%
D28*
%TO.C,R17*%
X153048200Y-88493600D03*
X154698200Y-88493600D03*
%TD*%
D24*
%TO.C,C4*%
X143064000Y-72149000D03*
X143064000Y-70599000D03*
%TD*%
D29*
%TO.C,REF\u002A\u002A*%
X92000000Y-60000000D03*
%TD*%
D10*
%TO.C,R1*%
X93599000Y-96330000D03*
X93599000Y-94680000D03*
%TD*%
D25*
%TO.C,A5*%
X72000000Y-63113400D03*
X64000000Y-63113400D03*
%TD*%
D29*
%TO.C,REF\u002A\u002A*%
X92000000Y-102000000D03*
%TD*%
D23*
%TO.C,R19*%
X132130800Y-67272400D03*
X132130800Y-68922400D03*
%TD*%
D30*
%TO.C,C7*%
X136461200Y-70612000D03*
X138011200Y-70612000D03*
%TD*%
D16*
%TO.C,SW2*%
X160415600Y-100863400D03*
X162915600Y-100863400D03*
X165415600Y-100863400D03*
%TD*%
D10*
%TO.C,R4*%
X93599000Y-88582000D03*
X93599000Y-86932000D03*
%TD*%
D25*
%TO.C,A3*%
X72000000Y-43113400D03*
X64000000Y-43113400D03*
%TD*%
D31*
%TO.C,Converter1*%
X145211800Y-23672800D03*
X91363800Y-23672800D03*
D32*
X127685800Y-55422800D03*
X121589800Y-55422800D03*
X115493800Y-55422800D03*
X109143800Y-55422800D03*
%TD*%
D10*
%TO.C,R15*%
X140423200Y-64104400D03*
X140423200Y-62454400D03*
%TD*%
%TO.C,R9*%
X122174000Y-87312000D03*
X122174000Y-85662000D03*
%TD*%
D33*
%TO.C,Q1*%
X134748200Y-62604400D03*
X136648200Y-62604400D03*
X135698200Y-60604400D03*
%TD*%
D25*
%TO.C,A6*%
X72000000Y-73113400D03*
X64000000Y-73113400D03*
%TD*%
%TO.C,A1*%
X72000000Y-23113400D03*
X64000000Y-23113400D03*
%TD*%
D23*
%TO.C,R13*%
X127635000Y-85662000D03*
X127635000Y-87312000D03*
%TD*%
D34*
%TO.C,Sw1*%
X107048000Y-65278000D03*
X112048000Y-65278000D03*
%TD*%
D35*
%TO.C,U2*%
X145415000Y-68199000D03*
X145415000Y-69469000D03*
X145415000Y-70739000D03*
X145415000Y-72009000D03*
X145415000Y-73279000D03*
X145415000Y-74549000D03*
X145415000Y-75819000D03*
X145415000Y-77089000D03*
X150365000Y-77089000D03*
X150365000Y-75819000D03*
X150365000Y-74549000D03*
X150365000Y-73279000D03*
X150365000Y-72009000D03*
X150365000Y-70739000D03*
X150365000Y-69469000D03*
X150365000Y-68199000D03*
%TD*%
D10*
%TO.C,R16*%
X138772200Y-64104400D03*
X138772200Y-62454400D03*
%TD*%
D36*
%TO.C,Batt1*%
X70866000Y-99568000D03*
D37*
X63666000Y-99568000D03*
%TD*%
D38*
%TO.C,C6*%
X143064000Y-77203000D03*
X143064000Y-78753000D03*
%TD*%
D29*
%TO.C,REF\u002A\u002A*%
X81635600Y-36677600D03*
%TD*%
%TO.C,REF\u002A\u002A*%
X151000000Y-102000000D03*
%TD*%
%TO.C,REF\u002A\u002A*%
X151000000Y-60000000D03*
%TD*%
D13*
%TO.C,J2*%
X78486000Y-101600000D03*
D14*
X78486000Y-99060000D03*
X78486000Y-96520000D03*
X78486000Y-93980000D03*
%TD*%
D28*
%TO.C,R18*%
X153022800Y-86487000D03*
X154672800Y-86487000D03*
%TD*%
D15*
%TO.C,DATA1*%
X156845000Y-90998000D03*
D16*
X156845000Y-88498000D03*
X156845000Y-86498000D03*
X156845000Y-83998000D03*
D17*
X159555000Y-80948000D03*
X159555000Y-94048000D03*
%TD*%
D10*
%TO.C,R8*%
X120523000Y-87312000D03*
X120523000Y-85662000D03*
%TD*%
M02*
