%TF.GenerationSoftware,KiCad,Pcbnew,6.0.9-8da3e8f707~117~ubuntu20.04.1*%
%TF.CreationDate,2023-01-24T20:19:18-08:00*%
%TF.ProjectId,PDB,5044422e-6b69-4636-9164-5f7063625858,rev?*%
%TF.SameCoordinates,Original*%
%TF.FileFunction,Legend,Top*%
%TF.FilePolarity,Positive*%
%FSLAX46Y46*%
G04 Gerber Fmt 4.6, Leading zero omitted, Abs format (unit mm)*
G04 Created by KiCad (PCBNEW 6.0.9-8da3e8f707~117~ubuntu20.04.1) date 2023-01-24 20:19:18*
%MOMM*%
%LPD*%
G01*
G04 APERTURE LIST*
%ADD10C,0.150000*%
%ADD11C,0.100000*%
%ADD12C,0.152000*%
%ADD13C,0.120000*%
%ADD14C,0.200000*%
%ADD15C,0.254000*%
%ADD16C,0.127000*%
G04 APERTURE END LIST*
D10*
X81714285Y-44147380D02*
X81714285Y-43147380D01*
X82095238Y-43147380D01*
X82190476Y-43195000D01*
X82238095Y-43242619D01*
X82285714Y-43337857D01*
X82285714Y-43480714D01*
X82238095Y-43575952D01*
X82190476Y-43623571D01*
X82095238Y-43671190D01*
X81714285Y-43671190D01*
X82714285Y-44147380D02*
X82714285Y-43480714D01*
X82714285Y-43147380D02*
X82666666Y-43195000D01*
X82714285Y-43242619D01*
X82761904Y-43195000D01*
X82714285Y-43147380D01*
X82714285Y-43242619D01*
X83333333Y-44147380D02*
X83238095Y-44099761D01*
X83190476Y-44052142D01*
X83142857Y-43956904D01*
X83142857Y-43671190D01*
X83190476Y-43575952D01*
X83238095Y-43528333D01*
X83333333Y-43480714D01*
X83476190Y-43480714D01*
X83571428Y-43528333D01*
X83619047Y-43575952D01*
X83666666Y-43671190D01*
X83666666Y-43956904D01*
X83619047Y-44052142D01*
X83571428Y-44099761D01*
X83476190Y-44147380D01*
X83333333Y-44147380D01*
X84095238Y-43480714D02*
X84095238Y-44147380D01*
X84095238Y-43575952D02*
X84142857Y-43528333D01*
X84238095Y-43480714D01*
X84380952Y-43480714D01*
X84476190Y-43528333D01*
X84523809Y-43623571D01*
X84523809Y-44147380D01*
X85380952Y-44099761D02*
X85285714Y-44147380D01*
X85095238Y-44147380D01*
X85000000Y-44099761D01*
X84952380Y-44004523D01*
X84952380Y-43623571D01*
X85000000Y-43528333D01*
X85095238Y-43480714D01*
X85285714Y-43480714D01*
X85380952Y-43528333D01*
X85428571Y-43623571D01*
X85428571Y-43718809D01*
X84952380Y-43814047D01*
X86238095Y-44099761D02*
X86142857Y-44147380D01*
X85952380Y-44147380D01*
X85857142Y-44099761D01*
X85809523Y-44004523D01*
X85809523Y-43623571D01*
X85857142Y-43528333D01*
X85952380Y-43480714D01*
X86142857Y-43480714D01*
X86238095Y-43528333D01*
X86285714Y-43623571D01*
X86285714Y-43718809D01*
X85809523Y-43814047D01*
X86714285Y-44147380D02*
X86714285Y-43480714D01*
X86714285Y-43671190D02*
X86761904Y-43575952D01*
X86809523Y-43528333D01*
X86904761Y-43480714D01*
X87000000Y-43480714D01*
X87285714Y-44099761D02*
X87380952Y-44147380D01*
X87571428Y-44147380D01*
X87666666Y-44099761D01*
X87714285Y-44004523D01*
X87714285Y-43956904D01*
X87666666Y-43861666D01*
X87571428Y-43814047D01*
X87428571Y-43814047D01*
X87333333Y-43766428D01*
X87285714Y-43671190D01*
X87285714Y-43623571D01*
X87333333Y-43528333D01*
X87428571Y-43480714D01*
X87571428Y-43480714D01*
X87666666Y-43528333D01*
X88904761Y-44147380D02*
X88904761Y-43480714D01*
X88904761Y-43147380D02*
X88857142Y-43195000D01*
X88904761Y-43242619D01*
X88952380Y-43195000D01*
X88904761Y-43147380D01*
X88904761Y-43242619D01*
X89380952Y-43480714D02*
X89380952Y-44147380D01*
X89380952Y-43575952D02*
X89428571Y-43528333D01*
X89523809Y-43480714D01*
X89666666Y-43480714D01*
X89761904Y-43528333D01*
X89809523Y-43623571D01*
X89809523Y-44147380D01*
X91047619Y-43623571D02*
X91380952Y-43623571D01*
X91523809Y-44147380D02*
X91047619Y-44147380D01*
X91047619Y-43147380D01*
X91523809Y-43147380D01*
X91952380Y-43480714D02*
X91952380Y-44147380D01*
X91952380Y-43575952D02*
X92000000Y-43528333D01*
X92095238Y-43480714D01*
X92238095Y-43480714D01*
X92333333Y-43528333D01*
X92380952Y-43623571D01*
X92380952Y-44147380D01*
X93285714Y-43480714D02*
X93285714Y-44290238D01*
X93238095Y-44385476D01*
X93190476Y-44433095D01*
X93095238Y-44480714D01*
X92952380Y-44480714D01*
X92857142Y-44433095D01*
X93285714Y-44099761D02*
X93190476Y-44147380D01*
X93000000Y-44147380D01*
X92904761Y-44099761D01*
X92857142Y-44052142D01*
X92809523Y-43956904D01*
X92809523Y-43671190D01*
X92857142Y-43575952D01*
X92904761Y-43528333D01*
X93000000Y-43480714D01*
X93190476Y-43480714D01*
X93285714Y-43528333D01*
X93761904Y-44147380D02*
X93761904Y-43480714D01*
X93761904Y-43147380D02*
X93714285Y-43195000D01*
X93761904Y-43242619D01*
X93809523Y-43195000D01*
X93761904Y-43147380D01*
X93761904Y-43242619D01*
X94238095Y-43480714D02*
X94238095Y-44147380D01*
X94238095Y-43575952D02*
X94285714Y-43528333D01*
X94380952Y-43480714D01*
X94523809Y-43480714D01*
X94619047Y-43528333D01*
X94666666Y-43623571D01*
X94666666Y-44147380D01*
X95523809Y-44099761D02*
X95428571Y-44147380D01*
X95238095Y-44147380D01*
X95142857Y-44099761D01*
X95095238Y-44004523D01*
X95095238Y-43623571D01*
X95142857Y-43528333D01*
X95238095Y-43480714D01*
X95428571Y-43480714D01*
X95523809Y-43528333D01*
X95571428Y-43623571D01*
X95571428Y-43718809D01*
X95095238Y-43814047D01*
X96380952Y-44099761D02*
X96285714Y-44147380D01*
X96095238Y-44147380D01*
X96000000Y-44099761D01*
X95952380Y-44004523D01*
X95952380Y-43623571D01*
X96000000Y-43528333D01*
X96095238Y-43480714D01*
X96285714Y-43480714D01*
X96380952Y-43528333D01*
X96428571Y-43623571D01*
X96428571Y-43718809D01*
X95952380Y-43814047D01*
X96857142Y-44147380D02*
X96857142Y-43480714D01*
X96857142Y-43671190D02*
X96904761Y-43575952D01*
X96952380Y-43528333D01*
X97047619Y-43480714D01*
X97142857Y-43480714D01*
X97476190Y-44147380D02*
X97476190Y-43480714D01*
X97476190Y-43147380D02*
X97428571Y-43195000D01*
X97476190Y-43242619D01*
X97523809Y-43195000D01*
X97476190Y-43147380D01*
X97476190Y-43242619D01*
X97952380Y-43480714D02*
X97952380Y-44147380D01*
X97952380Y-43575952D02*
X98000000Y-43528333D01*
X98095238Y-43480714D01*
X98238095Y-43480714D01*
X98333333Y-43528333D01*
X98380952Y-43623571D01*
X98380952Y-44147380D01*
X99285714Y-43480714D02*
X99285714Y-44290238D01*
X99238095Y-44385476D01*
X99190476Y-44433095D01*
X99095238Y-44480714D01*
X98952380Y-44480714D01*
X98857142Y-44433095D01*
X99285714Y-44099761D02*
X99190476Y-44147380D01*
X99000000Y-44147380D01*
X98904761Y-44099761D01*
X98857142Y-44052142D01*
X98809523Y-43956904D01*
X98809523Y-43671190D01*
X98857142Y-43575952D01*
X98904761Y-43528333D01*
X99000000Y-43480714D01*
X99190476Y-43480714D01*
X99285714Y-43528333D01*
X81285714Y-45757380D02*
X81285714Y-44757380D01*
X81666666Y-44757380D01*
X81761904Y-44805000D01*
X81809523Y-44852619D01*
X81857142Y-44947857D01*
X81857142Y-45090714D01*
X81809523Y-45185952D01*
X81761904Y-45233571D01*
X81666666Y-45281190D01*
X81285714Y-45281190D01*
X82428571Y-45757380D02*
X82333333Y-45709761D01*
X82285714Y-45662142D01*
X82238095Y-45566904D01*
X82238095Y-45281190D01*
X82285714Y-45185952D01*
X82333333Y-45138333D01*
X82428571Y-45090714D01*
X82571428Y-45090714D01*
X82666666Y-45138333D01*
X82714285Y-45185952D01*
X82761904Y-45281190D01*
X82761904Y-45566904D01*
X82714285Y-45662142D01*
X82666666Y-45709761D01*
X82571428Y-45757380D01*
X82428571Y-45757380D01*
X83095238Y-45090714D02*
X83285714Y-45757380D01*
X83476190Y-45281190D01*
X83666666Y-45757380D01*
X83857142Y-45090714D01*
X84619047Y-45709761D02*
X84523809Y-45757380D01*
X84333333Y-45757380D01*
X84238095Y-45709761D01*
X84190476Y-45614523D01*
X84190476Y-45233571D01*
X84238095Y-45138333D01*
X84333333Y-45090714D01*
X84523809Y-45090714D01*
X84619047Y-45138333D01*
X84666666Y-45233571D01*
X84666666Y-45328809D01*
X84190476Y-45424047D01*
X85095238Y-45757380D02*
X85095238Y-45090714D01*
X85095238Y-45281190D02*
X85142857Y-45185952D01*
X85190476Y-45138333D01*
X85285714Y-45090714D01*
X85380952Y-45090714D01*
X86476190Y-45757380D02*
X86476190Y-44757380D01*
X86714285Y-44757380D01*
X86857142Y-44805000D01*
X86952380Y-44900238D01*
X87000000Y-44995476D01*
X87047619Y-45185952D01*
X87047619Y-45328809D01*
X87000000Y-45519285D01*
X86952380Y-45614523D01*
X86857142Y-45709761D01*
X86714285Y-45757380D01*
X86476190Y-45757380D01*
X87476190Y-45757380D02*
X87476190Y-45090714D01*
X87476190Y-44757380D02*
X87428571Y-44805000D01*
X87476190Y-44852619D01*
X87523809Y-44805000D01*
X87476190Y-44757380D01*
X87476190Y-44852619D01*
X87904761Y-45709761D02*
X88000000Y-45757380D01*
X88190476Y-45757380D01*
X88285714Y-45709761D01*
X88333333Y-45614523D01*
X88333333Y-45566904D01*
X88285714Y-45471666D01*
X88190476Y-45424047D01*
X88047619Y-45424047D01*
X87952380Y-45376428D01*
X87904761Y-45281190D01*
X87904761Y-45233571D01*
X87952380Y-45138333D01*
X88047619Y-45090714D01*
X88190476Y-45090714D01*
X88285714Y-45138333D01*
X88619047Y-45090714D02*
X89000000Y-45090714D01*
X88761904Y-44757380D02*
X88761904Y-45614523D01*
X88809523Y-45709761D01*
X88904761Y-45757380D01*
X89000000Y-45757380D01*
X89333333Y-45757380D02*
X89333333Y-45090714D01*
X89333333Y-45281190D02*
X89380952Y-45185952D01*
X89428571Y-45138333D01*
X89523809Y-45090714D01*
X89619047Y-45090714D01*
X89952380Y-45757380D02*
X89952380Y-45090714D01*
X89952380Y-44757380D02*
X89904761Y-44805000D01*
X89952380Y-44852619D01*
X90000000Y-44805000D01*
X89952380Y-44757380D01*
X89952380Y-44852619D01*
X90428571Y-45757380D02*
X90428571Y-44757380D01*
X90428571Y-45138333D02*
X90523809Y-45090714D01*
X90714285Y-45090714D01*
X90809523Y-45138333D01*
X90857142Y-45185952D01*
X90904761Y-45281190D01*
X90904761Y-45566904D01*
X90857142Y-45662142D01*
X90809523Y-45709761D01*
X90714285Y-45757380D01*
X90523809Y-45757380D01*
X90428571Y-45709761D01*
X91761904Y-45090714D02*
X91761904Y-45757380D01*
X91333333Y-45090714D02*
X91333333Y-45614523D01*
X91380952Y-45709761D01*
X91476190Y-45757380D01*
X91619047Y-45757380D01*
X91714285Y-45709761D01*
X91761904Y-45662142D01*
X92095238Y-45090714D02*
X92476190Y-45090714D01*
X92238095Y-44757380D02*
X92238095Y-45614523D01*
X92285714Y-45709761D01*
X92380952Y-45757380D01*
X92476190Y-45757380D01*
X92809523Y-45757380D02*
X92809523Y-45090714D01*
X92809523Y-44757380D02*
X92761904Y-44805000D01*
X92809523Y-44852619D01*
X92857142Y-44805000D01*
X92809523Y-44757380D01*
X92809523Y-44852619D01*
X93428571Y-45757380D02*
X93333333Y-45709761D01*
X93285714Y-45662142D01*
X93238095Y-45566904D01*
X93238095Y-45281190D01*
X93285714Y-45185952D01*
X93333333Y-45138333D01*
X93428571Y-45090714D01*
X93571428Y-45090714D01*
X93666666Y-45138333D01*
X93714285Y-45185952D01*
X93761904Y-45281190D01*
X93761904Y-45566904D01*
X93714285Y-45662142D01*
X93666666Y-45709761D01*
X93571428Y-45757380D01*
X93428571Y-45757380D01*
X94190476Y-45090714D02*
X94190476Y-45757380D01*
X94190476Y-45185952D02*
X94238095Y-45138333D01*
X94333333Y-45090714D01*
X94476190Y-45090714D01*
X94571428Y-45138333D01*
X94619047Y-45233571D01*
X94619047Y-45757380D01*
X96190476Y-45233571D02*
X96333333Y-45281190D01*
X96380952Y-45328809D01*
X96428571Y-45424047D01*
X96428571Y-45566904D01*
X96380952Y-45662142D01*
X96333333Y-45709761D01*
X96238095Y-45757380D01*
X95857142Y-45757380D01*
X95857142Y-44757380D01*
X96190476Y-44757380D01*
X96285714Y-44805000D01*
X96333333Y-44852619D01*
X96380952Y-44947857D01*
X96380952Y-45043095D01*
X96333333Y-45138333D01*
X96285714Y-45185952D01*
X96190476Y-45233571D01*
X95857142Y-45233571D01*
X97000000Y-45757380D02*
X96904761Y-45709761D01*
X96857142Y-45662142D01*
X96809523Y-45566904D01*
X96809523Y-45281190D01*
X96857142Y-45185952D01*
X96904761Y-45138333D01*
X97000000Y-45090714D01*
X97142857Y-45090714D01*
X97238095Y-45138333D01*
X97285714Y-45185952D01*
X97333333Y-45281190D01*
X97333333Y-45566904D01*
X97285714Y-45662142D01*
X97238095Y-45709761D01*
X97142857Y-45757380D01*
X97000000Y-45757380D01*
X98190476Y-45757380D02*
X98190476Y-45233571D01*
X98142857Y-45138333D01*
X98047619Y-45090714D01*
X97857142Y-45090714D01*
X97761904Y-45138333D01*
X98190476Y-45709761D02*
X98095238Y-45757380D01*
X97857142Y-45757380D01*
X97761904Y-45709761D01*
X97714285Y-45614523D01*
X97714285Y-45519285D01*
X97761904Y-45424047D01*
X97857142Y-45376428D01*
X98095238Y-45376428D01*
X98190476Y-45328809D01*
X98666666Y-45757380D02*
X98666666Y-45090714D01*
X98666666Y-45281190D02*
X98714285Y-45185952D01*
X98761904Y-45138333D01*
X98857142Y-45090714D01*
X98952380Y-45090714D01*
X99714285Y-45757380D02*
X99714285Y-44757380D01*
X99714285Y-45709761D02*
X99619047Y-45757380D01*
X99428571Y-45757380D01*
X99333333Y-45709761D01*
X99285714Y-45662142D01*
X99238095Y-45566904D01*
X99238095Y-45281190D01*
X99285714Y-45185952D01*
X99333333Y-45138333D01*
X99428571Y-45090714D01*
X99619047Y-45090714D01*
X99714285Y-45138333D01*
D11*
X150365590Y-51025857D02*
X149865590Y-51025857D01*
X149865590Y-50906809D01*
X149889400Y-50835380D01*
X149937019Y-50787761D01*
X149984638Y-50763952D01*
X150079876Y-50740142D01*
X150151304Y-50740142D01*
X150246542Y-50763952D01*
X150294161Y-50787761D01*
X150341780Y-50835380D01*
X150365590Y-50906809D01*
X150365590Y-51025857D01*
X150365590Y-50525857D02*
X150032257Y-50525857D01*
X149865590Y-50525857D02*
X149889400Y-50549666D01*
X149913209Y-50525857D01*
X149889400Y-50502047D01*
X149865590Y-50525857D01*
X149913209Y-50525857D01*
X150341780Y-50311571D02*
X150365590Y-50263952D01*
X150365590Y-50168714D01*
X150341780Y-50121095D01*
X150294161Y-50097285D01*
X150270352Y-50097285D01*
X150222733Y-50121095D01*
X150198923Y-50168714D01*
X150198923Y-50240142D01*
X150175114Y-50287761D01*
X150127495Y-50311571D01*
X150103685Y-50311571D01*
X150056066Y-50287761D01*
X150032257Y-50240142D01*
X150032257Y-50168714D01*
X150056066Y-50121095D01*
X150365590Y-49668714D02*
X150103685Y-49668714D01*
X150056066Y-49692523D01*
X150032257Y-49740142D01*
X150032257Y-49835380D01*
X150056066Y-49883000D01*
X150341780Y-49668714D02*
X150365590Y-49716333D01*
X150365590Y-49835380D01*
X150341780Y-49883000D01*
X150294161Y-49906809D01*
X150246542Y-49906809D01*
X150198923Y-49883000D01*
X150175114Y-49835380D01*
X150175114Y-49716333D01*
X150151304Y-49668714D01*
X150365590Y-49430619D02*
X149865590Y-49430619D01*
X150056066Y-49430619D02*
X150032257Y-49383000D01*
X150032257Y-49287761D01*
X150056066Y-49240142D01*
X150079876Y-49216333D01*
X150127495Y-49192523D01*
X150270352Y-49192523D01*
X150317971Y-49216333D01*
X150341780Y-49240142D01*
X150365590Y-49287761D01*
X150365590Y-49383000D01*
X150341780Y-49430619D01*
X150365590Y-48906809D02*
X150341780Y-48954428D01*
X150294161Y-48978238D01*
X149865590Y-48978238D01*
X150341780Y-48525857D02*
X150365590Y-48573476D01*
X150365590Y-48668714D01*
X150341780Y-48716333D01*
X150294161Y-48740142D01*
X150103685Y-48740142D01*
X150056066Y-48716333D01*
X150032257Y-48668714D01*
X150032257Y-48573476D01*
X150056066Y-48525857D01*
X150103685Y-48502047D01*
X150151304Y-48502047D01*
X150198923Y-48740142D01*
X150103685Y-47740142D02*
X150127495Y-47668714D01*
X150151304Y-47644904D01*
X150198923Y-47621095D01*
X150270352Y-47621095D01*
X150317971Y-47644904D01*
X150341780Y-47668714D01*
X150365590Y-47716333D01*
X150365590Y-47906809D01*
X149865590Y-47906809D01*
X149865590Y-47740142D01*
X149889400Y-47692523D01*
X149913209Y-47668714D01*
X149960828Y-47644904D01*
X150008447Y-47644904D01*
X150056066Y-47668714D01*
X150079876Y-47692523D01*
X150103685Y-47740142D01*
X150103685Y-47906809D01*
X150032257Y-47192523D02*
X150365590Y-47192523D01*
X150032257Y-47406809D02*
X150294161Y-47406809D01*
X150341780Y-47383000D01*
X150365590Y-47335380D01*
X150365590Y-47263952D01*
X150341780Y-47216333D01*
X150317971Y-47192523D01*
X150032257Y-47002047D02*
X150032257Y-46740142D01*
X150365590Y-47002047D01*
X150365590Y-46740142D01*
X150032257Y-46597285D02*
X150032257Y-46335380D01*
X150365590Y-46597285D01*
X150365590Y-46335380D01*
X150365590Y-46144904D02*
X150032257Y-46144904D01*
X149865590Y-46144904D02*
X149889400Y-46168714D01*
X149913209Y-46144904D01*
X149889400Y-46121095D01*
X149865590Y-46144904D01*
X149913209Y-46144904D01*
X150032257Y-45906809D02*
X150365590Y-45906809D01*
X150079876Y-45906809D02*
X150056066Y-45883000D01*
X150032257Y-45835380D01*
X150032257Y-45763952D01*
X150056066Y-45716333D01*
X150103685Y-45692523D01*
X150365590Y-45692523D01*
X150032257Y-45240142D02*
X150437019Y-45240142D01*
X150484638Y-45263952D01*
X150508447Y-45287761D01*
X150532257Y-45335380D01*
X150532257Y-45406809D01*
X150508447Y-45454428D01*
X150341780Y-45240142D02*
X150365590Y-45287761D01*
X150365590Y-45383000D01*
X150341780Y-45430619D01*
X150317971Y-45454428D01*
X150270352Y-45478238D01*
X150127495Y-45478238D01*
X150079876Y-45454428D01*
X150056066Y-45430619D01*
X150032257Y-45383000D01*
X150032257Y-45287761D01*
X150056066Y-45240142D01*
X122157371Y-64742190D02*
X121871657Y-64742190D01*
X122014514Y-64742190D02*
X122014514Y-64242190D01*
X121966895Y-64313619D01*
X121919276Y-64361238D01*
X121871657Y-64385047D01*
X122466895Y-64242190D02*
X122514514Y-64242190D01*
X122562133Y-64266000D01*
X122585942Y-64289809D01*
X122609752Y-64337428D01*
X122633561Y-64432666D01*
X122633561Y-64551714D01*
X122609752Y-64646952D01*
X122585942Y-64694571D01*
X122562133Y-64718380D01*
X122514514Y-64742190D01*
X122466895Y-64742190D01*
X122419276Y-64718380D01*
X122395466Y-64694571D01*
X122371657Y-64646952D01*
X122347847Y-64551714D01*
X122347847Y-64432666D01*
X122371657Y-64337428D01*
X122395466Y-64289809D01*
X122419276Y-64266000D01*
X122466895Y-64242190D01*
X123062133Y-64408857D02*
X123062133Y-64742190D01*
X122847847Y-64408857D02*
X122847847Y-64670761D01*
X122871657Y-64718380D01*
X122919276Y-64742190D01*
X122990704Y-64742190D01*
X123038323Y-64718380D01*
X123062133Y-64694571D01*
X122131971Y-73987790D02*
X121846257Y-73987790D01*
X121989114Y-73987790D02*
X121989114Y-73487790D01*
X121941495Y-73559219D01*
X121893876Y-73606838D01*
X121846257Y-73630647D01*
X122441495Y-73487790D02*
X122489114Y-73487790D01*
X122536733Y-73511600D01*
X122560542Y-73535409D01*
X122584352Y-73583028D01*
X122608161Y-73678266D01*
X122608161Y-73797314D01*
X122584352Y-73892552D01*
X122560542Y-73940171D01*
X122536733Y-73963980D01*
X122489114Y-73987790D01*
X122441495Y-73987790D01*
X122393876Y-73963980D01*
X122370066Y-73940171D01*
X122346257Y-73892552D01*
X122322447Y-73797314D01*
X122322447Y-73678266D01*
X122346257Y-73583028D01*
X122370066Y-73535409D01*
X122393876Y-73511600D01*
X122441495Y-73487790D01*
X123036733Y-73654457D02*
X123036733Y-73987790D01*
X122822447Y-73654457D02*
X122822447Y-73916361D01*
X122846257Y-73963980D01*
X122893876Y-73987790D01*
X122965304Y-73987790D01*
X123012923Y-73963980D01*
X123036733Y-73940171D01*
D10*
X100735238Y-100833180D02*
X100735238Y-99833180D01*
X101116190Y-99833180D01*
X101211428Y-99880800D01*
X101259047Y-99928419D01*
X101306666Y-100023657D01*
X101306666Y-100166514D01*
X101259047Y-100261752D01*
X101211428Y-100309371D01*
X101116190Y-100356990D01*
X100735238Y-100356990D01*
X101735238Y-100833180D02*
X101735238Y-100166514D01*
X101735238Y-100356990D02*
X101782857Y-100261752D01*
X101830476Y-100214133D01*
X101925714Y-100166514D01*
X102020952Y-100166514D01*
X102497142Y-100833180D02*
X102401904Y-100785561D01*
X102354285Y-100737942D01*
X102306666Y-100642704D01*
X102306666Y-100356990D01*
X102354285Y-100261752D01*
X102401904Y-100214133D01*
X102497142Y-100166514D01*
X102640000Y-100166514D01*
X102735238Y-100214133D01*
X102782857Y-100261752D01*
X102830476Y-100356990D01*
X102830476Y-100642704D01*
X102782857Y-100737942D01*
X102735238Y-100785561D01*
X102640000Y-100833180D01*
X102497142Y-100833180D01*
X104020952Y-100833180D02*
X104020952Y-99833180D01*
X104354285Y-100547466D01*
X104687619Y-99833180D01*
X104687619Y-100833180D01*
X105163809Y-100833180D02*
X105163809Y-100166514D01*
X105163809Y-99833180D02*
X105116190Y-99880800D01*
X105163809Y-99928419D01*
X105211428Y-99880800D01*
X105163809Y-99833180D01*
X105163809Y-99928419D01*
X106068571Y-100785561D02*
X105973333Y-100833180D01*
X105782857Y-100833180D01*
X105687619Y-100785561D01*
X105640000Y-100737942D01*
X105592380Y-100642704D01*
X105592380Y-100356990D01*
X105640000Y-100261752D01*
X105687619Y-100214133D01*
X105782857Y-100166514D01*
X105973333Y-100166514D01*
X106068571Y-100214133D01*
X106497142Y-100833180D02*
X106497142Y-100166514D01*
X106497142Y-100356990D02*
X106544761Y-100261752D01*
X106592380Y-100214133D01*
X106687619Y-100166514D01*
X106782857Y-100166514D01*
X107259047Y-100833180D02*
X107163809Y-100785561D01*
X107116190Y-100737942D01*
X107068571Y-100642704D01*
X107068571Y-100356990D01*
X107116190Y-100261752D01*
X107163809Y-100214133D01*
X107259047Y-100166514D01*
X107401904Y-100166514D01*
X107497142Y-100214133D01*
X107544761Y-100261752D01*
X107592380Y-100356990D01*
X107592380Y-100642704D01*
X107544761Y-100737942D01*
X107497142Y-100785561D01*
X107401904Y-100833180D01*
X107259047Y-100833180D01*
X114582380Y-65849428D02*
X114582380Y-66420857D01*
X114582380Y-66135142D02*
X113582380Y-66135142D01*
X113725238Y-66230380D01*
X113820476Y-66325619D01*
X113868095Y-66420857D01*
X113677619Y-65468476D02*
X113630000Y-65420857D01*
X113582380Y-65325619D01*
X113582380Y-65087523D01*
X113630000Y-64992285D01*
X113677619Y-64944666D01*
X113772857Y-64897047D01*
X113868095Y-64897047D01*
X114010952Y-64944666D01*
X114582380Y-65516095D01*
X114582380Y-64897047D01*
X113915714Y-64563714D02*
X114582380Y-64325619D01*
X113915714Y-64087523D01*
X116192380Y-65801809D02*
X116144761Y-65897047D01*
X116097142Y-65944666D01*
X116001904Y-65992285D01*
X115716190Y-65992285D01*
X115620952Y-65944666D01*
X115573333Y-65897047D01*
X115525714Y-65801809D01*
X115525714Y-65658952D01*
X115573333Y-65563714D01*
X115620952Y-65516095D01*
X115716190Y-65468476D01*
X116001904Y-65468476D01*
X116097142Y-65516095D01*
X116144761Y-65563714D01*
X116192380Y-65658952D01*
X116192380Y-65801809D01*
X115525714Y-65039904D02*
X116192380Y-65039904D01*
X115620952Y-65039904D02*
X115573333Y-64992285D01*
X115525714Y-64897047D01*
X115525714Y-64754190D01*
X115573333Y-64658952D01*
X115668571Y-64611333D01*
X116192380Y-64611333D01*
%TO.C,*%
D11*
%TO.C,R11*%
X140267571Y-84808190D02*
X140100904Y-84570095D01*
X139981857Y-84808190D02*
X139981857Y-84308190D01*
X140172333Y-84308190D01*
X140219952Y-84332000D01*
X140243761Y-84355809D01*
X140267571Y-84403428D01*
X140267571Y-84474857D01*
X140243761Y-84522476D01*
X140219952Y-84546285D01*
X140172333Y-84570095D01*
X139981857Y-84570095D01*
X140743761Y-84808190D02*
X140458047Y-84808190D01*
X140600904Y-84808190D02*
X140600904Y-84308190D01*
X140553285Y-84379619D01*
X140505666Y-84427238D01*
X140458047Y-84451047D01*
X141219952Y-84808190D02*
X140934238Y-84808190D01*
X141077095Y-84808190D02*
X141077095Y-84308190D01*
X141029476Y-84379619D01*
X140981857Y-84427238D01*
X140934238Y-84451047D01*
D10*
%TO.C,C2*%
X123322221Y-59726142D02*
X123274602Y-59773761D01*
X123131745Y-59821380D01*
X123036507Y-59821380D01*
X122893649Y-59773761D01*
X122798411Y-59678523D01*
X122750792Y-59583285D01*
X122703173Y-59392809D01*
X122703173Y-59249952D01*
X122750792Y-59059476D01*
X122798411Y-58964238D01*
X122893649Y-58869000D01*
X123036507Y-58821380D01*
X123131745Y-58821380D01*
X123274602Y-58869000D01*
X123322221Y-58916619D01*
X123703173Y-58916619D02*
X123750792Y-58869000D01*
X123846030Y-58821380D01*
X124084126Y-58821380D01*
X124179364Y-58869000D01*
X124226983Y-58916619D01*
X124274602Y-59011857D01*
X124274602Y-59107095D01*
X124226983Y-59249952D01*
X123655554Y-59821380D01*
X124274602Y-59821380D01*
%TO.C,J1*%
X147621666Y-44005780D02*
X147621666Y-44720066D01*
X147574047Y-44862923D01*
X147478809Y-44958161D01*
X147335952Y-45005780D01*
X147240714Y-45005780D01*
X148621666Y-45005780D02*
X148050238Y-45005780D01*
X148335952Y-45005780D02*
X148335952Y-44005780D01*
X148240714Y-44148638D01*
X148145476Y-44243876D01*
X148050238Y-44291495D01*
D12*
%TO.C,USB2*%
X153574071Y-49127057D02*
X154499357Y-49127057D01*
X154608214Y-49072628D01*
X154662642Y-49018200D01*
X154717071Y-48909342D01*
X154717071Y-48691628D01*
X154662642Y-48582771D01*
X154608214Y-48528342D01*
X154499357Y-48473914D01*
X153574071Y-48473914D01*
X154662642Y-47984057D02*
X154717071Y-47820771D01*
X154717071Y-47548628D01*
X154662642Y-47439771D01*
X154608214Y-47385342D01*
X154499357Y-47330914D01*
X154390500Y-47330914D01*
X154281642Y-47385342D01*
X154227214Y-47439771D01*
X154172785Y-47548628D01*
X154118357Y-47766342D01*
X154063928Y-47875200D01*
X154009500Y-47929628D01*
X153900642Y-47984057D01*
X153791785Y-47984057D01*
X153682928Y-47929628D01*
X153628500Y-47875200D01*
X153574071Y-47766342D01*
X153574071Y-47494200D01*
X153628500Y-47330914D01*
X154118357Y-46460057D02*
X154172785Y-46296771D01*
X154227214Y-46242342D01*
X154336071Y-46187914D01*
X154499357Y-46187914D01*
X154608214Y-46242342D01*
X154662642Y-46296771D01*
X154717071Y-46405628D01*
X154717071Y-46841057D01*
X153574071Y-46841057D01*
X153574071Y-46460057D01*
X153628500Y-46351200D01*
X153682928Y-46296771D01*
X153791785Y-46242342D01*
X153900642Y-46242342D01*
X154009500Y-46296771D01*
X154063928Y-46351200D01*
X154118357Y-46460057D01*
X154118357Y-46841057D01*
X153682928Y-45752485D02*
X153628500Y-45698057D01*
X153574071Y-45589200D01*
X153574071Y-45317057D01*
X153628500Y-45208200D01*
X153682928Y-45153771D01*
X153791785Y-45099342D01*
X153900642Y-45099342D01*
X154063928Y-45153771D01*
X154717071Y-45806914D01*
X154717071Y-45099342D01*
D10*
X159652380Y-49807523D02*
X160461904Y-49807523D01*
X160557142Y-49759904D01*
X160604761Y-49712285D01*
X160652380Y-49617047D01*
X160652380Y-49426571D01*
X160604761Y-49331333D01*
X160557142Y-49283714D01*
X160461904Y-49236095D01*
X159652380Y-49236095D01*
X160604761Y-48807523D02*
X160652380Y-48664666D01*
X160652380Y-48426571D01*
X160604761Y-48331333D01*
X160557142Y-48283714D01*
X160461904Y-48236095D01*
X160366666Y-48236095D01*
X160271428Y-48283714D01*
X160223809Y-48331333D01*
X160176190Y-48426571D01*
X160128571Y-48617047D01*
X160080952Y-48712285D01*
X160033333Y-48759904D01*
X159938095Y-48807523D01*
X159842857Y-48807523D01*
X159747619Y-48759904D01*
X159700000Y-48712285D01*
X159652380Y-48617047D01*
X159652380Y-48378952D01*
X159700000Y-48236095D01*
X160128571Y-47474190D02*
X160176190Y-47331333D01*
X160223809Y-47283714D01*
X160319047Y-47236095D01*
X160461904Y-47236095D01*
X160557142Y-47283714D01*
X160604761Y-47331333D01*
X160652380Y-47426571D01*
X160652380Y-47807523D01*
X159652380Y-47807523D01*
X159652380Y-47474190D01*
X159700000Y-47378952D01*
X159747619Y-47331333D01*
X159842857Y-47283714D01*
X159938095Y-47283714D01*
X160033333Y-47331333D01*
X160080952Y-47378952D01*
X160128571Y-47474190D01*
X160128571Y-47807523D01*
X160271428Y-46807523D02*
X160271428Y-46045619D01*
X160366666Y-45617047D02*
X160366666Y-45140857D01*
X160652380Y-45712285D02*
X159652380Y-45378952D01*
X160652380Y-45045619D01*
D11*
%TO.C,R7*%
X118788666Y-84808190D02*
X118622000Y-84570095D01*
X118502952Y-84808190D02*
X118502952Y-84308190D01*
X118693428Y-84308190D01*
X118741047Y-84332000D01*
X118764857Y-84355809D01*
X118788666Y-84403428D01*
X118788666Y-84474857D01*
X118764857Y-84522476D01*
X118741047Y-84546285D01*
X118693428Y-84570095D01*
X118502952Y-84570095D01*
X118955333Y-84308190D02*
X119288666Y-84308190D01*
X119074380Y-84808190D01*
%TO.C,R6*%
X92732990Y-76981333D02*
X92494895Y-77148000D01*
X92732990Y-77267047D02*
X92232990Y-77267047D01*
X92232990Y-77076571D01*
X92256800Y-77028952D01*
X92280609Y-77005142D01*
X92328228Y-76981333D01*
X92399657Y-76981333D01*
X92447276Y-77005142D01*
X92471085Y-77028952D01*
X92494895Y-77076571D01*
X92494895Y-77267047D01*
X92232990Y-76552761D02*
X92232990Y-76648000D01*
X92256800Y-76695619D01*
X92280609Y-76719428D01*
X92352038Y-76767047D01*
X92447276Y-76790857D01*
X92637752Y-76790857D01*
X92685371Y-76767047D01*
X92709180Y-76743238D01*
X92732990Y-76695619D01*
X92732990Y-76600380D01*
X92709180Y-76552761D01*
X92685371Y-76528952D01*
X92637752Y-76505142D01*
X92518704Y-76505142D01*
X92471085Y-76528952D01*
X92447276Y-76552761D01*
X92423466Y-76600380D01*
X92423466Y-76695619D01*
X92447276Y-76743238D01*
X92471085Y-76767047D01*
X92518704Y-76790857D01*
D10*
%TO.C,Jst1*%
X88092380Y-98753809D02*
X88806666Y-98753809D01*
X88949523Y-98801428D01*
X89044761Y-98896666D01*
X89092380Y-99039523D01*
X89092380Y-99134761D01*
X89044761Y-98325238D02*
X89092380Y-98230000D01*
X89092380Y-98039523D01*
X89044761Y-97944285D01*
X88949523Y-97896666D01*
X88901904Y-97896666D01*
X88806666Y-97944285D01*
X88759047Y-98039523D01*
X88759047Y-98182380D01*
X88711428Y-98277619D01*
X88616190Y-98325238D01*
X88568571Y-98325238D01*
X88473333Y-98277619D01*
X88425714Y-98182380D01*
X88425714Y-98039523D01*
X88473333Y-97944285D01*
X88425714Y-97610952D02*
X88425714Y-97230000D01*
X88092380Y-97468095D02*
X88949523Y-97468095D01*
X89044761Y-97420476D01*
X89092380Y-97325238D01*
X89092380Y-97230000D01*
X89092380Y-96372857D02*
X89092380Y-96944285D01*
X89092380Y-96658571D02*
X88092380Y-96658571D01*
X88235238Y-96753809D01*
X88330476Y-96849047D01*
X88378095Y-96944285D01*
D12*
%TO.C,D3*%
X130037942Y-94878071D02*
X130037942Y-93735071D01*
X130310085Y-93735071D01*
X130473371Y-93789500D01*
X130582228Y-93898357D01*
X130636657Y-94007214D01*
X130691085Y-94224928D01*
X130691085Y-94388214D01*
X130636657Y-94605928D01*
X130582228Y-94714785D01*
X130473371Y-94823642D01*
X130310085Y-94878071D01*
X130037942Y-94878071D01*
X131072085Y-93735071D02*
X131779657Y-93735071D01*
X131398657Y-94170500D01*
X131561942Y-94170500D01*
X131670800Y-94224928D01*
X131725228Y-94279357D01*
X131779657Y-94388214D01*
X131779657Y-94660357D01*
X131725228Y-94769214D01*
X131670800Y-94823642D01*
X131561942Y-94878071D01*
X131235371Y-94878071D01*
X131126514Y-94823642D01*
X131072085Y-94769214D01*
D10*
X129241752Y-86777580D02*
X129908419Y-86777580D01*
X129479847Y-87777580D01*
X130241752Y-87729961D02*
X130336990Y-87777580D01*
X130527466Y-87777580D01*
X130622704Y-87729961D01*
X130670323Y-87634723D01*
X130670323Y-87587104D01*
X130622704Y-87491866D01*
X130527466Y-87444247D01*
X130384609Y-87444247D01*
X130289371Y-87396628D01*
X130241752Y-87301390D01*
X130241752Y-87253771D01*
X130289371Y-87158533D01*
X130384609Y-87110914D01*
X130527466Y-87110914D01*
X130622704Y-87158533D01*
X131479847Y-87729961D02*
X131384609Y-87777580D01*
X131194133Y-87777580D01*
X131098895Y-87729961D01*
X131051276Y-87634723D01*
X131051276Y-87253771D01*
X131098895Y-87158533D01*
X131194133Y-87110914D01*
X131384609Y-87110914D01*
X131479847Y-87158533D01*
X131527466Y-87253771D01*
X131527466Y-87349009D01*
X131051276Y-87444247D01*
X132384609Y-87110914D02*
X132384609Y-87920438D01*
X132336990Y-88015676D01*
X132289371Y-88063295D01*
X132194133Y-88110914D01*
X132051276Y-88110914D01*
X131956038Y-88063295D01*
X132384609Y-87729961D02*
X132289371Y-87777580D01*
X132098895Y-87777580D01*
X132003657Y-87729961D01*
X131956038Y-87682342D01*
X131908419Y-87587104D01*
X131908419Y-87301390D01*
X131956038Y-87206152D01*
X132003657Y-87158533D01*
X132098895Y-87110914D01*
X132289371Y-87110914D01*
X132384609Y-87158533D01*
D11*
%TO.C,C3*%
X147933666Y-65583571D02*
X147909857Y-65607380D01*
X147838428Y-65631190D01*
X147790809Y-65631190D01*
X147719380Y-65607380D01*
X147671761Y-65559761D01*
X147647952Y-65512142D01*
X147624142Y-65416904D01*
X147624142Y-65345476D01*
X147647952Y-65250238D01*
X147671761Y-65202619D01*
X147719380Y-65155000D01*
X147790809Y-65131190D01*
X147838428Y-65131190D01*
X147909857Y-65155000D01*
X147933666Y-65178809D01*
X148100333Y-65131190D02*
X148409857Y-65131190D01*
X148243190Y-65321666D01*
X148314619Y-65321666D01*
X148362238Y-65345476D01*
X148386047Y-65369285D01*
X148409857Y-65416904D01*
X148409857Y-65535952D01*
X148386047Y-65583571D01*
X148362238Y-65607380D01*
X148314619Y-65631190D01*
X148171761Y-65631190D01*
X148124142Y-65607380D01*
X148100333Y-65583571D01*
D10*
%TO.C,B1*%
X131167238Y-43108571D02*
X131310095Y-43156190D01*
X131357714Y-43203809D01*
X131405333Y-43299047D01*
X131405333Y-43441904D01*
X131357714Y-43537142D01*
X131310095Y-43584761D01*
X131214857Y-43632380D01*
X130833904Y-43632380D01*
X130833904Y-42632380D01*
X131167238Y-42632380D01*
X131262476Y-42680000D01*
X131310095Y-42727619D01*
X131357714Y-42822857D01*
X131357714Y-42918095D01*
X131310095Y-43013333D01*
X131262476Y-43060952D01*
X131167238Y-43108571D01*
X130833904Y-43108571D01*
X132357714Y-43632380D02*
X131786285Y-43632380D01*
X132072000Y-43632380D02*
X132072000Y-42632380D01*
X131976761Y-42775238D01*
X131881523Y-42870476D01*
X131786285Y-42918095D01*
%TO.C,Y1*%
X146081809Y-86259990D02*
X146081809Y-86736180D01*
X145748476Y-85736180D02*
X146081809Y-86259990D01*
X146415142Y-85736180D01*
X147272285Y-86736180D02*
X146700857Y-86736180D01*
X146986571Y-86736180D02*
X146986571Y-85736180D01*
X146891333Y-85879038D01*
X146796095Y-85974276D01*
X146700857Y-86021895D01*
D11*
%TO.C,R12*%
X125662571Y-84808190D02*
X125495904Y-84570095D01*
X125376857Y-84808190D02*
X125376857Y-84308190D01*
X125567333Y-84308190D01*
X125614952Y-84332000D01*
X125638761Y-84355809D01*
X125662571Y-84403428D01*
X125662571Y-84474857D01*
X125638761Y-84522476D01*
X125614952Y-84546285D01*
X125567333Y-84570095D01*
X125376857Y-84570095D01*
X126138761Y-84808190D02*
X125853047Y-84808190D01*
X125995904Y-84808190D02*
X125995904Y-84308190D01*
X125948285Y-84379619D01*
X125900666Y-84427238D01*
X125853047Y-84451047D01*
X126329238Y-84355809D02*
X126353047Y-84332000D01*
X126400666Y-84308190D01*
X126519714Y-84308190D01*
X126567333Y-84332000D01*
X126591142Y-84355809D01*
X126614952Y-84403428D01*
X126614952Y-84451047D01*
X126591142Y-84522476D01*
X126305428Y-84808190D01*
X126614952Y-84808190D01*
%TO.C,R2*%
X92732990Y-92476333D02*
X92494895Y-92643000D01*
X92732990Y-92762047D02*
X92232990Y-92762047D01*
X92232990Y-92571571D01*
X92256800Y-92523952D01*
X92280609Y-92500142D01*
X92328228Y-92476333D01*
X92399657Y-92476333D01*
X92447276Y-92500142D01*
X92471085Y-92523952D01*
X92494895Y-92571571D01*
X92494895Y-92762047D01*
X92280609Y-92285857D02*
X92256800Y-92262047D01*
X92232990Y-92214428D01*
X92232990Y-92095380D01*
X92256800Y-92047761D01*
X92280609Y-92023952D01*
X92328228Y-92000142D01*
X92375847Y-92000142D01*
X92447276Y-92023952D01*
X92732990Y-92309666D01*
X92732990Y-92000142D01*
%TO.C,C5*%
X141550666Y-74854571D02*
X141526857Y-74878380D01*
X141455428Y-74902190D01*
X141407809Y-74902190D01*
X141336380Y-74878380D01*
X141288761Y-74830761D01*
X141264952Y-74783142D01*
X141241142Y-74687904D01*
X141241142Y-74616476D01*
X141264952Y-74521238D01*
X141288761Y-74473619D01*
X141336380Y-74426000D01*
X141407809Y-74402190D01*
X141455428Y-74402190D01*
X141526857Y-74426000D01*
X141550666Y-74449809D01*
X142003047Y-74402190D02*
X141764952Y-74402190D01*
X141741142Y-74640285D01*
X141764952Y-74616476D01*
X141812571Y-74592666D01*
X141931619Y-74592666D01*
X141979238Y-74616476D01*
X142003047Y-74640285D01*
X142026857Y-74687904D01*
X142026857Y-74806952D01*
X142003047Y-74854571D01*
X141979238Y-74878380D01*
X141931619Y-74902190D01*
X141812571Y-74902190D01*
X141764952Y-74878380D01*
X141741142Y-74854571D01*
D12*
%TO.C,USB3*%
X153574071Y-69127057D02*
X154499357Y-69127057D01*
X154608214Y-69072628D01*
X154662642Y-69018200D01*
X154717071Y-68909342D01*
X154717071Y-68691628D01*
X154662642Y-68582771D01*
X154608214Y-68528342D01*
X154499357Y-68473914D01*
X153574071Y-68473914D01*
X154662642Y-67984057D02*
X154717071Y-67820771D01*
X154717071Y-67548628D01*
X154662642Y-67439771D01*
X154608214Y-67385342D01*
X154499357Y-67330914D01*
X154390500Y-67330914D01*
X154281642Y-67385342D01*
X154227214Y-67439771D01*
X154172785Y-67548628D01*
X154118357Y-67766342D01*
X154063928Y-67875200D01*
X154009500Y-67929628D01*
X153900642Y-67984057D01*
X153791785Y-67984057D01*
X153682928Y-67929628D01*
X153628500Y-67875200D01*
X153574071Y-67766342D01*
X153574071Y-67494200D01*
X153628500Y-67330914D01*
X154118357Y-66460057D02*
X154172785Y-66296771D01*
X154227214Y-66242342D01*
X154336071Y-66187914D01*
X154499357Y-66187914D01*
X154608214Y-66242342D01*
X154662642Y-66296771D01*
X154717071Y-66405628D01*
X154717071Y-66841057D01*
X153574071Y-66841057D01*
X153574071Y-66460057D01*
X153628500Y-66351200D01*
X153682928Y-66296771D01*
X153791785Y-66242342D01*
X153900642Y-66242342D01*
X154009500Y-66296771D01*
X154063928Y-66351200D01*
X154118357Y-66460057D01*
X154118357Y-66841057D01*
X153574071Y-65806914D02*
X153574071Y-65099342D01*
X154009500Y-65480342D01*
X154009500Y-65317057D01*
X154063928Y-65208200D01*
X154118357Y-65153771D01*
X154227214Y-65099342D01*
X154499357Y-65099342D01*
X154608214Y-65153771D01*
X154662642Y-65208200D01*
X154717071Y-65317057D01*
X154717071Y-65643628D01*
X154662642Y-65752485D01*
X154608214Y-65806914D01*
D10*
X159652380Y-69807523D02*
X160461904Y-69807523D01*
X160557142Y-69759904D01*
X160604761Y-69712285D01*
X160652380Y-69617047D01*
X160652380Y-69426571D01*
X160604761Y-69331333D01*
X160557142Y-69283714D01*
X160461904Y-69236095D01*
X159652380Y-69236095D01*
X160604761Y-68807523D02*
X160652380Y-68664666D01*
X160652380Y-68426571D01*
X160604761Y-68331333D01*
X160557142Y-68283714D01*
X160461904Y-68236095D01*
X160366666Y-68236095D01*
X160271428Y-68283714D01*
X160223809Y-68331333D01*
X160176190Y-68426571D01*
X160128571Y-68617047D01*
X160080952Y-68712285D01*
X160033333Y-68759904D01*
X159938095Y-68807523D01*
X159842857Y-68807523D01*
X159747619Y-68759904D01*
X159700000Y-68712285D01*
X159652380Y-68617047D01*
X159652380Y-68378952D01*
X159700000Y-68236095D01*
X160128571Y-67474190D02*
X160176190Y-67331333D01*
X160223809Y-67283714D01*
X160319047Y-67236095D01*
X160461904Y-67236095D01*
X160557142Y-67283714D01*
X160604761Y-67331333D01*
X160652380Y-67426571D01*
X160652380Y-67807523D01*
X159652380Y-67807523D01*
X159652380Y-67474190D01*
X159700000Y-67378952D01*
X159747619Y-67331333D01*
X159842857Y-67283714D01*
X159938095Y-67283714D01*
X160033333Y-67331333D01*
X160080952Y-67378952D01*
X160128571Y-67474190D01*
X160128571Y-67807523D01*
X160271428Y-66807523D02*
X160271428Y-66045619D01*
X160366666Y-65617047D02*
X160366666Y-65140857D01*
X160652380Y-65712285D02*
X159652380Y-65378952D01*
X160652380Y-65045619D01*
D13*
%TO.C,A2*%
X58631200Y-29225066D02*
X58964533Y-29225066D01*
X58564533Y-29425066D02*
X58797866Y-28725066D01*
X59031200Y-29425066D01*
X59231200Y-28791733D02*
X59264533Y-28758400D01*
X59331200Y-28725066D01*
X59497866Y-28725066D01*
X59564533Y-28758400D01*
X59597866Y-28791733D01*
X59631200Y-28858400D01*
X59631200Y-28925066D01*
X59597866Y-29025066D01*
X59197866Y-29425066D01*
X59631200Y-29425066D01*
D14*
X61619047Y-31184828D02*
X62380952Y-31184828D01*
X62000000Y-31565780D02*
X62000000Y-30803876D01*
X69619047Y-31184828D02*
X70380952Y-31184828D01*
D11*
%TO.C,R5*%
X92732990Y-80093333D02*
X92494895Y-80260000D01*
X92732990Y-80379047D02*
X92232990Y-80379047D01*
X92232990Y-80188571D01*
X92256800Y-80140952D01*
X92280609Y-80117142D01*
X92328228Y-80093333D01*
X92399657Y-80093333D01*
X92447276Y-80117142D01*
X92471085Y-80140952D01*
X92494895Y-80188571D01*
X92494895Y-80379047D01*
X92232990Y-79640952D02*
X92232990Y-79879047D01*
X92471085Y-79902857D01*
X92447276Y-79879047D01*
X92423466Y-79831428D01*
X92423466Y-79712380D01*
X92447276Y-79664761D01*
X92471085Y-79640952D01*
X92518704Y-79617142D01*
X92637752Y-79617142D01*
X92685371Y-79640952D01*
X92709180Y-79664761D01*
X92732990Y-79712380D01*
X92732990Y-79831428D01*
X92709180Y-79879047D01*
X92685371Y-79902857D01*
%TO.C,R3*%
X92732990Y-84665333D02*
X92494895Y-84832000D01*
X92732990Y-84951047D02*
X92232990Y-84951047D01*
X92232990Y-84760571D01*
X92256800Y-84712952D01*
X92280609Y-84689142D01*
X92328228Y-84665333D01*
X92399657Y-84665333D01*
X92447276Y-84689142D01*
X92471085Y-84712952D01*
X92494895Y-84760571D01*
X92494895Y-84951047D01*
X92232990Y-84498666D02*
X92232990Y-84189142D01*
X92423466Y-84355809D01*
X92423466Y-84284380D01*
X92447276Y-84236761D01*
X92471085Y-84212952D01*
X92518704Y-84189142D01*
X92637752Y-84189142D01*
X92685371Y-84212952D01*
X92709180Y-84236761D01*
X92732990Y-84284380D01*
X92732990Y-84427238D01*
X92709180Y-84474857D01*
X92685371Y-84498666D01*
D10*
%TO.C,F1*%
X70050066Y-83494571D02*
X69716733Y-83494571D01*
X69716733Y-84018380D02*
X69716733Y-83018380D01*
X70192923Y-83018380D01*
X71097685Y-84018380D02*
X70526257Y-84018380D01*
X70811971Y-84018380D02*
X70811971Y-83018380D01*
X70716733Y-83161238D01*
X70621495Y-83256476D01*
X70526257Y-83304095D01*
D11*
%TO.C,R10*%
X138616571Y-84808190D02*
X138449904Y-84570095D01*
X138330857Y-84808190D02*
X138330857Y-84308190D01*
X138521333Y-84308190D01*
X138568952Y-84332000D01*
X138592761Y-84355809D01*
X138616571Y-84403428D01*
X138616571Y-84474857D01*
X138592761Y-84522476D01*
X138568952Y-84546285D01*
X138521333Y-84570095D01*
X138330857Y-84570095D01*
X139092761Y-84808190D02*
X138807047Y-84808190D01*
X138949904Y-84808190D02*
X138949904Y-84308190D01*
X138902285Y-84379619D01*
X138854666Y-84427238D01*
X138807047Y-84451047D01*
X139402285Y-84308190D02*
X139449904Y-84308190D01*
X139497523Y-84332000D01*
X139521333Y-84355809D01*
X139545142Y-84403428D01*
X139568952Y-84498666D01*
X139568952Y-84617714D01*
X139545142Y-84712952D01*
X139521333Y-84760571D01*
X139497523Y-84784380D01*
X139449904Y-84808190D01*
X139402285Y-84808190D01*
X139354666Y-84784380D01*
X139330857Y-84760571D01*
X139307047Y-84712952D01*
X139283238Y-84617714D01*
X139283238Y-84498666D01*
X139307047Y-84403428D01*
X139330857Y-84355809D01*
X139354666Y-84332000D01*
X139402285Y-84308190D01*
%TO.C,R14*%
X136838571Y-84808190D02*
X136671904Y-84570095D01*
X136552857Y-84808190D02*
X136552857Y-84308190D01*
X136743333Y-84308190D01*
X136790952Y-84332000D01*
X136814761Y-84355809D01*
X136838571Y-84403428D01*
X136838571Y-84474857D01*
X136814761Y-84522476D01*
X136790952Y-84546285D01*
X136743333Y-84570095D01*
X136552857Y-84570095D01*
X137314761Y-84808190D02*
X137029047Y-84808190D01*
X137171904Y-84808190D02*
X137171904Y-84308190D01*
X137124285Y-84379619D01*
X137076666Y-84427238D01*
X137029047Y-84451047D01*
X137743333Y-84474857D02*
X137743333Y-84808190D01*
X137624285Y-84284380D02*
X137505238Y-84641523D01*
X137814761Y-84641523D01*
D13*
%TO.C,A4*%
X58631200Y-49240266D02*
X58964533Y-49240266D01*
X58564533Y-49440266D02*
X58797866Y-48740266D01*
X59031200Y-49440266D01*
X59564533Y-48973600D02*
X59564533Y-49440266D01*
X59397866Y-48706933D02*
X59231200Y-49206933D01*
X59664533Y-49206933D01*
D14*
X61619047Y-51184828D02*
X62380952Y-51184828D01*
X62000000Y-51565780D02*
X62000000Y-50803876D01*
X69619047Y-51184828D02*
X70380952Y-51184828D01*
D12*
%TO.C,USB1*%
X153574071Y-29127057D02*
X154499357Y-29127057D01*
X154608214Y-29072628D01*
X154662642Y-29018200D01*
X154717071Y-28909342D01*
X154717071Y-28691628D01*
X154662642Y-28582771D01*
X154608214Y-28528342D01*
X154499357Y-28473914D01*
X153574071Y-28473914D01*
X154662642Y-27984057D02*
X154717071Y-27820771D01*
X154717071Y-27548628D01*
X154662642Y-27439771D01*
X154608214Y-27385342D01*
X154499357Y-27330914D01*
X154390500Y-27330914D01*
X154281642Y-27385342D01*
X154227214Y-27439771D01*
X154172785Y-27548628D01*
X154118357Y-27766342D01*
X154063928Y-27875200D01*
X154009500Y-27929628D01*
X153900642Y-27984057D01*
X153791785Y-27984057D01*
X153682928Y-27929628D01*
X153628500Y-27875200D01*
X153574071Y-27766342D01*
X153574071Y-27494200D01*
X153628500Y-27330914D01*
X154118357Y-26460057D02*
X154172785Y-26296771D01*
X154227214Y-26242342D01*
X154336071Y-26187914D01*
X154499357Y-26187914D01*
X154608214Y-26242342D01*
X154662642Y-26296771D01*
X154717071Y-26405628D01*
X154717071Y-26841057D01*
X153574071Y-26841057D01*
X153574071Y-26460057D01*
X153628500Y-26351200D01*
X153682928Y-26296771D01*
X153791785Y-26242342D01*
X153900642Y-26242342D01*
X154009500Y-26296771D01*
X154063928Y-26351200D01*
X154118357Y-26460057D01*
X154118357Y-26841057D01*
X154717071Y-25099342D02*
X154717071Y-25752485D01*
X154717071Y-25425914D02*
X153574071Y-25425914D01*
X153737357Y-25534771D01*
X153846214Y-25643628D01*
X153900642Y-25752485D01*
D10*
X159652380Y-29807523D02*
X160461904Y-29807523D01*
X160557142Y-29759904D01*
X160604761Y-29712285D01*
X160652380Y-29617047D01*
X160652380Y-29426571D01*
X160604761Y-29331333D01*
X160557142Y-29283714D01*
X160461904Y-29236095D01*
X159652380Y-29236095D01*
X160604761Y-28807523D02*
X160652380Y-28664666D01*
X160652380Y-28426571D01*
X160604761Y-28331333D01*
X160557142Y-28283714D01*
X160461904Y-28236095D01*
X160366666Y-28236095D01*
X160271428Y-28283714D01*
X160223809Y-28331333D01*
X160176190Y-28426571D01*
X160128571Y-28617047D01*
X160080952Y-28712285D01*
X160033333Y-28759904D01*
X159938095Y-28807523D01*
X159842857Y-28807523D01*
X159747619Y-28759904D01*
X159700000Y-28712285D01*
X159652380Y-28617047D01*
X159652380Y-28378952D01*
X159700000Y-28236095D01*
X160128571Y-27474190D02*
X160176190Y-27331333D01*
X160223809Y-27283714D01*
X160319047Y-27236095D01*
X160461904Y-27236095D01*
X160557142Y-27283714D01*
X160604761Y-27331333D01*
X160652380Y-27426571D01*
X160652380Y-27807523D01*
X159652380Y-27807523D01*
X159652380Y-27474190D01*
X159700000Y-27378952D01*
X159747619Y-27331333D01*
X159842857Y-27283714D01*
X159938095Y-27283714D01*
X160033333Y-27331333D01*
X160080952Y-27378952D01*
X160128571Y-27474190D01*
X160128571Y-27807523D01*
X160271428Y-26807523D02*
X160271428Y-26045619D01*
X160366666Y-25617047D02*
X160366666Y-25140857D01*
X160652380Y-25712285D02*
X159652380Y-25378952D01*
X160652380Y-25045619D01*
%TO.C,C1*%
X123322221Y-68997142D02*
X123274602Y-69044761D01*
X123131745Y-69092380D01*
X123036507Y-69092380D01*
X122893649Y-69044761D01*
X122798411Y-68949523D01*
X122750792Y-68854285D01*
X122703173Y-68663809D01*
X122703173Y-68520952D01*
X122750792Y-68330476D01*
X122798411Y-68235238D01*
X122893649Y-68140000D01*
X123036507Y-68092380D01*
X123131745Y-68092380D01*
X123274602Y-68140000D01*
X123322221Y-68187619D01*
X124274602Y-69092380D02*
X123703173Y-69092380D01*
X123988888Y-69092380D02*
X123988888Y-68092380D01*
X123893649Y-68235238D01*
X123798411Y-68330476D01*
X123703173Y-68378095D01*
D11*
%TO.C,C4*%
X141550666Y-71552571D02*
X141526857Y-71576380D01*
X141455428Y-71600190D01*
X141407809Y-71600190D01*
X141336380Y-71576380D01*
X141288761Y-71528761D01*
X141264952Y-71481142D01*
X141241142Y-71385904D01*
X141241142Y-71314476D01*
X141264952Y-71219238D01*
X141288761Y-71171619D01*
X141336380Y-71124000D01*
X141407809Y-71100190D01*
X141455428Y-71100190D01*
X141526857Y-71124000D01*
X141550666Y-71147809D01*
X141979238Y-71266857D02*
X141979238Y-71600190D01*
X141860190Y-71076380D02*
X141741142Y-71433523D01*
X142050666Y-71433523D01*
%TO.C,R1*%
X92732990Y-95587333D02*
X92494895Y-95754000D01*
X92732990Y-95873047D02*
X92232990Y-95873047D01*
X92232990Y-95682571D01*
X92256800Y-95634952D01*
X92280609Y-95611142D01*
X92328228Y-95587333D01*
X92399657Y-95587333D01*
X92447276Y-95611142D01*
X92471085Y-95634952D01*
X92494895Y-95682571D01*
X92494895Y-95873047D01*
X92732990Y-95111142D02*
X92732990Y-95396857D01*
X92732990Y-95254000D02*
X92232990Y-95254000D01*
X92304419Y-95301619D01*
X92352038Y-95349238D01*
X92375847Y-95396857D01*
D13*
%TO.C,A5*%
X58631200Y-59222466D02*
X58964533Y-59222466D01*
X58564533Y-59422466D02*
X58797866Y-58722466D01*
X59031200Y-59422466D01*
X59597866Y-58722466D02*
X59264533Y-58722466D01*
X59231200Y-59055800D01*
X59264533Y-59022466D01*
X59331200Y-58989133D01*
X59497866Y-58989133D01*
X59564533Y-59022466D01*
X59597866Y-59055800D01*
X59631200Y-59122466D01*
X59631200Y-59289133D01*
X59597866Y-59355800D01*
X59564533Y-59389133D01*
X59497866Y-59422466D01*
X59331200Y-59422466D01*
X59264533Y-59389133D01*
X59231200Y-59355800D01*
D14*
X69619047Y-61184828D02*
X70380952Y-61184828D01*
X61619047Y-61184828D02*
X62380952Y-61184828D01*
X62000000Y-61565780D02*
X62000000Y-60803876D01*
D10*
%TO.C,SW2*%
X161582266Y-98368161D02*
X161725123Y-98415780D01*
X161963219Y-98415780D01*
X162058457Y-98368161D01*
X162106076Y-98320542D01*
X162153695Y-98225304D01*
X162153695Y-98130066D01*
X162106076Y-98034828D01*
X162058457Y-97987209D01*
X161963219Y-97939590D01*
X161772742Y-97891971D01*
X161677504Y-97844352D01*
X161629885Y-97796733D01*
X161582266Y-97701495D01*
X161582266Y-97606257D01*
X161629885Y-97511019D01*
X161677504Y-97463400D01*
X161772742Y-97415780D01*
X162010838Y-97415780D01*
X162153695Y-97463400D01*
X162487028Y-97415780D02*
X162725123Y-98415780D01*
X162915600Y-97701495D01*
X163106076Y-98415780D01*
X163344171Y-97415780D01*
X163677504Y-97511019D02*
X163725123Y-97463400D01*
X163820361Y-97415780D01*
X164058457Y-97415780D01*
X164153695Y-97463400D01*
X164201314Y-97511019D01*
X164248933Y-97606257D01*
X164248933Y-97701495D01*
X164201314Y-97844352D01*
X163629885Y-98415780D01*
X164248933Y-98415780D01*
D11*
%TO.C,R4*%
X92732990Y-87840333D02*
X92494895Y-88007000D01*
X92732990Y-88126047D02*
X92232990Y-88126047D01*
X92232990Y-87935571D01*
X92256800Y-87887952D01*
X92280609Y-87864142D01*
X92328228Y-87840333D01*
X92399657Y-87840333D01*
X92447276Y-87864142D01*
X92471085Y-87887952D01*
X92494895Y-87935571D01*
X92494895Y-88126047D01*
X92399657Y-87411761D02*
X92732990Y-87411761D01*
X92209180Y-87530809D02*
X92566323Y-87649857D01*
X92566323Y-87340333D01*
D13*
%TO.C,A3*%
X58631200Y-39232666D02*
X58964533Y-39232666D01*
X58564533Y-39432666D02*
X58797866Y-38732666D01*
X59031200Y-39432666D01*
X59197866Y-38732666D02*
X59631200Y-38732666D01*
X59397866Y-38999333D01*
X59497866Y-38999333D01*
X59564533Y-39032666D01*
X59597866Y-39066000D01*
X59631200Y-39132666D01*
X59631200Y-39299333D01*
X59597866Y-39366000D01*
X59564533Y-39399333D01*
X59497866Y-39432666D01*
X59297866Y-39432666D01*
X59231200Y-39399333D01*
X59197866Y-39366000D01*
D14*
X69619047Y-41184828D02*
X70380952Y-41184828D01*
X61619047Y-41184828D02*
X62380952Y-41184828D01*
X62000000Y-41565780D02*
X62000000Y-40803876D01*
D10*
%TO.C,Converter1*%
X113039065Y-49658815D02*
X113001569Y-49696310D01*
X112889083Y-49733805D01*
X112814093Y-49733805D01*
X112701607Y-49696310D01*
X112626616Y-49621319D01*
X112589121Y-49546329D01*
X112551625Y-49396347D01*
X112551625Y-49283861D01*
X112589121Y-49133880D01*
X112626616Y-49058889D01*
X112701607Y-48983899D01*
X112814093Y-48946403D01*
X112889083Y-48946403D01*
X113001569Y-48983899D01*
X113039065Y-49021394D01*
X113489009Y-49733805D02*
X113414018Y-49696310D01*
X113376523Y-49658815D01*
X113339027Y-49583824D01*
X113339027Y-49358852D01*
X113376523Y-49283861D01*
X113414018Y-49246366D01*
X113489009Y-49208871D01*
X113601495Y-49208871D01*
X113676485Y-49246366D01*
X113713981Y-49283861D01*
X113751476Y-49358852D01*
X113751476Y-49583824D01*
X113713981Y-49658815D01*
X113676485Y-49696310D01*
X113601495Y-49733805D01*
X113489009Y-49733805D01*
X114088934Y-49208871D02*
X114088934Y-49733805D01*
X114088934Y-49283861D02*
X114126429Y-49246366D01*
X114201420Y-49208871D01*
X114313906Y-49208871D01*
X114388897Y-49246366D01*
X114426392Y-49321357D01*
X114426392Y-49733805D01*
X114726355Y-49208871D02*
X114913831Y-49733805D01*
X115101308Y-49208871D01*
X115701233Y-49696310D02*
X115626243Y-49733805D01*
X115476261Y-49733805D01*
X115401271Y-49696310D01*
X115363775Y-49621319D01*
X115363775Y-49321357D01*
X115401271Y-49246366D01*
X115476261Y-49208871D01*
X115626243Y-49208871D01*
X115701233Y-49246366D01*
X115738729Y-49321357D01*
X115738729Y-49396347D01*
X115363775Y-49471338D01*
X116076187Y-49733805D02*
X116076187Y-49208871D01*
X116076187Y-49358852D02*
X116113682Y-49283861D01*
X116151177Y-49246366D01*
X116226168Y-49208871D01*
X116301159Y-49208871D01*
X116451140Y-49208871D02*
X116751103Y-49208871D01*
X116563626Y-48946403D02*
X116563626Y-49621319D01*
X116601121Y-49696310D01*
X116676112Y-49733805D01*
X116751103Y-49733805D01*
X117313533Y-49696310D02*
X117238542Y-49733805D01*
X117088561Y-49733805D01*
X117013570Y-49696310D01*
X116976075Y-49621319D01*
X116976075Y-49321357D01*
X117013570Y-49246366D01*
X117088561Y-49208871D01*
X117238542Y-49208871D01*
X117313533Y-49246366D01*
X117351028Y-49321357D01*
X117351028Y-49396347D01*
X116976075Y-49471338D01*
X117688486Y-49733805D02*
X117688486Y-49208871D01*
X117688486Y-49358852D02*
X117725981Y-49283861D01*
X117763477Y-49246366D01*
X117838467Y-49208871D01*
X117913458Y-49208871D01*
X118588374Y-49733805D02*
X118138430Y-49733805D01*
X118363402Y-49733805D02*
X118363402Y-48946403D01*
X118288411Y-49058889D01*
X118213421Y-49133880D01*
X118138430Y-49171375D01*
D11*
%TO.C,R15*%
X137309571Y-79675790D02*
X137142904Y-79437695D01*
X137023857Y-79675790D02*
X137023857Y-79175790D01*
X137214333Y-79175790D01*
X137261952Y-79199600D01*
X137285761Y-79223409D01*
X137309571Y-79271028D01*
X137309571Y-79342457D01*
X137285761Y-79390076D01*
X137261952Y-79413885D01*
X137214333Y-79437695D01*
X137023857Y-79437695D01*
X137785761Y-79675790D02*
X137500047Y-79675790D01*
X137642904Y-79675790D02*
X137642904Y-79175790D01*
X137595285Y-79247219D01*
X137547666Y-79294838D01*
X137500047Y-79318647D01*
X138238142Y-79175790D02*
X138000047Y-79175790D01*
X137976238Y-79413885D01*
X138000047Y-79390076D01*
X138047666Y-79366266D01*
X138166714Y-79366266D01*
X138214333Y-79390076D01*
X138238142Y-79413885D01*
X138261952Y-79461504D01*
X138261952Y-79580552D01*
X138238142Y-79628171D01*
X138214333Y-79651980D01*
X138166714Y-79675790D01*
X138047666Y-79675790D01*
X138000047Y-79651980D01*
X137976238Y-79628171D01*
%TO.C,R9*%
X122090666Y-84808190D02*
X121924000Y-84570095D01*
X121804952Y-84808190D02*
X121804952Y-84308190D01*
X121995428Y-84308190D01*
X122043047Y-84332000D01*
X122066857Y-84355809D01*
X122090666Y-84403428D01*
X122090666Y-84474857D01*
X122066857Y-84522476D01*
X122043047Y-84546285D01*
X121995428Y-84570095D01*
X121804952Y-84570095D01*
X122328761Y-84808190D02*
X122424000Y-84808190D01*
X122471619Y-84784380D01*
X122495428Y-84760571D01*
X122543047Y-84689142D01*
X122566857Y-84593904D01*
X122566857Y-84403428D01*
X122543047Y-84355809D01*
X122519238Y-84332000D01*
X122471619Y-84308190D01*
X122376380Y-84308190D01*
X122328761Y-84332000D01*
X122304952Y-84355809D01*
X122281142Y-84403428D01*
X122281142Y-84522476D01*
X122304952Y-84570095D01*
X122328761Y-84593904D01*
X122376380Y-84617714D01*
X122471619Y-84617714D01*
X122519238Y-84593904D01*
X122543047Y-84570095D01*
X122566857Y-84522476D01*
%TO.C,Q1*%
X130725380Y-79596409D02*
X130677761Y-79572600D01*
X130630142Y-79524980D01*
X130558714Y-79453552D01*
X130511095Y-79429742D01*
X130463476Y-79429742D01*
X130487285Y-79548790D02*
X130439666Y-79524980D01*
X130392047Y-79477361D01*
X130368238Y-79382123D01*
X130368238Y-79215457D01*
X130392047Y-79120219D01*
X130439666Y-79072600D01*
X130487285Y-79048790D01*
X130582523Y-79048790D01*
X130630142Y-79072600D01*
X130677761Y-79120219D01*
X130701571Y-79215457D01*
X130701571Y-79382123D01*
X130677761Y-79477361D01*
X130630142Y-79524980D01*
X130582523Y-79548790D01*
X130487285Y-79548790D01*
X131177761Y-79548790D02*
X130892047Y-79548790D01*
X131034904Y-79548790D02*
X131034904Y-79048790D01*
X130987285Y-79120219D01*
X130939666Y-79167838D01*
X130892047Y-79191647D01*
D13*
%TO.C,A6*%
X58631200Y-69230066D02*
X58964533Y-69230066D01*
X58564533Y-69430066D02*
X58797866Y-68730066D01*
X59031200Y-69430066D01*
X59564533Y-68730066D02*
X59431200Y-68730066D01*
X59364533Y-68763400D01*
X59331200Y-68796733D01*
X59264533Y-68896733D01*
X59231200Y-69030066D01*
X59231200Y-69296733D01*
X59264533Y-69363400D01*
X59297866Y-69396733D01*
X59364533Y-69430066D01*
X59497866Y-69430066D01*
X59564533Y-69396733D01*
X59597866Y-69363400D01*
X59631200Y-69296733D01*
X59631200Y-69130066D01*
X59597866Y-69063400D01*
X59564533Y-69030066D01*
X59497866Y-68996733D01*
X59364533Y-68996733D01*
X59297866Y-69030066D01*
X59264533Y-69063400D01*
X59231200Y-69130066D01*
D14*
X69619047Y-71184828D02*
X70380952Y-71184828D01*
X61619047Y-71184828D02*
X62380952Y-71184828D01*
X62000000Y-71565780D02*
X62000000Y-70803876D01*
D13*
%TO.C,A1*%
X58631200Y-19217466D02*
X58964533Y-19217466D01*
X58564533Y-19417466D02*
X58797866Y-18717466D01*
X59031200Y-19417466D01*
X59631200Y-19417466D02*
X59231200Y-19417466D01*
X59431200Y-19417466D02*
X59431200Y-18717466D01*
X59364533Y-18817466D01*
X59297866Y-18884133D01*
X59231200Y-18917466D01*
D14*
X61619047Y-21184828D02*
X62380952Y-21184828D01*
X62000000Y-21565780D02*
X62000000Y-20803876D01*
X69619047Y-21184828D02*
X70380952Y-21184828D01*
D11*
%TO.C,R13*%
X127313571Y-84808190D02*
X127146904Y-84570095D01*
X127027857Y-84808190D02*
X127027857Y-84308190D01*
X127218333Y-84308190D01*
X127265952Y-84332000D01*
X127289761Y-84355809D01*
X127313571Y-84403428D01*
X127313571Y-84474857D01*
X127289761Y-84522476D01*
X127265952Y-84546285D01*
X127218333Y-84570095D01*
X127027857Y-84570095D01*
X127789761Y-84808190D02*
X127504047Y-84808190D01*
X127646904Y-84808190D02*
X127646904Y-84308190D01*
X127599285Y-84379619D01*
X127551666Y-84427238D01*
X127504047Y-84451047D01*
X127956428Y-84308190D02*
X128265952Y-84308190D01*
X128099285Y-84498666D01*
X128170714Y-84498666D01*
X128218333Y-84522476D01*
X128242142Y-84546285D01*
X128265952Y-84593904D01*
X128265952Y-84712952D01*
X128242142Y-84760571D01*
X128218333Y-84784380D01*
X128170714Y-84808190D01*
X128027857Y-84808190D01*
X127980238Y-84784380D01*
X127956428Y-84760571D01*
D10*
%TO.C,Sw1*%
X102665161Y-66563714D02*
X102712780Y-66420857D01*
X102712780Y-66182761D01*
X102665161Y-66087523D01*
X102617542Y-66039904D01*
X102522304Y-65992285D01*
X102427066Y-65992285D01*
X102331828Y-66039904D01*
X102284209Y-66087523D01*
X102236590Y-66182761D01*
X102188971Y-66373238D01*
X102141352Y-66468476D01*
X102093733Y-66516095D01*
X101998495Y-66563714D01*
X101903257Y-66563714D01*
X101808019Y-66516095D01*
X101760400Y-66468476D01*
X101712780Y-66373238D01*
X101712780Y-66135142D01*
X101760400Y-65992285D01*
X102046114Y-65658952D02*
X102712780Y-65468476D01*
X102236590Y-65278000D01*
X102712780Y-65087523D01*
X102046114Y-64897047D01*
X102712780Y-63992285D02*
X102712780Y-64563714D01*
X102712780Y-64278000D02*
X101712780Y-64278000D01*
X101855638Y-64373238D01*
X101950876Y-64468476D01*
X101998495Y-64563714D01*
%TO.C,FTDI1*%
X146691619Y-78541571D02*
X146358285Y-78541571D01*
X146358285Y-79065380D02*
X146358285Y-78065380D01*
X146834476Y-78065380D01*
X147072571Y-78065380D02*
X147644000Y-78065380D01*
X147358285Y-79065380D02*
X147358285Y-78065380D01*
X147977333Y-79065380D02*
X147977333Y-78065380D01*
X148215428Y-78065380D01*
X148358285Y-78113000D01*
X148453523Y-78208238D01*
X148501142Y-78303476D01*
X148548761Y-78493952D01*
X148548761Y-78636809D01*
X148501142Y-78827285D01*
X148453523Y-78922523D01*
X148358285Y-79017761D01*
X148215428Y-79065380D01*
X147977333Y-79065380D01*
X148977333Y-79065380D02*
X148977333Y-78065380D01*
X149977333Y-79065380D02*
X149405904Y-79065380D01*
X149691619Y-79065380D02*
X149691619Y-78065380D01*
X149596380Y-78208238D01*
X149501142Y-78303476D01*
X149405904Y-78351095D01*
D11*
%TO.C,R16*%
X135658571Y-79675790D02*
X135491904Y-79437695D01*
X135372857Y-79675790D02*
X135372857Y-79175790D01*
X135563333Y-79175790D01*
X135610952Y-79199600D01*
X135634761Y-79223409D01*
X135658571Y-79271028D01*
X135658571Y-79342457D01*
X135634761Y-79390076D01*
X135610952Y-79413885D01*
X135563333Y-79437695D01*
X135372857Y-79437695D01*
X136134761Y-79675790D02*
X135849047Y-79675790D01*
X135991904Y-79675790D02*
X135991904Y-79175790D01*
X135944285Y-79247219D01*
X135896666Y-79294838D01*
X135849047Y-79318647D01*
X136563333Y-79175790D02*
X136468095Y-79175790D01*
X136420476Y-79199600D01*
X136396666Y-79223409D01*
X136349047Y-79294838D01*
X136325238Y-79390076D01*
X136325238Y-79580552D01*
X136349047Y-79628171D01*
X136372857Y-79651980D01*
X136420476Y-79675790D01*
X136515714Y-79675790D01*
X136563333Y-79651980D01*
X136587142Y-79628171D01*
X136610952Y-79580552D01*
X136610952Y-79461504D01*
X136587142Y-79413885D01*
X136563333Y-79390076D01*
X136515714Y-79366266D01*
X136420476Y-79366266D01*
X136372857Y-79390076D01*
X136349047Y-79413885D01*
X136325238Y-79461504D01*
D10*
%TO.C,Batt1*%
X65837428Y-93933971D02*
X65980285Y-93981590D01*
X66027904Y-94029209D01*
X66075523Y-94124447D01*
X66075523Y-94267304D01*
X66027904Y-94362542D01*
X65980285Y-94410161D01*
X65885047Y-94457780D01*
X65504095Y-94457780D01*
X65504095Y-93457780D01*
X65837428Y-93457780D01*
X65932666Y-93505400D01*
X65980285Y-93553019D01*
X66027904Y-93648257D01*
X66027904Y-93743495D01*
X65980285Y-93838733D01*
X65932666Y-93886352D01*
X65837428Y-93933971D01*
X65504095Y-93933971D01*
X66932666Y-94457780D02*
X66932666Y-93933971D01*
X66885047Y-93838733D01*
X66789809Y-93791114D01*
X66599333Y-93791114D01*
X66504095Y-93838733D01*
X66932666Y-94410161D02*
X66837428Y-94457780D01*
X66599333Y-94457780D01*
X66504095Y-94410161D01*
X66456476Y-94314923D01*
X66456476Y-94219685D01*
X66504095Y-94124447D01*
X66599333Y-94076828D01*
X66837428Y-94076828D01*
X66932666Y-94029209D01*
X67266000Y-93791114D02*
X67646952Y-93791114D01*
X67408857Y-93457780D02*
X67408857Y-94314923D01*
X67456476Y-94410161D01*
X67551714Y-94457780D01*
X67646952Y-94457780D01*
X67837428Y-93791114D02*
X68218380Y-93791114D01*
X67980285Y-93457780D02*
X67980285Y-94314923D01*
X68027904Y-94410161D01*
X68123142Y-94457780D01*
X68218380Y-94457780D01*
X69075523Y-94457780D02*
X68504095Y-94457780D01*
X68789809Y-94457780D02*
X68789809Y-93457780D01*
X68694571Y-93600638D01*
X68599333Y-93695876D01*
X68504095Y-93743495D01*
D11*
%TO.C,C6*%
X141710666Y-78156571D02*
X141686857Y-78180380D01*
X141615428Y-78204190D01*
X141567809Y-78204190D01*
X141496380Y-78180380D01*
X141448761Y-78132761D01*
X141424952Y-78085142D01*
X141401142Y-77989904D01*
X141401142Y-77918476D01*
X141424952Y-77823238D01*
X141448761Y-77775619D01*
X141496380Y-77728000D01*
X141567809Y-77704190D01*
X141615428Y-77704190D01*
X141686857Y-77728000D01*
X141710666Y-77751809D01*
X142139238Y-77704190D02*
X142044000Y-77704190D01*
X141996380Y-77728000D01*
X141972571Y-77751809D01*
X141924952Y-77823238D01*
X141901142Y-77918476D01*
X141901142Y-78108952D01*
X141924952Y-78156571D01*
X141948761Y-78180380D01*
X141996380Y-78204190D01*
X142091619Y-78204190D01*
X142139238Y-78180380D01*
X142163047Y-78156571D01*
X142186857Y-78108952D01*
X142186857Y-77989904D01*
X142163047Y-77942285D01*
X142139238Y-77918476D01*
X142091619Y-77894666D01*
X141996380Y-77894666D01*
X141948761Y-77918476D01*
X141924952Y-77942285D01*
X141901142Y-77989904D01*
D10*
%TO.C,J2*%
X78178066Y-103770180D02*
X78178066Y-104484466D01*
X78130447Y-104627323D01*
X78035209Y-104722561D01*
X77892352Y-104770180D01*
X77797114Y-104770180D01*
X78606638Y-103865419D02*
X78654257Y-103817800D01*
X78749495Y-103770180D01*
X78987590Y-103770180D01*
X79082828Y-103817800D01*
X79130447Y-103865419D01*
X79178066Y-103960657D01*
X79178066Y-104055895D01*
X79130447Y-104198752D01*
X78559019Y-104770180D01*
X79178066Y-104770180D01*
D12*
%TO.C,USB4*%
X153574071Y-89127057D02*
X154499357Y-89127057D01*
X154608214Y-89072628D01*
X154662642Y-89018200D01*
X154717071Y-88909342D01*
X154717071Y-88691628D01*
X154662642Y-88582771D01*
X154608214Y-88528342D01*
X154499357Y-88473914D01*
X153574071Y-88473914D01*
X154662642Y-87984057D02*
X154717071Y-87820771D01*
X154717071Y-87548628D01*
X154662642Y-87439771D01*
X154608214Y-87385342D01*
X154499357Y-87330914D01*
X154390500Y-87330914D01*
X154281642Y-87385342D01*
X154227214Y-87439771D01*
X154172785Y-87548628D01*
X154118357Y-87766342D01*
X154063928Y-87875200D01*
X154009500Y-87929628D01*
X153900642Y-87984057D01*
X153791785Y-87984057D01*
X153682928Y-87929628D01*
X153628500Y-87875200D01*
X153574071Y-87766342D01*
X153574071Y-87494200D01*
X153628500Y-87330914D01*
X154118357Y-86460057D02*
X154172785Y-86296771D01*
X154227214Y-86242342D01*
X154336071Y-86187914D01*
X154499357Y-86187914D01*
X154608214Y-86242342D01*
X154662642Y-86296771D01*
X154717071Y-86405628D01*
X154717071Y-86841057D01*
X153574071Y-86841057D01*
X153574071Y-86460057D01*
X153628500Y-86351200D01*
X153682928Y-86296771D01*
X153791785Y-86242342D01*
X153900642Y-86242342D01*
X154009500Y-86296771D01*
X154063928Y-86351200D01*
X154118357Y-86460057D01*
X154118357Y-86841057D01*
X153955071Y-85208200D02*
X154717071Y-85208200D01*
X153519642Y-85480342D02*
X154336071Y-85752485D01*
X154336071Y-85044914D01*
D10*
X159652380Y-89807523D02*
X160461904Y-89807523D01*
X160557142Y-89759904D01*
X160604761Y-89712285D01*
X160652380Y-89617047D01*
X160652380Y-89426571D01*
X160604761Y-89331333D01*
X160557142Y-89283714D01*
X160461904Y-89236095D01*
X159652380Y-89236095D01*
X160604761Y-88807523D02*
X160652380Y-88664666D01*
X160652380Y-88426571D01*
X160604761Y-88331333D01*
X160557142Y-88283714D01*
X160461904Y-88236095D01*
X160366666Y-88236095D01*
X160271428Y-88283714D01*
X160223809Y-88331333D01*
X160176190Y-88426571D01*
X160128571Y-88617047D01*
X160080952Y-88712285D01*
X160033333Y-88759904D01*
X159938095Y-88807523D01*
X159842857Y-88807523D01*
X159747619Y-88759904D01*
X159700000Y-88712285D01*
X159652380Y-88617047D01*
X159652380Y-88378952D01*
X159700000Y-88236095D01*
X160128571Y-87474190D02*
X160176190Y-87331333D01*
X160223809Y-87283714D01*
X160319047Y-87236095D01*
X160461904Y-87236095D01*
X160557142Y-87283714D01*
X160604761Y-87331333D01*
X160652380Y-87426571D01*
X160652380Y-87807523D01*
X159652380Y-87807523D01*
X159652380Y-87474190D01*
X159700000Y-87378952D01*
X159747619Y-87331333D01*
X159842857Y-87283714D01*
X159938095Y-87283714D01*
X160033333Y-87331333D01*
X160080952Y-87378952D01*
X160128571Y-87474190D01*
X160128571Y-87807523D01*
X160271428Y-86807523D02*
X160271428Y-86045619D01*
X160366666Y-85617047D02*
X160366666Y-85140857D01*
X160652380Y-85712285D02*
X159652380Y-85378952D01*
X160652380Y-85045619D01*
D11*
%TO.C,R8*%
X120439666Y-84808190D02*
X120273000Y-84570095D01*
X120153952Y-84808190D02*
X120153952Y-84308190D01*
X120344428Y-84308190D01*
X120392047Y-84332000D01*
X120415857Y-84355809D01*
X120439666Y-84403428D01*
X120439666Y-84474857D01*
X120415857Y-84522476D01*
X120392047Y-84546285D01*
X120344428Y-84570095D01*
X120153952Y-84570095D01*
X120725380Y-84522476D02*
X120677761Y-84498666D01*
X120653952Y-84474857D01*
X120630142Y-84427238D01*
X120630142Y-84403428D01*
X120653952Y-84355809D01*
X120677761Y-84332000D01*
X120725380Y-84308190D01*
X120820619Y-84308190D01*
X120868238Y-84332000D01*
X120892047Y-84355809D01*
X120915857Y-84403428D01*
X120915857Y-84427238D01*
X120892047Y-84474857D01*
X120868238Y-84498666D01*
X120820619Y-84522476D01*
X120725380Y-84522476D01*
X120677761Y-84546285D01*
X120653952Y-84570095D01*
X120630142Y-84617714D01*
X120630142Y-84712952D01*
X120653952Y-84760571D01*
X120677761Y-84784380D01*
X120725380Y-84808190D01*
X120820619Y-84808190D01*
X120868238Y-84784380D01*
X120892047Y-84760571D01*
X120915857Y-84712952D01*
X120915857Y-84617714D01*
X120892047Y-84570095D01*
X120868238Y-84546285D01*
X120820619Y-84522476D01*
%TO.C,G\u002A\u002A\u002A*%
G36*
X92109898Y-46811400D02*
G01*
X92393869Y-46858900D01*
X92730134Y-46941680D01*
X93082922Y-47049326D01*
X93416457Y-47171419D01*
X93567285Y-47235742D01*
X93721776Y-47307832D01*
X93832855Y-47363682D01*
X93877281Y-47391583D01*
X93877344Y-47391928D01*
X93861700Y-47442764D01*
X93820492Y-47561982D01*
X93762302Y-47724806D01*
X93756224Y-47741581D01*
X93635105Y-48075505D01*
X93892650Y-48247417D01*
X94034215Y-48354415D01*
X94217798Y-48510803D01*
X94417405Y-48693734D01*
X94570780Y-48843453D01*
X94991364Y-49267578D01*
X95518071Y-49267578D01*
X95765859Y-49268900D01*
X95937858Y-49281265D01*
X96057485Y-49317275D01*
X96148158Y-49389531D01*
X96233294Y-49510634D01*
X96336312Y-49693184D01*
X96347814Y-49714063D01*
X96460493Y-49947836D01*
X96556555Y-50202653D01*
X96632405Y-50460674D01*
X96684449Y-50704058D01*
X96709093Y-50914966D01*
X96702742Y-51075559D01*
X96661802Y-51167996D01*
X96643066Y-51179462D01*
X96570164Y-51197779D01*
X96423604Y-51228148D01*
X96227494Y-51265720D01*
X96084961Y-51291693D01*
X95588867Y-51380311D01*
X95575834Y-51551776D01*
X95539192Y-51782203D01*
X95466661Y-52056880D01*
X95369109Y-52345899D01*
X95257405Y-52619352D01*
X95142417Y-52847330D01*
X95060070Y-52971089D01*
X95030922Y-52983558D01*
X94973557Y-52973385D01*
X94879344Y-52936185D01*
X94739654Y-52867576D01*
X94545857Y-52763175D01*
X94289324Y-52618598D01*
X93961424Y-52429462D01*
X93741926Y-52301582D01*
X93389987Y-52096039D01*
X93571654Y-51741705D01*
X93652925Y-51578408D01*
X93705386Y-51449576D01*
X93735261Y-51324810D01*
X93748775Y-51173715D01*
X93752155Y-50965892D01*
X93752065Y-50860776D01*
X93749049Y-50615206D01*
X93737867Y-50439083D01*
X93713235Y-50302678D01*
X93669872Y-50176261D01*
X93605633Y-50036524D01*
X93474790Y-49819123D01*
X93290779Y-49581097D01*
X93135600Y-49412242D01*
X92743181Y-49086010D01*
X92296347Y-48833798D01*
X91808370Y-48657085D01*
X91292528Y-48557348D01*
X90762094Y-48536066D01*
X90230343Y-48594718D01*
X89710550Y-48734782D01*
X89215991Y-48957736D01*
X89189258Y-48972733D01*
X88973982Y-49121227D01*
X88741603Y-49324230D01*
X88517960Y-49555146D01*
X88328891Y-49787382D01*
X88203882Y-49986914D01*
X88047621Y-50401361D01*
X87986586Y-50814938D01*
X88016990Y-51220429D01*
X88135042Y-51610614D01*
X88336956Y-51978278D01*
X88618941Y-52316202D01*
X88977210Y-52617169D01*
X89407973Y-52873963D01*
X89809375Y-53045331D01*
X89958948Y-53094664D01*
X90101839Y-53128004D01*
X90263387Y-53148328D01*
X90468929Y-53158614D01*
X90743806Y-53161837D01*
X90801562Y-53161897D01*
X91070743Y-53159056D01*
X91323559Y-53151283D01*
X91533422Y-53139727D01*
X91673740Y-53125537D01*
X91684272Y-53123778D01*
X91818368Y-53104294D01*
X91891692Y-53121738D01*
X91941037Y-53195008D01*
X91974022Y-53272606D01*
X92021836Y-53387809D01*
X92098466Y-53571029D01*
X92194113Y-53798887D01*
X92298974Y-54048006D01*
X92320483Y-54099020D01*
X92415974Y-54331028D01*
X92493019Y-54529071D01*
X92545306Y-54676051D01*
X92566526Y-54754869D01*
X92565573Y-54763072D01*
X92509086Y-54783580D01*
X92378744Y-54817658D01*
X92197976Y-54859389D01*
X92105348Y-54879314D01*
X91781133Y-54931920D01*
X91405590Y-54962118D01*
X90969141Y-54971804D01*
X90268555Y-54972656D01*
X89950121Y-55505957D01*
X89804277Y-55744798D01*
X89688614Y-55908331D01*
X89584154Y-56007435D01*
X89471919Y-56052987D01*
X89332932Y-56055864D01*
X89148214Y-56026944D01*
X89068642Y-56011201D01*
X88744023Y-55928648D01*
X88384936Y-55809526D01*
X88040404Y-55670876D01*
X87899414Y-55604790D01*
X87727773Y-55512115D01*
X87538379Y-55398077D01*
X87350468Y-55275843D01*
X87183274Y-55158581D01*
X87056034Y-55059458D01*
X86987984Y-54991643D01*
X86981641Y-54976526D01*
X87001909Y-54918174D01*
X87057051Y-54789734D01*
X87138570Y-54610359D01*
X87234855Y-54405717D01*
X87488070Y-53875636D01*
X87191628Y-53566922D01*
X86828675Y-53134894D01*
X86542145Y-52678698D01*
X86445893Y-52479785D01*
X86342298Y-52244141D01*
X85745941Y-52244141D01*
X85493391Y-52243122D01*
X85321785Y-52237997D01*
X85212854Y-52225660D01*
X85148328Y-52203007D01*
X85109939Y-52166933D01*
X85089097Y-52132520D01*
X85057906Y-52020166D01*
X85037178Y-51834478D01*
X85026867Y-51600778D01*
X85026925Y-51344391D01*
X85037305Y-51090644D01*
X85057960Y-50864859D01*
X85088843Y-50692363D01*
X85091804Y-50681445D01*
X85161522Y-50453040D01*
X85226754Y-50303112D01*
X85302627Y-50212878D01*
X85404267Y-50163556D01*
X85528790Y-50138830D01*
X85714981Y-50111154D01*
X85937785Y-50076129D01*
X86074402Y-50053749D01*
X86382593Y-50002184D01*
X86585356Y-49632740D01*
X86721838Y-49413943D01*
X86896700Y-49174301D01*
X87075566Y-48960429D01*
X87102450Y-48931515D01*
X87416781Y-48599734D01*
X87195621Y-48289806D01*
X87094125Y-48136247D01*
X87025978Y-48010768D01*
X87003390Y-47936475D01*
X87005386Y-47929838D01*
X87098475Y-47834936D01*
X87265673Y-47716799D01*
X87487426Y-47584929D01*
X87744181Y-47448825D01*
X88016383Y-47317989D01*
X88284479Y-47201920D01*
X88528915Y-47110119D01*
X88730136Y-47052086D01*
X88844326Y-47036376D01*
X88933458Y-47069710D01*
X89055173Y-47156812D01*
X89141983Y-47237521D01*
X89286613Y-47380626D01*
X89401398Y-47465216D01*
X89517612Y-47500423D01*
X89666529Y-47495379D01*
X89879425Y-47459214D01*
X89892639Y-47456689D01*
X90114903Y-47424585D01*
X90392515Y-47399464D01*
X90681669Y-47384792D01*
X90831581Y-47382431D01*
X91382499Y-47382422D01*
X91805929Y-46778782D01*
X92109898Y-46811400D01*
G37*
G36*
X91402227Y-51197213D02*
G01*
X91524586Y-51261877D01*
X91711426Y-51367397D01*
X91952983Y-51507805D01*
X92239493Y-51677132D01*
X92561192Y-51869412D01*
X92908317Y-52078675D01*
X93271103Y-52298955D01*
X93639786Y-52524282D01*
X94004604Y-52748690D01*
X94355791Y-52966211D01*
X94683584Y-53170876D01*
X94978219Y-53356717D01*
X95229933Y-53517767D01*
X95428961Y-53648058D01*
X95565539Y-53741622D01*
X95629905Y-53792491D01*
X95630573Y-53793244D01*
X95732914Y-53910856D01*
X95872574Y-54070926D01*
X96021485Y-54241288D01*
X96039850Y-54262274D01*
X96164689Y-54413327D01*
X96258600Y-54542984D01*
X96305616Y-54628671D01*
X96308203Y-54641721D01*
X96274005Y-54713214D01*
X96181603Y-54835183D01*
X96046283Y-54991446D01*
X95883333Y-55165820D01*
X95708039Y-55342122D01*
X95535687Y-55504171D01*
X95381566Y-55635784D01*
X95336427Y-55670433D01*
X95152174Y-55794718D01*
X94930303Y-55926936D01*
X94698449Y-56052372D01*
X94484249Y-56156313D01*
X94315339Y-56224045D01*
X94274219Y-56235950D01*
X94215383Y-56239717D01*
X94148203Y-56215560D01*
X94059308Y-56153418D01*
X93935324Y-56043232D01*
X93762880Y-55874945D01*
X93668914Y-55780613D01*
X93187633Y-55295117D01*
X92261894Y-53246018D01*
X92072143Y-52824786D01*
X91896259Y-52431968D01*
X91738229Y-52076644D01*
X91602041Y-51767892D01*
X91491684Y-51514792D01*
X91411146Y-51326423D01*
X91364413Y-51211863D01*
X91354113Y-51179372D01*
X91402227Y-51197213D01*
G37*
D13*
%TO.C,R11*%
X140066500Y-86724258D02*
X140066500Y-86249742D01*
X141111500Y-86724258D02*
X141111500Y-86249742D01*
%TO.C,C2*%
X126108888Y-63119000D02*
G75*
G03*
X126108888Y-63119000I-2620000J0D01*
G01*
X123928888Y-60576000D02*
X123928888Y-62079000D01*
X123808888Y-64159000D02*
X123808888Y-65680000D01*
X124769888Y-64159000D02*
X124769888Y-65366000D01*
X124809888Y-64159000D02*
X124809888Y-65343000D01*
X123808888Y-60558000D02*
X123808888Y-62079000D01*
X123648888Y-64159000D02*
X123648888Y-65695000D01*
X125929888Y-62204000D02*
X125929888Y-64034000D01*
X125769888Y-61868000D02*
X125769888Y-64370000D01*
X124889888Y-60944000D02*
X124889888Y-62079000D01*
X124929888Y-60970000D02*
X124929888Y-62079000D01*
X124289888Y-64159000D02*
X124289888Y-65574000D01*
X125449888Y-64159000D02*
X125449888Y-64818000D01*
X125529888Y-61514000D02*
X125529888Y-64724000D01*
X124409888Y-60705000D02*
X124409888Y-62079000D01*
X125289888Y-61255000D02*
X125289888Y-62079000D01*
X124128888Y-60618000D02*
X124128888Y-62079000D01*
X125169888Y-64159000D02*
X125169888Y-65090000D01*
X126089888Y-62835000D02*
X126089888Y-63403000D01*
X124489888Y-64159000D02*
X124489888Y-65501000D01*
X124008888Y-64159000D02*
X124008888Y-65647000D01*
X125209888Y-61182000D02*
X125209888Y-62079000D01*
X123648888Y-60543000D02*
X123648888Y-62079000D01*
X125409888Y-61376000D02*
X125409888Y-62079000D01*
X125049888Y-61054000D02*
X125049888Y-62079000D01*
X123928888Y-64159000D02*
X123928888Y-65662000D01*
X125049888Y-64159000D02*
X125049888Y-65184000D01*
X123968888Y-60583000D02*
X123968888Y-62079000D01*
X124769888Y-60872000D02*
X124769888Y-62079000D01*
X123528888Y-64159000D02*
X123528888Y-65699000D01*
X123488888Y-60539000D02*
X123488888Y-62079000D01*
X124249888Y-60651000D02*
X124249888Y-62079000D01*
X123888888Y-60569000D02*
X123888888Y-62079000D01*
X123568888Y-64159000D02*
X123568888Y-65698000D01*
X125009888Y-64159000D02*
X125009888Y-65214000D01*
X123568888Y-60540000D02*
X123568888Y-62079000D01*
X123768888Y-64159000D02*
X123768888Y-65684000D01*
X124168888Y-60628000D02*
X124168888Y-62079000D01*
X124088888Y-64159000D02*
X124088888Y-65630000D01*
X125249888Y-64159000D02*
X125249888Y-65020000D01*
X125489888Y-64159000D02*
X125489888Y-64772000D01*
X123688888Y-64159000D02*
X123688888Y-65692000D01*
X124048888Y-64159000D02*
X124048888Y-65639000D01*
X125209888Y-64159000D02*
X125209888Y-65056000D01*
X125369888Y-61334000D02*
X125369888Y-62079000D01*
X123888888Y-64159000D02*
X123888888Y-65669000D01*
X123728888Y-64159000D02*
X123728888Y-65688000D01*
X124209888Y-60639000D02*
X124209888Y-62079000D01*
X123688888Y-60546000D02*
X123688888Y-62079000D01*
X124729888Y-60851000D02*
X124729888Y-62079000D01*
X124329888Y-64159000D02*
X124329888Y-65561000D01*
X125569888Y-61565000D02*
X125569888Y-64673000D01*
X123768888Y-60554000D02*
X123768888Y-62079000D01*
X125969888Y-62314000D02*
X125969888Y-63924000D01*
X124369888Y-64159000D02*
X124369888Y-65547000D01*
X123848888Y-60563000D02*
X123848888Y-62079000D01*
X125369888Y-64159000D02*
X125369888Y-64904000D01*
X124569888Y-60771000D02*
X124569888Y-62079000D01*
X124849888Y-64159000D02*
X124849888Y-65319000D01*
X124048888Y-60599000D02*
X124048888Y-62079000D01*
X125249888Y-61218000D02*
X125249888Y-62079000D01*
X125329888Y-61293000D02*
X125329888Y-62079000D01*
X123728888Y-60550000D02*
X123728888Y-62079000D01*
X124249888Y-64159000D02*
X124249888Y-65587000D01*
X123608888Y-60541000D02*
X123608888Y-62079000D01*
X125129888Y-61115000D02*
X125129888Y-62079000D01*
X123848888Y-64159000D02*
X123848888Y-65675000D01*
X124449888Y-64159000D02*
X124449888Y-65517000D01*
X124689888Y-64159000D02*
X124689888Y-65409000D01*
X123968888Y-64159000D02*
X123968888Y-65655000D01*
X125609888Y-61619000D02*
X125609888Y-64619000D01*
X124369888Y-60691000D02*
X124369888Y-62079000D01*
X124529888Y-60754000D02*
X124529888Y-62079000D01*
X124929888Y-64159000D02*
X124929888Y-65268000D01*
X125729888Y-61800000D02*
X125729888Y-64438000D01*
X124649888Y-64159000D02*
X124649888Y-65429000D01*
X124969888Y-64159000D02*
X124969888Y-65241000D01*
X125129888Y-64159000D02*
X125129888Y-65123000D01*
X120934113Y-61394000D02*
X120934113Y-61894000D01*
X124329888Y-60677000D02*
X124329888Y-62079000D01*
X125809888Y-61941000D02*
X125809888Y-64297000D01*
X123488888Y-64159000D02*
X123488888Y-65699000D01*
X125409888Y-64159000D02*
X125409888Y-64862000D01*
X124409888Y-64159000D02*
X124409888Y-65533000D01*
X124128888Y-64159000D02*
X124128888Y-65620000D01*
X125649888Y-61676000D02*
X125649888Y-64562000D01*
X124729888Y-64159000D02*
X124729888Y-65387000D01*
X120684113Y-61644000D02*
X121184113Y-61644000D01*
X124529888Y-64159000D02*
X124529888Y-65484000D01*
X124209888Y-64159000D02*
X124209888Y-65599000D01*
X125169888Y-61148000D02*
X125169888Y-62079000D01*
X125689888Y-61736000D02*
X125689888Y-64502000D01*
X123528888Y-60539000D02*
X123528888Y-62079000D01*
X125449888Y-61420000D02*
X125449888Y-62079000D01*
X126049888Y-62601000D02*
X126049888Y-63637000D01*
X125849888Y-62021000D02*
X125849888Y-64217000D01*
X124969888Y-60997000D02*
X124969888Y-62079000D01*
X124849888Y-60919000D02*
X124849888Y-62079000D01*
X124889888Y-64159000D02*
X124889888Y-65294000D01*
X124689888Y-60829000D02*
X124689888Y-62079000D01*
X124168888Y-64159000D02*
X124168888Y-65610000D01*
X125489888Y-61466000D02*
X125489888Y-62079000D01*
X125289888Y-64159000D02*
X125289888Y-64983000D01*
X124289888Y-60664000D02*
X124289888Y-62079000D01*
X124569888Y-64159000D02*
X124569888Y-65467000D01*
X126009888Y-62442000D02*
X126009888Y-63796000D01*
X124088888Y-60608000D02*
X124088888Y-62079000D01*
X125089888Y-64159000D02*
X125089888Y-65154000D01*
X125009888Y-61024000D02*
X125009888Y-62079000D01*
X124609888Y-60790000D02*
X124609888Y-62079000D01*
X125889888Y-62108000D02*
X125889888Y-64130000D01*
X124649888Y-60809000D02*
X124649888Y-62079000D01*
X124609888Y-64159000D02*
X124609888Y-65448000D01*
X125329888Y-64159000D02*
X125329888Y-64945000D01*
X123608888Y-64159000D02*
X123608888Y-65697000D01*
X124809888Y-60895000D02*
X124809888Y-62079000D01*
X124449888Y-60721000D02*
X124449888Y-62079000D01*
X124008888Y-60591000D02*
X124008888Y-62079000D01*
X124489888Y-60737000D02*
X124489888Y-62079000D01*
X125089888Y-61084000D02*
X125089888Y-62079000D01*
%TO.C,J1*%
X146625000Y-48153400D02*
X146625000Y-50753400D01*
X146625000Y-46883400D02*
X146625000Y-45553400D01*
X146625000Y-48153400D02*
X149285000Y-48153400D01*
X146625000Y-45553400D02*
X147955000Y-45553400D01*
X149285000Y-48153400D02*
X149285000Y-50753400D01*
X146625000Y-50753400D02*
X149285000Y-50753400D01*
D15*
%TO.C,USB2*%
X169545000Y-40894000D02*
X169545000Y-54102000D01*
X167437000Y-46228000D02*
X162390000Y-46810000D01*
X155575000Y-40894000D02*
X158000000Y-40894000D01*
X165049000Y-46050000D02*
X165049000Y-44602000D01*
X167488000Y-50698000D02*
X167488000Y-48844000D01*
X162390000Y-46810000D02*
X162364000Y-46477000D01*
X162382000Y-48565000D02*
X166980000Y-49352000D01*
X162441000Y-51280000D02*
X167488000Y-50698000D01*
X167437000Y-44374000D02*
X167437000Y-46228000D01*
X166929000Y-45822000D02*
X166929000Y-44882000D01*
X166929000Y-44882000D02*
X162331000Y-44094000D01*
X163297000Y-46380000D02*
X163297000Y-44298000D01*
X167488000Y-48844000D02*
X162433000Y-48260000D01*
X165100000Y-50521000D02*
X165100000Y-49073000D01*
X169545000Y-40894000D02*
X161100000Y-40894000D01*
X162382000Y-43790000D02*
X167437000Y-44374000D01*
X166980000Y-49352000D02*
X166980000Y-50292000D01*
X155575000Y-54102000D02*
X155575000Y-40894000D01*
X162364000Y-46477000D02*
X166929000Y-45822000D01*
X162415000Y-50947000D02*
X162441000Y-51280000D01*
X162331000Y-44094000D02*
X162382000Y-43790000D01*
X166980000Y-50292000D02*
X162415000Y-50947000D01*
X169545000Y-54102000D02*
X161100000Y-54102000D01*
X163347000Y-50851000D02*
X163347000Y-48768000D01*
X162433000Y-48260000D02*
X162382000Y-48565000D01*
X155575000Y-54102000D02*
X158025000Y-54102000D01*
D13*
%TO.C,R7*%
X119394500Y-86724258D02*
X119394500Y-86249742D01*
X118349500Y-86724258D02*
X118349500Y-86249742D01*
%TO.C,R6*%
X94121500Y-77135258D02*
X94121500Y-76660742D01*
X93076500Y-77135258D02*
X93076500Y-76660742D01*
%TO.C,Jst1*%
X86790000Y-100730000D02*
X87540000Y-100730000D01*
X86790000Y-93230000D02*
X87540000Y-93230000D01*
X85290000Y-103280000D02*
X82340000Y-103280000D01*
X87540000Y-100730000D02*
X87540000Y-94730000D01*
X86790000Y-102230000D02*
X86790000Y-104030000D01*
X85290000Y-91430000D02*
X85290000Y-92180000D01*
X86790000Y-94730000D02*
X86790000Y-100730000D01*
X87550000Y-104040000D02*
X87550000Y-91420000D01*
X87540000Y-91430000D02*
X86790000Y-91430000D01*
X86790000Y-91430000D02*
X86790000Y-93230000D01*
X87550000Y-91420000D02*
X81580000Y-91420000D01*
X81580000Y-104040000D02*
X87550000Y-104040000D01*
X82340000Y-103280000D02*
X82340000Y-97730000D01*
X87540000Y-104030000D02*
X87540000Y-102230000D01*
X86790000Y-104030000D02*
X87540000Y-104030000D01*
X85290000Y-92180000D02*
X82340000Y-92180000D01*
X85290000Y-104030000D02*
X85290000Y-103280000D01*
X81580000Y-91420000D02*
X81580000Y-104040000D01*
X87540000Y-102230000D02*
X86790000Y-102230000D01*
X87540000Y-94730000D02*
X86790000Y-94730000D01*
X87840000Y-92380000D02*
X87840000Y-91130000D01*
X87840000Y-91130000D02*
X86590000Y-91130000D01*
X87540000Y-93230000D02*
X87540000Y-91430000D01*
X82340000Y-92180000D02*
X82340000Y-97730000D01*
D15*
%TO.C,D3*%
X133223000Y-98425000D02*
X133477000Y-98298000D01*
X118999000Y-93853000D02*
X119126000Y-94107000D01*
X128651000Y-93599000D02*
X128143000Y-93853000D01*
X127254000Y-98298000D02*
X127381000Y-98552000D01*
X141224000Y-96393000D02*
X141097000Y-96139000D01*
X121666000Y-94234000D02*
X121158000Y-96012000D01*
X143383000Y-95758000D02*
X143510000Y-96012000D01*
X119507000Y-93980000D02*
X119380000Y-93726000D01*
X121285000Y-94107000D02*
X121539000Y-93980000D01*
X137160000Y-93853000D02*
X136906000Y-93980000D01*
X127000000Y-98425000D02*
X127127000Y-98679000D01*
X134239000Y-95758000D02*
X134747000Y-93980000D01*
X126365000Y-93980000D02*
X126238000Y-93726000D01*
X118745000Y-93980000D02*
X118999000Y-93853000D01*
X144145000Y-93853000D02*
X144399000Y-93726000D01*
X135001000Y-98933000D02*
X133604000Y-98933000D01*
X120777000Y-96520000D02*
X120523000Y-96647000D01*
X143256000Y-98298000D02*
X143764000Y-96520000D01*
X133858000Y-96266000D02*
X133604000Y-96393000D01*
X117602000Y-98552000D02*
X117856000Y-98425000D01*
X136144000Y-95885000D02*
X136271000Y-96139000D01*
X141986000Y-93853000D02*
X141859000Y-93599000D01*
X128778000Y-93853000D02*
X128524000Y-93980000D01*
X135509000Y-98679000D02*
X135001000Y-98933000D01*
X133604000Y-96393000D02*
X133096000Y-98171000D01*
X120523000Y-96012000D02*
X120650000Y-96266000D01*
X136525000Y-96647000D02*
X136398000Y-96393000D01*
X143002000Y-98425000D02*
X143256000Y-98298000D01*
X125095000Y-98298000D02*
X125603000Y-96520000D01*
X126746000Y-93853000D02*
X126619000Y-93599000D01*
X144145000Y-93218000D02*
X144272000Y-93472000D01*
X137160000Y-93853000D02*
X137287000Y-94107000D01*
X115810000Y-91186000D02*
X115810000Y-89186000D01*
X128524000Y-93345000D02*
X128651000Y-93599000D01*
X120142000Y-98679000D02*
X120396000Y-98552000D01*
X140716000Y-98552000D02*
X141097000Y-98298000D01*
X119761000Y-93472000D02*
X121285000Y-93472000D01*
X144526000Y-93980000D02*
X144399000Y-93726000D01*
X128524000Y-93980000D02*
X128778000Y-93853000D01*
X128524000Y-93980000D02*
X128016000Y-95758000D01*
X118999000Y-93853000D02*
X118745000Y-93980000D01*
X128016000Y-95758000D02*
X128143000Y-96012000D01*
X141224000Y-95758000D02*
X141478000Y-95631000D01*
X125984000Y-96393000D02*
X125857000Y-96139000D01*
X128143000Y-93853000D02*
X126746000Y-93853000D01*
X126238000Y-93726000D02*
X125984000Y-93853000D01*
X126365000Y-93980000D02*
X126238000Y-93726000D01*
X121158000Y-96012000D02*
X120904000Y-96139000D01*
X121412000Y-93726000D02*
X120904000Y-93980000D01*
X135128000Y-93853000D02*
X135001000Y-93599000D01*
X126238000Y-95885000D02*
X127762000Y-95885000D01*
X117856000Y-98425000D02*
X118364000Y-96647000D01*
X141478000Y-96012000D02*
X141859000Y-95758000D01*
X141097000Y-96139000D02*
X140843000Y-96266000D01*
X143383000Y-96393000D02*
X142875000Y-98171000D01*
X144145000Y-93853000D02*
X143637000Y-95631000D01*
X124841000Y-98425000D02*
X125095000Y-98298000D01*
X144399000Y-93726000D02*
X144145000Y-93853000D01*
X125857000Y-95758000D02*
X126365000Y-93980000D01*
X118364000Y-96647000D02*
X118237000Y-96393000D01*
X142621000Y-93218000D02*
X144145000Y-93218000D01*
X142240000Y-98806000D02*
X140843000Y-98806000D01*
X127381000Y-96393000D02*
X125984000Y-96393000D01*
X117475000Y-98298000D02*
X117602000Y-98552000D01*
X144018000Y-95758000D02*
X144526000Y-93980000D01*
X136271000Y-96139000D02*
X135763000Y-96393000D01*
X134747000Y-93980000D02*
X134620000Y-93726000D01*
X143637000Y-96266000D02*
X143383000Y-96393000D01*
X133477000Y-98679000D02*
X133858000Y-98425000D01*
X124714000Y-98171000D02*
X124841000Y-98425000D01*
X118618000Y-96266000D02*
X118999000Y-96012000D01*
X120396000Y-98552000D02*
X120904000Y-96774000D01*
X134620000Y-93726000D02*
X134747000Y-93980000D01*
X127127000Y-98679000D02*
X126619000Y-98933000D01*
X135382000Y-93345000D02*
X136906000Y-93345000D01*
X141605000Y-93726000D02*
X141097000Y-95504000D01*
X141097000Y-95504000D02*
X141224000Y-95758000D01*
X134366000Y-93853000D02*
X133858000Y-95631000D01*
X125603000Y-96520000D02*
X125476000Y-96266000D01*
X137287000Y-94107000D02*
X136779000Y-95885000D01*
X145810000Y-89186000D02*
X145810000Y-91186000D01*
X137033000Y-93599000D02*
X136525000Y-93853000D01*
X119380000Y-93726000D02*
X119761000Y-93472000D01*
X120523000Y-96647000D02*
X120015000Y-98425000D01*
X142621000Y-98298000D02*
X142748000Y-98552000D01*
X125603000Y-95885000D02*
X125857000Y-95758000D01*
X142240000Y-93472000D02*
X142621000Y-93218000D01*
X141605000Y-96266000D02*
X141478000Y-96012000D01*
X133858000Y-98425000D02*
X135382000Y-98425000D01*
X128905000Y-94107000D02*
X128778000Y-93853000D01*
X133858000Y-95631000D02*
X133985000Y-95885000D01*
X136779000Y-95885000D02*
X136525000Y-96012000D01*
X144272000Y-93472000D02*
X143764000Y-93726000D01*
X121285000Y-93472000D02*
X121412000Y-93726000D01*
X145810000Y-103346000D02*
X115810000Y-103346000D01*
X128143000Y-96012000D02*
X128397000Y-95885000D01*
X120904000Y-93980000D02*
X119507000Y-93980000D01*
X127000000Y-93345000D02*
X128524000Y-93345000D01*
X133477000Y-98298000D02*
X133985000Y-96520000D01*
X141986000Y-93853000D02*
X141859000Y-93599000D01*
X127762000Y-95885000D02*
X127889000Y-96139000D01*
X118237000Y-98552000D02*
X119761000Y-98552000D01*
X117983000Y-96520000D02*
X117475000Y-98298000D01*
X140335000Y-98044000D02*
X140462000Y-98298000D01*
X134366000Y-96393000D02*
X134239000Y-96139000D01*
X141478000Y-95631000D02*
X141986000Y-93853000D01*
X126238000Y-93726000D02*
X125984000Y-93853000D01*
X120650000Y-96266000D02*
X120142000Y-96520000D01*
X125476000Y-95631000D02*
X125603000Y-95885000D01*
X134239000Y-96139000D02*
X134620000Y-95885000D01*
X142875000Y-98171000D02*
X143002000Y-98425000D01*
X133096000Y-98171000D02*
X133223000Y-98425000D01*
X141097000Y-98298000D02*
X142621000Y-98298000D01*
X118745000Y-96520000D02*
X118618000Y-96266000D01*
X118237000Y-96393000D02*
X117983000Y-96520000D01*
X134620000Y-95885000D02*
X136144000Y-95885000D01*
X143764000Y-95885000D02*
X144018000Y-95758000D01*
X115810000Y-89186000D02*
X145810000Y-89186000D01*
X136398000Y-96393000D02*
X136144000Y-96520000D01*
X140716000Y-98171000D02*
X141224000Y-96393000D01*
X135001000Y-93599000D02*
X135382000Y-93345000D01*
X128397000Y-95885000D02*
X128905000Y-94107000D01*
X140843000Y-98806000D02*
X140716000Y-98552000D01*
X115810000Y-103346000D02*
X115810000Y-101346000D01*
X121539000Y-93980000D02*
X121285000Y-94107000D01*
X126619000Y-98933000D02*
X125222000Y-98933000D01*
X134366000Y-93853000D02*
X134620000Y-93726000D01*
X143764000Y-93726000D02*
X142367000Y-93726000D01*
X125857000Y-96139000D02*
X126238000Y-95885000D01*
X136525000Y-93853000D02*
X135128000Y-93853000D01*
X115810000Y-101346000D02*
X115810000Y-91186000D01*
X135763000Y-96393000D02*
X134366000Y-96393000D01*
X143637000Y-95631000D02*
X143764000Y-95885000D01*
X136525000Y-96012000D02*
X136398000Y-95758000D01*
X145810000Y-91186000D02*
X145810000Y-101346000D01*
X133604000Y-98933000D02*
X133477000Y-98679000D01*
X128016000Y-96393000D02*
X127762000Y-96520000D01*
X120777000Y-95885000D02*
X121285000Y-94107000D01*
X117602000Y-98552000D02*
X117856000Y-98425000D01*
X118237000Y-95758000D02*
X118364000Y-96012000D01*
X125095000Y-98679000D02*
X125476000Y-98425000D01*
X140843000Y-96266000D02*
X140335000Y-98044000D01*
X127889000Y-96139000D02*
X127381000Y-96393000D01*
X118745000Y-93980000D02*
X118237000Y-95758000D01*
X128143000Y-96647000D02*
X128016000Y-96393000D01*
X134620000Y-93726000D02*
X134366000Y-93853000D01*
X118618000Y-95885000D02*
X119126000Y-94107000D01*
X125984000Y-93853000D02*
X125476000Y-95631000D01*
X140462000Y-98298000D02*
X140716000Y-98171000D01*
X143002000Y-96266000D02*
X141605000Y-96266000D01*
X127635000Y-98425000D02*
X128143000Y-96647000D01*
X127381000Y-98552000D02*
X127635000Y-98425000D01*
X125222000Y-96393000D02*
X124714000Y-98171000D01*
X136398000Y-95758000D02*
X136906000Y-93980000D01*
X142367000Y-93726000D02*
X142240000Y-93472000D01*
X117983000Y-99060000D02*
X117856000Y-98806000D01*
X141859000Y-93599000D02*
X141605000Y-93726000D01*
X119126000Y-94107000D02*
X118999000Y-93853000D01*
X124841000Y-98425000D02*
X125095000Y-98298000D01*
X120015000Y-98425000D02*
X120142000Y-98679000D01*
X136906000Y-93345000D02*
X137033000Y-93599000D01*
X135382000Y-98425000D02*
X135509000Y-98679000D01*
X127762000Y-96520000D02*
X127254000Y-98298000D01*
X135636000Y-98298000D02*
X135763000Y-98552000D01*
X118364000Y-96012000D02*
X118618000Y-95885000D01*
X119888000Y-98806000D02*
X119380000Y-99060000D01*
X135763000Y-98552000D02*
X136017000Y-98425000D01*
X136906000Y-93980000D02*
X137160000Y-93853000D01*
X120142000Y-96520000D02*
X118745000Y-96520000D01*
X136144000Y-96520000D02*
X135636000Y-98298000D01*
X136017000Y-98425000D02*
X136525000Y-96647000D01*
X145810000Y-101346000D02*
X145810000Y-103346000D01*
X125476000Y-96266000D02*
X125222000Y-96393000D01*
X133223000Y-98425000D02*
X133477000Y-98298000D01*
X140462000Y-98298000D02*
X140716000Y-98171000D01*
X121539000Y-93980000D02*
X121666000Y-94234000D01*
X117856000Y-98806000D02*
X118237000Y-98552000D01*
X143510000Y-96012000D02*
X143002000Y-96266000D01*
X120904000Y-96774000D02*
X120777000Y-96520000D01*
X120904000Y-96139000D02*
X120777000Y-95885000D01*
X141859000Y-93599000D02*
X141605000Y-93726000D01*
X119380000Y-99060000D02*
X117983000Y-99060000D01*
X126619000Y-93599000D02*
X127000000Y-93345000D01*
X142748000Y-98552000D02*
X142240000Y-98806000D01*
X119761000Y-98552000D02*
X119888000Y-98806000D01*
X133985000Y-96520000D02*
X133858000Y-96266000D01*
X143764000Y-96520000D02*
X143637000Y-96266000D01*
X125476000Y-98425000D02*
X127000000Y-98425000D01*
X118999000Y-96012000D02*
X120523000Y-96012000D01*
X125222000Y-98933000D02*
X125095000Y-98679000D01*
X141859000Y-95758000D02*
X143383000Y-95758000D01*
X133985000Y-95885000D02*
X134239000Y-95758000D01*
X143964935Y-98371987D02*
G75*
G03*
X143970000Y-98372000I2065J-179013D01*
G01*
X128343935Y-98498987D02*
G75*
G03*
X128349000Y-98499000I2073J-179013D01*
G01*
X136725935Y-98498987D02*
G75*
G03*
X136731000Y-98499000I2065J-179013D01*
G01*
X121104935Y-98625987D02*
G75*
G03*
X121110000Y-98626000I2073J-179013D01*
G01*
D13*
%TO.C,C3*%
X148157580Y-66038000D02*
X147876420Y-66038000D01*
X148157580Y-67058000D02*
X147876420Y-67058000D01*
D15*
%TO.C,B1*%
X144522000Y-48614000D02*
G75*
G03*
X144522000Y-48614000I-6600000J0D01*
G01*
X139192000Y-48614000D02*
G75*
G03*
X139192000Y-48614000I-1270000J0D01*
G01*
%TO.C,Y1*%
X143408000Y-84646000D02*
X149707000Y-84646000D01*
X149606000Y-80518000D02*
X143510000Y-80518000D01*
X143408000Y-79946000D02*
X149707000Y-79946000D01*
X149606000Y-84074000D02*
X143510000Y-84074000D01*
X149606321Y-84075025D02*
G75*
G03*
X149606000Y-80517000I139679J1779025D01*
G01*
X143408700Y-79947029D02*
G75*
G03*
X143408000Y-84647000I-98700J-2349971D01*
G01*
X143508437Y-80517889D02*
G75*
G03*
X143510000Y-84074000I-126437J-1778111D01*
G01*
X149706751Y-84646990D02*
G75*
G03*
X149707000Y-79945000I92249J2350990D01*
G01*
D13*
%TO.C,R12*%
X125461500Y-86249742D02*
X125461500Y-86724258D01*
X126506500Y-86249742D02*
X126506500Y-86724258D01*
%TO.C,R2*%
X93076500Y-92630258D02*
X93076500Y-92155742D01*
X94121500Y-92630258D02*
X94121500Y-92155742D01*
%TO.C,C5*%
X143574000Y-74816580D02*
X143574000Y-74535420D01*
X142554000Y-74816580D02*
X142554000Y-74535420D01*
D15*
%TO.C,USB3*%
X166980000Y-69352000D02*
X166980000Y-70292000D01*
X162415000Y-70947000D02*
X162441000Y-71280000D01*
X169545000Y-60894000D02*
X161100000Y-60894000D01*
X162390000Y-66810000D02*
X162364000Y-66477000D01*
X169545000Y-74102000D02*
X161100000Y-74102000D01*
X167437000Y-66228000D02*
X162390000Y-66810000D01*
X155575000Y-74102000D02*
X158025000Y-74102000D01*
X166929000Y-64882000D02*
X162331000Y-64094000D01*
X162382000Y-63790000D02*
X167437000Y-64374000D01*
X162433000Y-68260000D02*
X162382000Y-68565000D01*
X162441000Y-71280000D02*
X167488000Y-70698000D01*
X166980000Y-70292000D02*
X162415000Y-70947000D01*
X165100000Y-70521000D02*
X165100000Y-69073000D01*
X162382000Y-68565000D02*
X166980000Y-69352000D01*
X165049000Y-66050000D02*
X165049000Y-64602000D01*
X167488000Y-70698000D02*
X167488000Y-68844000D01*
X162364000Y-66477000D02*
X166929000Y-65822000D01*
X167437000Y-64374000D02*
X167437000Y-66228000D01*
X167488000Y-68844000D02*
X162433000Y-68260000D01*
X162331000Y-64094000D02*
X162382000Y-63790000D01*
X155575000Y-60894000D02*
X158000000Y-60894000D01*
X169545000Y-60894000D02*
X169545000Y-74102000D01*
X155575000Y-74102000D02*
X155575000Y-60894000D01*
X166929000Y-65822000D02*
X166929000Y-64882000D01*
X163347000Y-70851000D02*
X163347000Y-68768000D01*
X163297000Y-66380000D02*
X163297000Y-64298000D01*
D13*
%TO.C,A2*%
X68000000Y-29113400D02*
X76000000Y-29113400D01*
X76000000Y-29113400D02*
X76000000Y-37113400D01*
X76000000Y-37113400D02*
X68000000Y-37113400D01*
X68000000Y-37113400D02*
X68000000Y-29113400D01*
X68000000Y-29113400D02*
X60000000Y-29113400D01*
X60000000Y-29113400D02*
X60000000Y-37113400D01*
X60000000Y-37113400D02*
X68000000Y-37113400D01*
X68000000Y-37113400D02*
X68000000Y-29113400D01*
%TO.C,R5*%
X94121500Y-79772742D02*
X94121500Y-80247258D01*
X93076500Y-79772742D02*
X93076500Y-80247258D01*
%TO.C,R3*%
X94121500Y-84344742D02*
X94121500Y-84819258D01*
X93076500Y-84344742D02*
X93076500Y-84819258D01*
D10*
%TO.C,Pro1*%
X107950000Y-104902000D02*
X100330000Y-104902000D01*
X100330000Y-102362000D02*
X95250000Y-102362000D01*
X95250000Y-102362000D02*
X95250000Y-71882000D01*
X113030000Y-102362000D02*
X107950000Y-102362000D01*
X107950000Y-102362000D02*
X107950000Y-104902000D01*
X95250000Y-71882000D02*
X113030000Y-71882000D01*
X113030000Y-102362000D02*
X113030000Y-71882000D01*
X100330000Y-104902000D02*
X100330000Y-102362000D01*
D13*
%TO.C,F1*%
X60452000Y-87947500D02*
X60452000Y-81216500D01*
X60452000Y-81216500D02*
X62738000Y-81216500D01*
X80264000Y-87947500D02*
X77978000Y-87947500D01*
X77978000Y-81216500D02*
X80264000Y-81216500D01*
X64516000Y-81216500D02*
X76200000Y-81216500D01*
X62738000Y-87947500D02*
X60452000Y-87947500D01*
X76200000Y-87947500D02*
X64516000Y-87947500D01*
X80264000Y-81216500D02*
X80264000Y-87947500D01*
%TO.C,R10*%
X139460500Y-86724258D02*
X139460500Y-86249742D01*
X138415500Y-86724258D02*
X138415500Y-86249742D01*
%TO.C,R14*%
X137682500Y-86249742D02*
X137682500Y-86724258D01*
X136637500Y-86249742D02*
X136637500Y-86724258D01*
%TO.C,A4*%
X68000000Y-49113400D02*
X76000000Y-49113400D01*
X76000000Y-49113400D02*
X76000000Y-57113400D01*
X76000000Y-57113400D02*
X68000000Y-57113400D01*
X68000000Y-57113400D02*
X68000000Y-49113400D01*
X68000000Y-49113400D02*
X60000000Y-49113400D01*
X60000000Y-49113400D02*
X60000000Y-57113400D01*
X60000000Y-57113400D02*
X68000000Y-57113400D01*
X68000000Y-57113400D02*
X68000000Y-49113400D01*
D15*
%TO.C,USB1*%
X162441000Y-31280000D02*
X167488000Y-30698000D01*
X163347000Y-30851000D02*
X163347000Y-28768000D01*
X167488000Y-28844000D02*
X162433000Y-28260000D01*
X162382000Y-28565000D02*
X166980000Y-29352000D01*
X162331000Y-24094000D02*
X162382000Y-23790000D01*
X166929000Y-25822000D02*
X166929000Y-24882000D01*
X169545000Y-20894000D02*
X169545000Y-34102000D01*
X155575000Y-34102000D02*
X155575000Y-20894000D01*
X166980000Y-30292000D02*
X162415000Y-30947000D01*
X162390000Y-26810000D02*
X162364000Y-26477000D01*
X166980000Y-29352000D02*
X166980000Y-30292000D01*
X162415000Y-30947000D02*
X162441000Y-31280000D01*
X167488000Y-30698000D02*
X167488000Y-28844000D01*
X162433000Y-28260000D02*
X162382000Y-28565000D01*
X169545000Y-20894000D02*
X161100000Y-20894000D01*
X162382000Y-23790000D02*
X167437000Y-24374000D01*
X162364000Y-26477000D02*
X166929000Y-25822000D01*
X155575000Y-34102000D02*
X158025000Y-34102000D01*
X169545000Y-34102000D02*
X161100000Y-34102000D01*
X163297000Y-26380000D02*
X163297000Y-24298000D01*
X166929000Y-24882000D02*
X162331000Y-24094000D01*
X165049000Y-26050000D02*
X165049000Y-24602000D01*
X167437000Y-24374000D02*
X167437000Y-26228000D01*
X165100000Y-30521000D02*
X165100000Y-29073000D01*
X167437000Y-26228000D02*
X162390000Y-26810000D01*
X155575000Y-20894000D02*
X158000000Y-20894000D01*
D13*
%TO.C,C1*%
X123688888Y-73430000D02*
X123688888Y-74963000D01*
X124849888Y-73430000D02*
X124849888Y-74590000D01*
X124569888Y-73430000D02*
X124569888Y-74738000D01*
X125489888Y-70737000D02*
X125489888Y-71350000D01*
X123808888Y-69829000D02*
X123808888Y-71350000D01*
X123968888Y-69854000D02*
X123968888Y-71350000D01*
X123568888Y-69811000D02*
X123568888Y-71350000D01*
X125929888Y-71475000D02*
X125929888Y-73305000D01*
X124609888Y-73430000D02*
X124609888Y-74719000D01*
X123848888Y-69834000D02*
X123848888Y-71350000D01*
X124088888Y-69879000D02*
X124088888Y-71350000D01*
X124249888Y-69922000D02*
X124249888Y-71350000D01*
X125609888Y-70890000D02*
X125609888Y-73890000D01*
X123928888Y-73430000D02*
X123928888Y-74933000D01*
X123888888Y-69840000D02*
X123888888Y-71350000D01*
X124409888Y-73430000D02*
X124409888Y-74804000D01*
X125129888Y-73430000D02*
X125129888Y-74394000D01*
X124929888Y-73430000D02*
X124929888Y-74539000D01*
X124569888Y-70042000D02*
X124569888Y-71350000D01*
X125449888Y-70691000D02*
X125449888Y-71350000D01*
X124209888Y-73430000D02*
X124209888Y-74870000D01*
X124649888Y-73430000D02*
X124649888Y-74700000D01*
X120934113Y-70665000D02*
X120934113Y-71165000D01*
X125969888Y-71585000D02*
X125969888Y-73195000D01*
X123568888Y-73430000D02*
X123568888Y-74969000D01*
X124809888Y-73430000D02*
X124809888Y-74614000D01*
X123808888Y-73430000D02*
X123808888Y-74951000D01*
X125529888Y-70785000D02*
X125529888Y-73995000D01*
X124369888Y-73430000D02*
X124369888Y-74818000D01*
X125009888Y-73430000D02*
X125009888Y-74485000D01*
X124889888Y-73430000D02*
X124889888Y-74565000D01*
X125649888Y-70947000D02*
X125649888Y-73833000D01*
X124689888Y-73430000D02*
X124689888Y-74680000D01*
X124689888Y-70100000D02*
X124689888Y-71350000D01*
X125409888Y-73430000D02*
X125409888Y-74133000D01*
X123728888Y-69821000D02*
X123728888Y-71350000D01*
X125689888Y-71007000D02*
X125689888Y-73773000D01*
X124449888Y-69992000D02*
X124449888Y-71350000D01*
X123528888Y-69810000D02*
X123528888Y-71350000D01*
X124489888Y-73430000D02*
X124489888Y-74772000D01*
X123648888Y-69814000D02*
X123648888Y-71350000D01*
X125849888Y-71292000D02*
X125849888Y-73488000D01*
X125449888Y-73430000D02*
X125449888Y-74089000D01*
X123688888Y-69817000D02*
X123688888Y-71350000D01*
X125369888Y-73430000D02*
X125369888Y-74175000D01*
X123608888Y-73430000D02*
X123608888Y-74968000D01*
X124168888Y-69899000D02*
X124168888Y-71350000D01*
X123768888Y-73430000D02*
X123768888Y-74955000D01*
X125089888Y-70355000D02*
X125089888Y-71350000D01*
X125569888Y-70836000D02*
X125569888Y-73944000D01*
X123528888Y-73430000D02*
X123528888Y-74970000D01*
X125289888Y-73430000D02*
X125289888Y-74254000D01*
X124329888Y-69948000D02*
X124329888Y-71350000D01*
X124769888Y-70143000D02*
X124769888Y-71350000D01*
X125329888Y-73430000D02*
X125329888Y-74216000D01*
X124729888Y-70122000D02*
X124729888Y-71350000D01*
X125329888Y-70564000D02*
X125329888Y-71350000D01*
X124529888Y-70025000D02*
X124529888Y-71350000D01*
X123888888Y-73430000D02*
X123888888Y-74940000D01*
X123488888Y-73430000D02*
X123488888Y-74970000D01*
X125209888Y-73430000D02*
X125209888Y-74327000D01*
X126089888Y-72106000D02*
X126089888Y-72674000D01*
X124128888Y-73430000D02*
X124128888Y-74891000D01*
X124289888Y-73430000D02*
X124289888Y-74845000D01*
X124409888Y-69976000D02*
X124409888Y-71350000D01*
X123968888Y-73430000D02*
X123968888Y-74926000D01*
X124329888Y-73430000D02*
X124329888Y-74832000D01*
X124128888Y-69889000D02*
X124128888Y-71350000D01*
X123848888Y-73430000D02*
X123848888Y-74946000D01*
X123768888Y-69825000D02*
X123768888Y-71350000D01*
X123648888Y-73430000D02*
X123648888Y-74966000D01*
X125889888Y-71379000D02*
X125889888Y-73401000D01*
X120684113Y-70915000D02*
X121184113Y-70915000D01*
X125009888Y-70295000D02*
X125009888Y-71350000D01*
X124209888Y-69910000D02*
X124209888Y-71350000D01*
X124929888Y-70241000D02*
X124929888Y-71350000D01*
X124529888Y-73430000D02*
X124529888Y-74755000D01*
X125169888Y-70419000D02*
X125169888Y-71350000D01*
X125289888Y-70526000D02*
X125289888Y-71350000D01*
X124008888Y-69862000D02*
X124008888Y-71350000D01*
X125049888Y-70325000D02*
X125049888Y-71350000D01*
X124168888Y-73430000D02*
X124168888Y-74881000D01*
X124649888Y-70080000D02*
X124649888Y-71350000D01*
X124289888Y-69935000D02*
X124289888Y-71350000D01*
X125049888Y-73430000D02*
X125049888Y-74455000D01*
X124729888Y-73430000D02*
X124729888Y-74658000D01*
X126049888Y-71872000D02*
X126049888Y-72908000D01*
X123608888Y-69812000D02*
X123608888Y-71350000D01*
X125209888Y-70453000D02*
X125209888Y-71350000D01*
X125169888Y-73430000D02*
X125169888Y-74361000D01*
X125809888Y-71212000D02*
X125809888Y-73568000D01*
X125489888Y-73430000D02*
X125489888Y-74043000D01*
X124449888Y-73430000D02*
X124449888Y-74788000D01*
X124849888Y-70190000D02*
X124849888Y-71350000D01*
X124088888Y-73430000D02*
X124088888Y-74901000D01*
X124008888Y-73430000D02*
X124008888Y-74918000D01*
X125249888Y-73430000D02*
X125249888Y-74291000D01*
X123728888Y-73430000D02*
X123728888Y-74959000D01*
X124489888Y-70008000D02*
X124489888Y-71350000D01*
X124769888Y-73430000D02*
X124769888Y-74637000D01*
X124809888Y-70166000D02*
X124809888Y-71350000D01*
X123928888Y-69847000D02*
X123928888Y-71350000D01*
X124249888Y-73430000D02*
X124249888Y-74858000D01*
X124048888Y-69870000D02*
X124048888Y-71350000D01*
X125249888Y-70489000D02*
X125249888Y-71350000D01*
X124969888Y-70268000D02*
X124969888Y-71350000D01*
X124969888Y-73430000D02*
X124969888Y-74512000D01*
X125129888Y-70386000D02*
X125129888Y-71350000D01*
X125769888Y-71139000D02*
X125769888Y-73641000D01*
X126009888Y-71713000D02*
X126009888Y-73067000D01*
X125089888Y-73430000D02*
X125089888Y-74425000D01*
X124609888Y-70061000D02*
X124609888Y-71350000D01*
X123488888Y-69810000D02*
X123488888Y-71350000D01*
X124889888Y-70215000D02*
X124889888Y-71350000D01*
X125729888Y-71071000D02*
X125729888Y-73709000D01*
X124048888Y-73430000D02*
X124048888Y-74910000D01*
X124369888Y-69962000D02*
X124369888Y-71350000D01*
X125409888Y-70647000D02*
X125409888Y-71350000D01*
X125369888Y-70605000D02*
X125369888Y-71350000D01*
X126108888Y-72390000D02*
G75*
G03*
X126108888Y-72390000I-2620000J0D01*
G01*
%TO.C,C4*%
X142554000Y-71514580D02*
X142554000Y-71233420D01*
X143574000Y-71514580D02*
X143574000Y-71233420D01*
%TO.C,R1*%
X94121500Y-95742258D02*
X94121500Y-95267742D01*
X93076500Y-95742258D02*
X93076500Y-95267742D01*
%TO.C,A5*%
X68000000Y-59113400D02*
X60000000Y-59113400D01*
X60000000Y-59113400D02*
X60000000Y-67113400D01*
X60000000Y-67113400D02*
X68000000Y-67113400D01*
X68000000Y-67113400D02*
X68000000Y-59113400D01*
X68000000Y-59113400D02*
X76000000Y-59113400D01*
X76000000Y-59113400D02*
X76000000Y-67113400D01*
X76000000Y-67113400D02*
X68000000Y-67113400D01*
X68000000Y-67113400D02*
X68000000Y-59113400D01*
D15*
%TO.C,SW2*%
X167215600Y-98963400D02*
X167215600Y-101846400D01*
X158615600Y-98963400D02*
X167215600Y-98963400D01*
X158615600Y-98963400D02*
X158615600Y-102763400D01*
X167215600Y-101846400D02*
X167215600Y-102763400D01*
X158615600Y-102763400D02*
X167215600Y-102763400D01*
X161391600Y-101498400D02*
X161391600Y-100228400D01*
X161391600Y-100228400D02*
X161899600Y-100228400D01*
X163502600Y-101663400D02*
X164665600Y-101663400D01*
X163502600Y-100063400D02*
X164566600Y-100063400D01*
X164665600Y-100063400D02*
X164665600Y-100213400D01*
X161165600Y-101663400D02*
X161165600Y-101513400D01*
X161165600Y-100063400D02*
X161165600Y-100213400D01*
X161899600Y-101498400D02*
X161391600Y-101498400D01*
X161899600Y-100228400D02*
X161899600Y-101498400D01*
X161165600Y-100063400D02*
X162328600Y-100063400D01*
X164665600Y-101513400D02*
X164665600Y-101663400D01*
X161165600Y-101663400D02*
X162328600Y-101663400D01*
D13*
%TO.C,R4*%
X94121500Y-87994258D02*
X94121500Y-87519742D01*
X93076500Y-87994258D02*
X93076500Y-87519742D01*
%TO.C,A3*%
X68000000Y-39113400D02*
X60000000Y-39113400D01*
X60000000Y-39113400D02*
X60000000Y-47113400D01*
X60000000Y-47113400D02*
X68000000Y-47113400D01*
X68000000Y-47113400D02*
X68000000Y-39113400D01*
X68000000Y-39113400D02*
X76000000Y-39113400D01*
X76000000Y-39113400D02*
X76000000Y-47113400D01*
X76000000Y-47113400D02*
X68000000Y-47113400D01*
X68000000Y-47113400D02*
X68000000Y-39113400D01*
D16*
%TO.C,Converter1*%
X147320000Y-40005000D02*
X147320000Y4445000D01*
X103632000Y-40005000D02*
X83820000Y-40005000D01*
X83820000Y-40005000D02*
X83820000Y4445000D01*
X127762000Y-40005000D02*
X147320000Y-40005000D01*
X147320000Y4445000D02*
X83820000Y4445000D01*
X127762000Y-56515000D02*
X103632000Y-56515000D01*
X127762000Y-56515000D02*
X127762000Y-40005000D01*
X103632000Y-56515000D02*
X103632000Y-40005000D01*
D13*
%TO.C,R15*%
X137108500Y-81591858D02*
X137108500Y-81117342D01*
X138153500Y-81591858D02*
X138153500Y-81117342D01*
%TO.C,R9*%
X122696500Y-86724258D02*
X122696500Y-86249742D01*
X121651500Y-86724258D02*
X121651500Y-86249742D01*
D12*
%TO.C,Q1*%
X134432000Y-78953600D02*
X133401000Y-78953600D01*
X131380000Y-78953600D02*
X132411000Y-78953600D01*
X134432000Y-80405600D02*
X134432000Y-78953600D01*
X133361000Y-80405600D02*
X132451000Y-80405600D01*
X131380000Y-80405600D02*
X131380000Y-78953600D01*
D13*
%TO.C,A6*%
X68000000Y-69113400D02*
X76000000Y-69113400D01*
X76000000Y-69113400D02*
X76000000Y-77113400D01*
X76000000Y-77113400D02*
X68000000Y-77113400D01*
X68000000Y-77113400D02*
X68000000Y-69113400D01*
X68000000Y-69113400D02*
X60000000Y-69113400D01*
X60000000Y-69113400D02*
X60000000Y-77113400D01*
X60000000Y-77113400D02*
X68000000Y-77113400D01*
X68000000Y-77113400D02*
X68000000Y-69113400D01*
%TO.C,A1*%
X68000000Y-19113400D02*
X76000000Y-19113400D01*
X76000000Y-19113400D02*
X76000000Y-27113400D01*
X76000000Y-27113400D02*
X68000000Y-27113400D01*
X68000000Y-27113400D02*
X68000000Y-19113400D01*
X68000000Y-19113400D02*
X60000000Y-19113400D01*
X60000000Y-19113400D02*
X60000000Y-27113400D01*
X60000000Y-27113400D02*
X68000000Y-27113400D01*
X68000000Y-27113400D02*
X68000000Y-19113400D01*
%TO.C,R13*%
X127112500Y-86249742D02*
X127112500Y-86724258D01*
X128157500Y-86249742D02*
X128157500Y-86724258D01*
%TO.C,Sw1*%
X118548000Y-70328000D02*
X103448000Y-70328000D01*
X103448000Y-70328000D02*
X103448000Y-60228000D01*
X103448000Y-60228000D02*
X118548000Y-60228000D01*
X118548000Y-60228000D02*
X118548000Y-70328000D01*
%TO.C,FTDI1*%
X147890000Y-77704000D02*
X149840000Y-77704000D01*
X147890000Y-67584000D02*
X149840000Y-67584000D01*
X147890000Y-67584000D02*
X144440000Y-67584000D01*
X147890000Y-77704000D02*
X145940000Y-77704000D01*
%TO.C,R16*%
X135457500Y-81591858D02*
X135457500Y-81117342D01*
X136502500Y-81591858D02*
X136502500Y-81117342D01*
%TO.C,Batt1*%
X75116000Y-98018000D02*
X72266000Y-95418000D01*
X72266000Y-103718000D02*
X75116000Y-101168000D01*
X72266000Y-95418000D02*
X59416000Y-95418000D01*
X59416000Y-103718000D02*
X72266000Y-103718000D01*
X75116000Y-101168000D02*
X75116000Y-98018000D01*
X59416000Y-95418000D02*
X59416000Y-103718000D01*
%TO.C,C6*%
X143574000Y-77837420D02*
X143574000Y-78118580D01*
X142554000Y-77837420D02*
X142554000Y-78118580D01*
%TO.C,J2*%
X79816000Y-100330000D02*
X77156000Y-100330000D01*
X79816000Y-101600000D02*
X79816000Y-102930000D01*
X79816000Y-100330000D02*
X79816000Y-92650000D01*
X79816000Y-92650000D02*
X77156000Y-92650000D01*
X79816000Y-102930000D02*
X78486000Y-102930000D01*
X77156000Y-100330000D02*
X77156000Y-92650000D01*
D15*
%TO.C,USB4*%
X155575000Y-80894000D02*
X158000000Y-80894000D01*
X162433000Y-88260000D02*
X162382000Y-88565000D01*
X166929000Y-84882000D02*
X162331000Y-84094000D01*
X169545000Y-94102000D02*
X161100000Y-94102000D01*
X155575000Y-94102000D02*
X158025000Y-94102000D01*
X166980000Y-89352000D02*
X166980000Y-90292000D01*
X162364000Y-86477000D02*
X166929000Y-85822000D01*
X162382000Y-88565000D02*
X166980000Y-89352000D01*
X162390000Y-86810000D02*
X162364000Y-86477000D01*
X162441000Y-91280000D02*
X167488000Y-90698000D01*
X165100000Y-90521000D02*
X165100000Y-89073000D01*
X167488000Y-90698000D02*
X167488000Y-88844000D01*
X162331000Y-84094000D02*
X162382000Y-83790000D01*
X162415000Y-90947000D02*
X162441000Y-91280000D01*
X163347000Y-90851000D02*
X163347000Y-88768000D01*
X166929000Y-85822000D02*
X166929000Y-84882000D01*
X163297000Y-86380000D02*
X163297000Y-84298000D01*
X169545000Y-80894000D02*
X169545000Y-94102000D01*
X155575000Y-94102000D02*
X155575000Y-80894000D01*
X167488000Y-88844000D02*
X162433000Y-88260000D01*
X162382000Y-83790000D02*
X167437000Y-84374000D01*
X165049000Y-86050000D02*
X165049000Y-84602000D01*
X169545000Y-80894000D02*
X161100000Y-80894000D01*
X167437000Y-86228000D02*
X162390000Y-86810000D01*
X167437000Y-84374000D02*
X167437000Y-86228000D01*
X166980000Y-90292000D02*
X162415000Y-90947000D01*
D13*
%TO.C,R8*%
X120000500Y-86724258D02*
X120000500Y-86249742D01*
X121045500Y-86724258D02*
X121045500Y-86249742D01*
%TD*%
M02*
