M48
; DRILL file {KiCad 6.0.9-8da3e8f707~117~ubuntu20.04.1} date Sun 29 Jan 2023 10:52:13 PM PST
; FORMAT={-:-/ absolute / inch / decimal}
; #@! TF.CreationDate,2023-01-29T22:52:13-08:00
; #@! TF.GenerationSoftware,Kicad,Pcbnew,6.0.9-8da3e8f707~117~ubuntu20.04.1
; #@! TF.FileFunction,Plated,1,2,PTH
FMAT,2
INCH
; #@! TA.AperFunction,Plated,PTH,ViaDrill
T1C0.0157
; #@! TA.AperFunction,Plated,PTH,ComponentDrill
T2C0.0276
; #@! TA.AperFunction,Plated,PTH,ComponentDrill
T3C0.0300
; #@! TA.AperFunction,Plated,PTH,ComponentDrill
T4C0.0315
; #@! TA.AperFunction,Plated,PTH,ComponentDrill
T5C0.0360
; #@! TA.AperFunction,Plated,PTH,ComponentDrill
T6C0.0362
; #@! TA.AperFunction,Plated,PTH,ComponentDrill
T7C0.0374
; #@! TA.AperFunction,Plated,PTH,ComponentDrill
T8C0.0394
; #@! TA.AperFunction,Plated,PTH,ComponentDrill
T9C0.0433
; #@! TA.AperFunction,Plated,PTH,ComponentDrill
T10C0.0472
; #@! TA.AperFunction,Plated,PTH,ComponentDrill
T11C0.0551
; #@! TA.AperFunction,Plated,PTH,ComponentDrill
T12C0.0827
; #@! TA.AperFunction,Plated,PTH,ComponentDrill
T13C0.1181
; #@! TA.AperFunction,Plated,PTH,ComponentDrill
T14C0.1772
%
G90
G05
T1
X3.575Y-3.605
X4.009Y-3.679
X4.269Y-3.952
X4.508Y-3.633
X4.574Y-2.877
X4.689Y-3.053
X4.817Y-2.992
X4.963Y-3.205
X5.07Y-2.774
X5.2749Y-2.3564
X5.336Y-2.904
X5.338Y-2.954
X5.593Y-2.7795
X5.601Y-2.436
X5.62Y-2.68
X5.714Y-2.571
X5.803Y-3.759
X5.805Y-2.785
T2
X5.6735Y-3.24
X5.8665Y-3.24
T3
X4.9Y-3.59
X4.9Y-3.99
X5.0Y-3.59
X5.0Y-3.99
X5.1Y-3.59
X5.1Y-3.99
X5.2Y-3.59
X5.2Y-3.99
X5.3Y-3.59
X5.3Y-3.99
X5.4Y-3.59
X5.4Y-3.99
T4
X4.8224Y-2.485
X4.8224Y-2.85
X4.9011Y-2.485
X4.9011Y-2.85
T5
X6.3156Y-3.971
X6.414Y-3.971
X6.5124Y-3.971
T6
X6.175Y-0.9448
X6.175Y-1.0432
X6.175Y-1.122
X6.175Y-1.2204
X6.175Y-1.7322
X6.175Y-1.8306
X6.175Y-1.9094
X6.175Y-2.0078
X6.175Y-2.5196
X6.175Y-2.618
X6.175Y-2.6968
X6.175Y-2.7952
X6.175Y-3.307
X6.175Y-3.4054
X6.175Y-3.4842
X6.175Y-3.5826
T7
X3.35Y-3.7
X3.35Y-3.7984
X3.35Y-3.8969
X3.35Y-3.9953
T8
X3.09Y-3.7
X3.09Y-3.8
X3.09Y-3.9
X3.09Y-4.0
X5.825Y-1.8458
X5.825Y-1.9458
T9
X3.8Y-2.88
X3.8Y-2.98
X3.8Y-3.08
X3.8Y-3.18
X3.8Y-3.28
X3.8Y-3.38
X3.8Y-3.48
X3.8Y-3.58
X3.8Y-3.68
X3.8Y-3.78
X3.8Y-3.88
X3.8Y-3.98
X4.4Y-2.88
X4.4Y-2.98
X4.4Y-3.08
X4.4Y-3.18
X4.4Y-3.28
X4.4Y-3.38
X4.4Y-3.48
X4.4Y-3.58
X4.4Y-3.68
X4.4Y-3.78
X4.4Y-3.88
X4.4Y-3.98
T10
X5.2824Y-1.9139
X5.5776Y-1.9139
T11
X2.5197Y-0.91
X2.5197Y-1.3037
X2.5197Y-1.6974
X2.5197Y-2.0911
X2.5197Y-2.4848
X2.5197Y-2.8785
X2.8346Y-0.91
X2.8346Y-1.3037
X2.8346Y-1.6974
X2.8346Y-2.0911
X2.8346Y-2.4848
X2.8346Y-2.8785
T12
X6.2817Y-0.8247
X6.2817Y-1.3405
X6.2817Y-1.6121
X6.2817Y-2.1279
X6.2817Y-2.3995
X6.2817Y-2.9153
X6.2817Y-3.1869
X6.2817Y-3.7027
T13
X4.297Y-2.182
X4.547Y-2.182
X4.787Y-2.182
X5.027Y-2.182
T14
X2.5065Y-3.92
X2.79Y-3.92
T10
G00X4.2145Y-2.505
M15
G01X4.2145Y-2.635
M16
G05
G00X4.4113Y-2.505
M15
G01X4.4113Y-2.635
M16
G05
T0
M30
